<?xml version="1.0" encoding="iso-8859-1"?>
<!-- Generator: Adobe Illustrator 19.0.0, SVG Export Plug-In . SVG Version: 6.00 Build 0)  -->
<svg version="1.1" id="Layer_1" xmlns="http://www.w3.org/2000/svg" xmlns:xlink="http://www.w3.org/1999/xlink" x="0px" y="0px"
	 viewBox="0 0 512 512" style="enable-background:new 0 0 512 512;" xml:space="preserve">
<polygon style="fill:#546F7A;" points="363.364,54.126 363.364,98.074 148.636,98.074 148.636,54.126 71.671,54.126 71.671,504.495 
	440.329,504.495 440.329,54.126 "/>
<g>
	<rect x="128.625" y="54.125" style="fill:#465A65;" width="20.013" height="43.948"/>
	<rect x="420.316" y="54.125" style="fill:#465A65;" width="20.013" height="450.365"/>
</g>
<path style="fill:#F7CB4F;" d="M292.026,35.74C288.051,19.533,273.433,7.505,256,7.505s-32.051,12.028-36.026,28.235h-71.34v62.334
	h214.729V35.74H292.026z"/>
<rect x="148.638" y="78.061" style="fill:#F4B008;" width="214.73" height="20.013"/>
<polygon style="fill:#EFE7E4;" points="363.364,82.503 363.364,98.074 148.636,98.074 148.636,82.503 106.255,82.503 
	106.255,473.276 405.746,473.276 405.746,82.503 "/>
<rect x="385.733" y="82.504" style="fill:#D8D1D0;" width="20.013" height="390.776"/>
<path style="fill:#F7CB4F;" d="M363.364,256.026c0-0.017,0-0.034,0-0.051c0-63.416-51.41-114.826-114.826-114.826
	c-22.96,0-44.343,6.742-62.286,18.35l61.478,96.476L363.364,256.026z"/>
<path style="fill:#F4B008;" d="M248.539,141.149c-3.356,0-6.673,0.161-9.957,0.443c58.706,5.095,104.77,54.356,104.77,114.383
	c0,0.014,0,0.028,0,0.042l20.013,0.009c0-0.017,0-0.034,0-0.051C363.364,192.559,311.956,141.149,248.539,141.149z"/>
<path style="fill:#F2464F;" d="M247.732,255.975l-53.457-83.889c-27.465,17.803-45.638,48.722-45.638,83.889
	c0,32.139,15.18,60.73,38.757,79.004L247.732,255.975L247.732,255.975z"/>
<path style="fill:#D3333C;" d="M227.718,255.975l-52.122,68.246c3.639,3.889,7.581,7.491,11.797,10.758l60.338-79.004l-9.505-14.916
	L227.718,255.975z"/>
<path style="fill:#FF6137;" d="M247.732,255.975l-50.153,65.668c14.074,10.938,31.756,17.454,50.96,17.454
	c45.895,0,83.101-37.195,83.121-83.084L247.732,255.975z"/>
<path style="fill:#E04F32;" d="M247.732,255.975l-0.007,0.009l63.923,0.028c-0.019,42.521-31.972,77.553-73.172,82.471
	c3.3,0.398,6.656,0.613,10.064,0.613c45.895,0,83.101-37.195,83.121-83.084L247.732,255.975z"/>
<path d="M405.746,199.291c-4.146,0-7.505,3.36-7.505,7.505v258.974H113.76v-92.094c0-4.145-3.36-7.505-7.505-7.505
	c-4.145,0-7.505,3.36-7.505,7.505v99.599c0,4.145,3.36,7.505,7.505,7.505h299.491c4.146,0,7.505-3.36,7.505-7.505V206.796
	C413.251,202.652,409.891,199.291,405.746,199.291z"/>
<path d="M440.329,46.622h-69.459V35.74c0-4.145-3.359-7.505-7.505-7.505h-65.862C290.881,11.35,274.574,0,256,0
	s-34.88,11.35-41.502,28.235h-65.862c-4.145,0-7.505,3.36-7.505,7.505v10.881H71.671c-4.145,0-7.505,3.36-7.505,7.505v450.369
	c0,4.145,3.36,7.505,7.505,7.505h368.657c4.146,0,7.505-3.36,7.505-7.505V54.126C447.834,49.982,444.474,46.622,440.329,46.622z
	 M156.141,43.245h63.834c3.456,0,6.465-2.361,7.289-5.718C230.515,24.27,242.332,15.01,256,15.01s25.485,9.26,28.736,22.518
	c0.823,3.357,3.832,5.718,7.289,5.718h63.835v10.881v28.377v8.066H156.141v-8.066V54.126V43.245z M432.824,496.99H79.176V61.631
	h61.955v13.367h-34.877c-4.145,0-7.505,3.36-7.505,7.505V348.66c0,4.145,3.36,7.505,7.505,7.505c4.145,0,7.505-3.36,7.505-7.505
	V90.008h27.372v8.066c0,4.145,3.36,7.505,7.505,7.505h214.728c4.146,0,7.505-3.36,7.505-7.505v-8.066h27.371v91.772
	c0,4.145,3.359,7.505,7.505,7.505s7.505-3.36,7.505-7.505V82.503c0-4.145-3.359-7.505-7.505-7.505h-34.876V61.631h61.955
	L432.824,496.99L432.824,496.99z"/>
<path d="M182.796,340.911c1.323,1.026,2.942,1.573,4.598,1.573c0.322,0,0.646-0.021,0.97-0.063c1.982-0.258,3.78-1.297,4.994-2.887
	l5.779-7.567c14.688,9.597,31.619,14.635,49.402,14.635c47.422,0,86.462-36.63,90.31-83.081l24.513,0.011c0.001,0,0.002,0,0.003,0
	c1.989,0,3.899-0.816,5.305-2.222c1.408-1.408,2.199-3.342,2.199-5.333c0-40.508-20.011-78.326-53.531-101.164
	c-3.424-2.333-8.093-1.448-10.428,1.976c-2.334,3.425-1.449,8.094,1.977,10.428c27.333,18.623,44.43,48.595,46.712,81.302
	l-84.037-0.037l-19.712-0.009l-49.488-77.661l-1.757-2.758l0,0l-3.876-6.082c15.809-8.733,33.573-13.317,51.811-13.317
	c13.255,0,26.189,2.385,38.444,7.089c3.87,1.485,8.211-0.447,9.695-4.317c1.485-3.87-0.447-8.21-4.317-9.695
	c-13.979-5.366-28.723-8.085-43.823-8.085c-23.641,0-46.589,6.761-66.361,19.554c-3.463,2.24-4.469,6.855-2.252,10.335l4.159,6.527
	c-27.024,20.261-42.953,51.85-42.953,85.915C141.131,289.43,156.318,320.388,182.796,340.911z M323.782,263.514
	c-3.794,38.169-36.098,68.079-75.243,68.079c-14.455,0-28.232-3.987-40.261-11.594l43.164-56.517l20.524,0.009L323.782,263.514z
	 M192.173,182.755l46.411,72.833l-46.971,61.501c-0.001,0.002-0.002,0.004-0.004,0.005l-5.411,7.085
	c-19.193-17.496-30.059-41.957-30.059-68.203C156.141,227.06,169.48,200.211,192.173,182.755z"/>
<path d="M359.378,388.04c0-4.145-3.359-7.505-7.505-7.505H161.905c-4.145,0-7.505,3.36-7.505,7.505s3.36,7.505,7.505,7.505h189.967
	C356.018,395.545,359.378,392.185,359.378,388.04z"/>
<path d="M161.905,416.371c-4.145,0-7.505,3.36-7.505,7.505c0,4.145,3.36,7.505,7.505,7.505h130.978c4.146,0,7.505-3.36,7.505-7.505
	c0-4.145-3.359-7.505-7.505-7.505H161.905z"/>
<g>
</g>
<g>
</g>
<g>
</g>
<g>
</g>
<g>
</g>
<g>
</g>
<g>
</g>
<g>
</g>
<g>
</g>
<g>
</g>
<g>
</g>
<g>
</g>
<g>
</g>
<g>
</g>
<g>
</g>
</svg>
