<?xml version="1.0" encoding="iso-8859-1"?>
<!-- Generator: Adobe Illustrator 19.0.0, SVG Export Plug-In . SVG Version: 6.00 Build 0)  -->
<svg version="1.1" id="Layer_1" xmlns="http://www.w3.org/2000/svg" xmlns:xlink="http://www.w3.org/1999/xlink" x="0px" y="0px"
	 viewBox="0 0 512 512" style="enable-background:new 0 0 512 512;" xml:space="preserve">
<path style="fill:#FFC89F;" d="M256,319.753L256,319.753c-26.658,0-48.468-21.81-48.468-48.468v-41.707
	c0-26.658,21.81-48.468,48.468-48.468l0,0c26.658,0,48.468,21.81,48.468,48.468v41.707C304.468,297.943,282.657,319.753,256,319.753
	z"/>
<path style="fill:#F7B081;" d="M256,181.11L256,181.11c-3.406,0-6.732,0.361-9.945,1.037c21.929,4.621,38.523,24.179,38.523,47.43
	v41.707c0,23.25-16.594,42.809-38.523,47.43c3.213,0.677,6.539,1.038,9.945,1.038l0,0c26.658,0,48.468-21.81,48.468-48.468v-41.707
	C304.468,202.92,282.657,181.11,256,181.11z"/>
<path style="fill:#68B9D8;" d="M256,450.292h101.417v-32.56c0-53.518-47.903-97.328-101.417-98.061
	c-53.513,0.732-101.418,44.542-101.418,98.061v32.56L256,450.292L256,450.292z"/>
<path style="fill:#3695B2;" d="M256,319.671c-3.341,0.046-6.659,0.26-9.945,0.633c49.362,5.606,91.471,47.25,91.471,97.427v32.561
	h19.891v-32.561C357.417,364.212,309.514,320.403,256,319.671z"/>
<path style="fill:#68B9D8;" d="M108.877,330.891h101.418v-32.56c0-53.518-47.903-97.329-101.418-98.061
	C55.362,201.002,7.459,244.811,7.459,298.33v32.56L108.877,330.891L108.877,330.891z"/>
<path style="fill:#3695B2;" d="M108.877,200.27c-3.341,0.046-6.659,0.26-9.945,0.633c49.362,5.606,91.472,47.25,91.472,97.427v32.56
	h19.891v-32.56C210.293,244.811,162.39,201.002,108.877,200.27z"/>
<path style="fill:#68B9D8;" d="M403.124,330.891H301.707v-32.56c0-53.518,47.903-97.329,101.418-98.061
	c53.513,0.732,101.417,44.542,101.417,98.061v32.56H403.124z"/>
<path style="fill:#3695B2;" d="M403.124,200.27c-3.341,0.046-6.658,0.26-9.945,0.633c49.362,5.606,91.471,47.25,91.471,97.427v32.56
	h19.891v-32.56C504.541,244.811,456.638,201.002,403.124,200.27z"/>
<path style="fill:#FFC89F;" d="M108.877,200.352L108.877,200.352c-26.658,0-48.468-21.81-48.468-48.468v-41.707
	c0-26.658,21.81-48.468,48.468-48.468l0,0c26.658,0,48.468,21.81,48.468,48.468v41.707
	C157.344,178.542,135.533,200.352,108.877,200.352z"/>
<path style="fill:#F7B081;" d="M108.877,61.709L108.877,61.709c-3.406,0-6.733,0.361-9.945,1.038
	c21.929,4.621,38.523,24.179,38.523,47.43v41.707c0,23.25-16.594,42.81-38.523,47.43c3.213,0.677,6.539,1.037,9.945,1.037l0,0
	c26.658,0,48.468-21.81,48.468-48.468v-41.707C157.344,83.519,135.533,61.709,108.877,61.709z"/>
<path style="fill:#FFC89F;" d="M403.124,200.352L403.124,200.352c26.658,0,48.468-21.81,48.468-48.468v-41.708
	c0-26.657-21.81-48.468-48.468-48.468l0,0c-26.658,0-48.468,21.81-48.468,48.468v41.708
	C354.656,178.542,376.467,200.352,403.124,200.352z"/>
<path style="fill:#F7B081;" d="M403.124,61.709c-3.406,0-6.732,0.361-9.945,1.038c21.929,4.621,38.523,24.179,38.523,47.43v41.708
	c0,23.25-16.594,42.809-38.523,47.43c3.213,0.677,6.539,1.038,9.945,1.038c26.658,0,48.468-21.81,48.468-48.468v-41.708
	C451.592,83.519,429.781,61.709,403.124,61.709z"/>
<path style="fill:#D3333C;" d="M244.358,348.376h11.641h11.642l13.02-25.294c-7.972-2.115-16.247-3.297-24.661-3.412
	c-8.414,0.115-16.688,1.297-24.661,3.412L244.358,348.376z"/>
<path style="fill:#7F1B20;" d="M266.95,320.434l-14.227,27.942h3.277h11.642l13.02-25.294
	C276.178,321.892,271.597,321.01,266.95,320.434z"/>
<polygon style="fill:#F2464F;" points="256,429.984 281.141,406.975 267.642,348.376 256,348.376 244.358,348.376 230.859,406.975 
	"/>
<g>
	<polygon style="fill:#D3333C;" points="267.642,348.376 256,348.376 252.723,348.376 266.222,406.975 248.541,423.158 256,429.984 
		281.141,406.975 	"/>
	<path style="fill:#D3333C;" d="M97.235,228.976h11.641h11.641l13.02-25.294c-7.972-2.115-16.247-3.297-24.661-3.412
		c-8.414,0.115-16.688,1.297-24.661,3.412L97.235,228.976z"/>
</g>
<path style="fill:#7F1B20;" d="M120.803,201.155L105.6,228.976h3.277h11.641l13.02-25.294
	C129.368,202.575,125.115,201.732,120.803,201.155z"/>
<polygon style="fill:#F2464F;" points="108.877,310.583 134.017,287.574 120.518,228.976 108.877,228.976 97.235,228.976 
	83.736,287.574 "/>
<g>
	<polygon style="fill:#D3333C;" points="120.518,228.976 108.877,228.976 105.6,228.976 119.099,287.574 101.418,303.757 
		108.877,310.583 134.017,287.574 	"/>
	<path style="fill:#D3333C;" d="M414.765,228.976h-11.642h-11.641l-13.02-25.294c7.972-2.115,16.247-3.297,24.661-3.412
		c8.414,0.115,16.688,1.297,24.661,3.412L414.765,228.976z"/>
</g>
<path style="fill:#7F1B20;" d="M414.258,201.056l-14.411,27.919h3.276h11.642l13.02-25.294
	C423.36,202.507,418.841,201.633,414.258,201.056z"/>
<polygon style="fill:#F2464F;" points="403.124,310.583 377.983,287.574 391.482,228.976 403.124,228.976 414.765,228.976 
	428.264,287.574 "/>
<polygon style="fill:#D3333C;" points="414.765,228.976 403.124,228.976 399.847,228.976 413.346,287.574 395.665,303.757 
	403.124,310.583 428.264,287.574 "/>
<path d="M434.834,197.918c14.616-10.1,24.216-26.963,24.216-46.032v-41.708c0-30.838-25.089-55.926-55.927-55.926
	s-55.926,25.089-55.926,55.926v41.708c0,19.07,9.6,35.933,24.216,46.032c-24.498,7.724-45.579,23.668-59.487,44.187v-12.526
	c0-30.838-25.089-55.926-55.927-55.926s-55.926,25.089-55.926,55.926v12.526c-13.908-20.518-34.989-36.463-59.487-44.187
	c14.616-10.1,24.216-26.963,24.216-46.032v-41.708c0-30.838-25.088-55.926-55.927-55.926c-30.838,0-55.927,25.089-55.927,55.926
	v41.708c0,19.07,9.601,35.933,24.216,46.032C33.047,211.827,0,252.401,0,298.331v32.56c0,4.12,3.34,7.459,7.459,7.459h40.518
	c4.119,0,7.459-3.339,7.459-7.459c0-4.119-3.34-7.459-7.459-7.459H14.918v-25.101c0-23.545,10.058-46.066,28.32-63.418
	c10.652-10.12,23.493-17.706,37.203-22.265l8.912,17.314L76.466,285.9c-0.604,2.62,0.25,5.363,2.233,7.177l25.141,23.01
	c1.425,1.304,3.23,1.957,5.035,1.957s3.61-0.652,5.035-1.957l25.14-23.01c1.983-1.815,2.836-4.557,2.233-7.177l-12.886-55.937
	l8.912-17.315c13.71,4.559,26.551,12.144,37.204,22.265c13.403,12.735,22.38,28.257,26.212,44.923
	c0.239,1.551,0.555,3.076,0.919,4.582c0.784,4.576,1.188,9.223,1.188,13.913v25.101H72.839c-4.119,0-7.459,3.34-7.459,7.459
	c0,4.12,3.34,7.459,7.459,7.459h113c-23.526,19.576-38.716,48.246-38.716,79.38v32.56c0,4.12,3.34,7.459,7.459,7.459H195.1
	c4.119,0,7.459-3.339,7.459-7.459c0-4.12-3.34-7.459-7.459-7.459h-33.058V417.73c0-23.545,10.058-46.066,28.32-63.418
	c10.652-10.12,23.493-17.706,37.203-22.265l8.912,17.315l-12.886,55.937c-0.604,2.62,0.25,5.362,2.233,7.177l25.141,23.011
	c1.425,1.304,3.23,1.957,5.035,1.957s3.611-0.652,5.036-1.957l25.14-23.011c1.983-1.815,2.836-4.557,2.233-7.177l-12.886-55.937
	l8.912-17.315c13.71,4.559,26.551,12.144,37.203,22.265c18.262,17.351,28.32,39.873,28.32,63.418v25.101H219.963
	c-4.119,0-7.459,3.339-7.459,7.459c0,4.12,3.34,7.459,7.459,7.459h137.454c4.119,0,7.459-3.339,7.459-7.459v-32.56
	c0-31.135-15.19-59.805-38.715-79.38h38.146c4.119,0,7.459-3.339,7.459-7.459c0-4.119-3.34-7.459-7.459-7.459h-55.14V298.33
	c0-4.692,0.406-9.342,1.19-13.92c0.362-1.501,0.677-3.02,0.915-4.565c3.83-16.67,12.808-32.195,26.214-44.932
	c10.653-10.12,23.494-17.706,37.204-22.265l8.912,17.314L370.716,285.9c-0.604,2.62,0.25,5.362,2.233,7.177l25.14,23.01
	c1.425,1.306,3.23,1.957,5.035,1.957c1.805,0,3.611-0.652,5.035-1.957l25.141-23.01c1.983-1.814,2.836-4.557,2.233-7.177
	l-12.886-55.938l8.912-17.314c13.71,4.559,26.551,12.145,37.203,22.265c18.262,17.351,28.32,39.873,28.32,63.418v25.101H389.171
	c-4.119,0-7.459,3.34-7.459,7.459c0,4.12,3.34,7.459,7.459,7.459h115.37c4.119,0,7.459-3.339,7.459-7.459v-32.56
	C512,252.401,478.953,211.827,434.834,197.918z M67.868,151.885v-21.164c36.728-3.08,50.337-28.295,50.337-28.295
	s8.875,23.417,31.681,27.87v21.589c0,22.065-17.519,40.106-39.377,40.967c-0.509-0.014-1.018-0.033-1.53-0.04l0,0
	c-0.068-0.002-0.135-0.002-0.203,0h-0.001c-0.511,0.007-1.019,0.026-1.53,0.04C85.387,191.991,67.868,173.95,67.868,151.885z
	 M108.877,300.472l-16.895-15.463l11.19-48.574h11.41l11.19,48.574L108.877,300.472z M115.968,221.516h-14.184l-6.469-12.569
	c1.455-0.239,2.915-0.442,4.378-0.611c0.207-0.024,0.414-0.044,0.621-0.067c1.16-0.126,2.32-0.227,3.482-0.309
	c0.322-0.023,0.644-0.049,0.967-0.068c0.953-0.058,1.906-0.087,2.858-0.113c0.419,0.009,0.834,0.032,1.255,0.032
	c0.421,0,0.836-0.023,1.255-0.032c0.953,0.027,1.906,0.056,2.857,0.113c0.323,0.019,0.645,0.046,0.969,0.068
	c1.162,0.083,2.321,0.183,3.48,0.309c0.208,0.022,0.416,0.043,0.624,0.067c1.462,0.169,2.921,0.372,4.376,0.611L115.968,221.516z
	 M214.991,271.285v-21.164c36.729-3.08,50.337-28.295,50.337-28.295s8.875,23.416,31.68,27.87v21.588
	c0,2.105-0.16,4.173-0.467,6.194c-0.262,1.181-0.496,2.369-0.714,3.561c-4.266,17.407-19.667,30.482-38.195,31.212
	c-0.51-0.014-1.018-0.033-1.53-0.04l0,0c-0.068-0.002-0.135-0.002-0.203,0l0,0c-0.511,0.007-1.02,0.026-1.53,0.04
	c-18.524-0.729-33.925-13.799-38.193-31.203c-0.219-1.197-0.455-2.39-0.717-3.574C215.152,275.456,214.991,273.389,214.991,271.285z
	 M217.752,312.034c2.043,1.918,4.225,3.687,6.537,5.284c-2.208,0.696-4.387,1.463-6.537,2.29V312.034z M256,419.873l-16.895-15.464
	l11.191-48.574h11.41l11.19,48.574L256,419.873z M263.092,340.918h-14.183l-6.469-12.57c1.455-0.239,2.915-0.442,4.378-0.611
	c0.207-0.024,0.414-0.044,0.621-0.067c1.16-0.126,2.32-0.227,3.482-0.309c0.322-0.023,0.644-0.049,0.967-0.068
	c0.953-0.058,1.906-0.086,2.858-0.113c0.419,0.009,0.834,0.032,1.255,0.032c0.421,0,0.836-0.023,1.255-0.032
	c0.953,0.028,1.906,0.056,2.857,0.113c0.322,0.019,0.645,0.046,0.968,0.068c1.162,0.083,2.322,0.183,3.48,0.309
	c0.208,0.022,0.416,0.043,0.624,0.067c1.462,0.17,2.922,0.372,4.376,0.611L263.092,340.918z M287.711,317.318
	c2.312-1.597,4.494-3.367,6.537-5.285v7.575C292.097,318.781,289.919,318.014,287.711,317.318z M362.115,151.885v-21.164
	c36.728-3.08,50.337-28.295,50.337-28.295s8.875,23.416,31.68,27.87v21.589c0,22.065-17.52,40.106-39.378,40.967
	c-0.509-0.014-1.018-0.033-1.53-0.04l0,0c-0.068-0.002-0.135-0.002-0.203,0h-0.001c-0.511,0.007-1.019,0.026-1.53,0.04
	C379.634,191.991,362.115,173.95,362.115,151.885z M403.123,300.472l-16.895-15.463l11.19-48.574h11.41l11.19,48.574
	L403.123,300.472z M410.215,221.516h-14.183l-6.47-12.569c1.455-0.239,2.914-0.442,4.376-0.611c0.208-0.024,0.416-0.045,0.624-0.067
	c1.159-0.126,2.319-0.227,3.48-0.309c0.323-0.023,0.645-0.049,0.969-0.068c0.952-0.058,1.905-0.086,2.857-0.113
	c0.419,0.009,0.834,0.032,1.255,0.032c0.421,0,0.836-0.023,1.255-0.032c0.953,0.027,1.906,0.056,2.858,0.113
	c0.322,0.019,0.644,0.046,0.968,0.068c1.162,0.083,2.323,0.183,3.482,0.309c0.207,0.022,0.414,0.043,0.621,0.067
	c1.463,0.17,2.922,0.372,4.378,0.611L410.215,221.516z"/>
<g>
</g>
<g>
</g>
<g>
</g>
<g>
</g>
<g>
</g>
<g>
</g>
<g>
</g>
<g>
</g>
<g>
</g>
<g>
</g>
<g>
</g>
<g>
</g>
<g>
</g>
<g>
</g>
<g>
</g>
</svg>
