<?xml version="1.0" encoding="iso-8859-1"?>
<!-- Generator: Adobe Illustrator 19.0.0, SVG Export Plug-In . SVG Version: 6.00 Build 0)  -->
<svg version="1.1" id="Layer_1" xmlns="http://www.w3.org/2000/svg" xmlns:xlink="http://www.w3.org/1999/xlink" x="0px" y="0px"
	 viewBox="0 0 512.001 512.001" style="enable-background:new 0 0 512.001 512.001;" xml:space="preserve">
<g>
	<rect x="168.862" y="367.056" style="fill:#546F7A;" width="171.394" height="137.432"/>
	<rect x="373.998" y="402.02" style="fill:#546F7A;" width="127.777" height="102.468"/>
	<rect x="7.919" y="402.02" style="fill:#546F7A;" width="127.777" height="102.468"/>
</g>
<g>
	<rect x="320.225" y="367.056" style="fill:#465A65;" width="20.031" height="137.432"/>
	<rect x="481.744" y="402.02" style="fill:#465A65;" width="20.031" height="102.468"/>
	<rect x="115.669" y="402.02" style="fill:#465A65;" width="20.031" height="102.468"/>
</g>
<g>
	<rect x="182.813" y="314.916" style="fill:#EFE7E4;" width="143.491" height="52.14"/>
	<rect x="384.404" y="363.15" style="fill:#EFE7E4;" width="106.975" height="38.873"/>
	<rect x="18.321" y="363.15" style="fill:#EFE7E4;" width="106.975" height="38.873"/>
</g>
<g>
	<rect x="306.274" y="314.916" style="fill:#D8D1D0;" width="20.031" height="52.14"/>
	<rect x="471.348" y="363.15" style="fill:#D8D1D0;" width="20.031" height="38.873"/>
	<rect x="105.263" y="363.04" style="fill:#D8D1D0;" width="20.141" height="38.873"/>
</g>
<g>
	<path style="fill:#FFC89F;" d="M32.591,275.014V157.727c0-7.193,5.885-13.079,13.079-13.079h0.195
		c7.193,0,13.079,5.885,13.079,13.079v-10.676c0-7.193,5.885-13.079,13.079-13.079h0.195c7.193,0,13.079,5.886,13.079,13.079v15.598
		c0-7.193,5.885-13.079,13.079-13.079h0.195c7.193,0,13.079,5.886,13.079,13.079v22.917c0-7.193,5.886-13.079,13.079-13.079h0.195
		c7.193,0,13.079,5.885,13.079,13.079v89.447h-0.018v20.42c0,10.505-3.607,20.693-10.217,28.858l-9.82,12.13v26.729H71.809H27.323
		V336.42l-8.779-8.107c-6.773-6.256-10.626-15.056-10.626-24.276v-81.036l0,0c13.626,0,24.672,11.046,24.672,24.672v27.432
		c0,0,53.802,5.835,53.802,43.395"/>
	<path style="fill:#FFC89F;" d="M201.954,196.691V39.374c0-9.649,7.894-17.543,17.543-17.543h0.261
		c9.649,0,17.543,7.894,17.543,17.543V25.055c0-9.649,7.894-17.543,17.543-17.543h0.261c9.649,0,17.543,7.894,17.543,17.543v20.922
		c0-9.649,7.894-17.543,17.543-17.543h0.261c9.649,0,17.543,7.894,17.543,17.543v30.739c0-9.649,7.894-17.543,17.543-17.543h0.261
		c9.649,0,17.543,7.894,17.543,17.543v119.975h-0.024v27.389c0,14.092-4.837,27.756-13.704,38.708l-13.171,16.269v35.852h-61.887
		h-59.669v-35.852l-11.775-10.874c-9.086-8.391-14.253-20.195-14.253-32.562V126.928l0,0c18.277,0,33.093,14.817,33.093,33.093
		v36.796c0,0,72.164,7.827,72.164,58.206"/>
	<path style="fill:#FFC89F;" d="M398.671,275.014V157.727c0-7.193,5.885-13.079,13.079-13.079h0.195
		c7.193,0,13.079,5.885,13.079,13.079v-10.676c0-7.193,5.885-13.079,13.079-13.079h0.195c7.193,0,13.079,5.886,13.079,13.079v15.598
		c0-7.193,5.885-13.079,13.079-13.079h0.195c7.193,0,13.079,5.886,13.079,13.079v22.917c0-7.193,5.886-13.079,13.079-13.079h0.195
		c7.193,0,13.079,5.885,13.079,13.079v89.447h-0.018v20.42c0,10.505-3.607,20.693-10.217,28.858l-9.82,12.13v26.729h-46.14h-44.486
		V336.42l-8.779-8.107C377.853,322.058,374,313.257,374,304.037v-81.036l0,0c13.626,0,24.672,11.046,24.672,24.672v27.432
		c0,0,53.802,5.835,53.802,43.395"/>
</g>
<path d="M325.802,51.662h-0.262c-3.566,0-6.958,0.748-10.031,2.096v-7.781c0-13.815-11.24-25.056-25.056-25.056h-0.261
	c-3.596,0-7.017,0.761-10.111,2.131C279.059,10.17,268.247,0,255.106,0h-0.261c-11.013,0-20.389,7.143-23.74,17.039
	c-3.408-1.738-7.265-2.719-11.346-2.719h-0.261c-13.815,0-25.055,11.239-25.055,25.055v89.136
	c-6.988-5.683-15.895-9.094-25.582-9.094c-4.149,0-7.512,3.362-7.512,7.512v108.695c0,14.418,6.075,28.3,16.669,38.08l9.359,8.643
	v25.054h-4.564c-4.149,0-7.512,3.362-7.512,7.512v44.629h-6.441c-4.149,0-7.512,3.362-7.512,7.512v30.267
	c0,4.149,3.362,7.512,7.512,7.512c4.149,0,7.512-3.362,7.512-7.512v-22.755h6.441h143.489h6.441v122.414h-156.37v-75.673
	c0-4.148-3.362-7.512-7.512-7.512s-7.512,3.363-7.512,7.512v83.184c0,4.149,3.362,7.512,7.512,7.512h171.393
	c4.149,0,7.512-3.362,7.512-7.512V367.05c0-4.149-3.362-7.512-7.512-7.512h-6.441V314.91c0-4.149-3.362-7.512-7.512-7.512h-2.345
	v-25.682l11.498-14.204c9.916-12.248,15.377-27.673,15.377-43.433v-26.777c0.017-0.201,0.024-0.406,0.024-0.611V76.716
	C350.856,62.901,339.617,51.662,325.802,51.662z M318.79,359.539H190.324v-37.117h4.564h121.558h2.345L318.79,359.539
	L318.79,359.539z M335.833,196.081c-0.017,0.201-0.024,0.406-0.024,0.611v27.389c0,12.331-4.273,24.398-12.031,33.981l-13.17,16.27
	c-1.083,1.337-1.674,3.006-1.674,4.726v28.341H202.4v-28.341c0-2.096-0.875-4.096-2.415-5.519l-11.775-10.875
	c-7.524-6.947-11.837-16.802-11.837-27.043V135.564c10.452,3.217,18.071,12.964,18.071,24.457v36.796
	c0,3.829,2.888,7.046,6.694,7.467c0.171,0.02,17.342,1.986,34.078,9.714c20.83,9.619,31.392,23.422,31.392,41.025
	c0,4.149,3.362,7.512,7.512,7.512c4.149,0,7.512-3.362,7.512-7.512c0-23.755-13.995-42.713-40.468-54.826
	c-12.272-5.615-24.44-8.473-31.695-9.812V39.374c0-5.531,4.5-10.031,10.031-10.031h0.261c5.532,0,10.032,4.5,10.032,10.031v119.653
	c0,4.149,3.362,7.512,7.512,7.512c4.149,0,7.512-3.362,7.512-7.512V39.374V25.055c0-5.531,4.5-10.031,10.031-10.031h0.261
	c5.532,0,10.032,4.5,10.032,10.031v20.923v113.049c0,4.149,3.362,7.512,7.512,7.512c4.149,0,7.512-3.362,7.512-7.512V45.977
	c0-5.532,4.5-10.032,10.031-10.032h0.261c5.532,0,10.032,4.5,10.032,10.032v30.738v82.311c0,4.149,3.362,7.512,7.512,7.512
	c4.148,0,7.512-3.362,7.512-7.512v-82.31c0-5.531,4.5-10.031,10.031-10.031h0.262c5.531,0,10.031,4.5,10.031,10.031v119.364H335.833
	z"/>
<circle cx="307.996" cy="402.02" r="7.966"/>
<circle cx="476.066" cy="428.591" r="7.966"/>
<path d="M491.005,164.977h-0.194c-1.929,0-3.797,0.267-5.569,0.765v-3.092c0-11.354-9.237-20.591-20.591-20.591h-0.194
	c-2.079,0-4.086,0.309-5.98,0.885c-1.908-9.393-10.231-16.483-20.178-16.483h-0.194c-8.312,0-15.49,4.95-18.739,12.058
	c-2.303-0.892-4.805-1.382-7.419-1.382h-0.194c-11.354,0-20.591,9.237-20.591,20.591v62.73c-4.971-3.145-10.858-4.967-17.161-4.967
	c-4.149,0-7.512,3.362-7.512,7.512v81.036c0,11.282,4.753,22.141,13.041,29.795l6.364,5.877v15.929h-1.491
	c-4.149,0-7.512,3.362-7.512,7.512v31.362h-2.89c-4.149,0-7.512,3.362-7.512,7.512v26.566c0,4.149,3.362,7.512,7.512,7.512
	s7.512-3.362,7.512-7.512v-19.054h2.89h106.976h2.891v87.442H381.511v-43.349c0-4.149-3.362-7.512-7.512-7.512
	s-7.512,3.362-7.512,7.512v50.86c0,4.149,3.362,7.512,7.512,7.512H501.78c4.149,0,7.512-3.362,7.512-7.512V402.023
	c0-4.149-3.362-7.512-7.512-7.512h-2.891V363.15c0-4.093-3.276-7.415-7.348-7.504v-16.566l8.147-10.064
	c7.668-9.472,11.89-21.398,11.89-33.584v-19.901c0.012-0.171,0.017-0.345,0.017-0.519v-89.447
	C511.595,174.213,502.358,164.977,491.005,164.977z M483.866,394.512h-91.953v-23.85h1.491h90.462V394.512z M496.572,274.496
	c-0.012,0.171-0.017,0.345-0.017,0.519v20.42c0,8.756-3.034,17.326-8.543,24.132l-9.82,12.13c-1.083,1.337-1.674,3.006-1.674,4.726
	v19.218h-75.602v-19.218c0-2.096-0.875-4.096-2.416-5.519l-8.78-8.108c-5.217-4.819-8.21-11.656-8.21-18.759v-71.792
	c5.709,2.79,9.65,8.657,9.65,15.428v27.433c0,3.835,2.889,7.054,6.701,7.468c0.471,0.051,47.1,5.46,47.1,35.926
	c0,4.149,3.362,7.512,7.512,7.512c4.148,0,7.512-3.362,7.512-7.512c0-18.513-10.82-33.247-31.287-42.613
	c-8.481-3.88-16.903-6.029-22.514-7.154V157.726c0-3.07,2.497-5.568,5.568-5.568h0.194c3.071,0,5.569,2.497,5.569,5.568v89.206
	c0,4.149,3.362,7.512,7.512,7.512s7.512-3.362,7.512-7.512v-89.206v-10.675c0-3.07,2.497-5.568,5.568-5.568h0.194
	c3.071,0,5.568,2.497,5.568,5.568v15.598v84.283c0,4.149,3.363,7.512,7.512,7.512c4.149,0,7.512-3.362,7.512-7.512v-84.283
	c0-3.071,2.498-5.568,5.569-5.568h0.194c3.071,0,5.568,2.497,5.568,5.568v22.918v61.366c0,4.149,3.363,7.512,7.512,7.512
	c4.149,0,7.512-3.362,7.512-7.512v-61.366c0-3.07,2.498-5.569,5.569-5.569h0.194c3.071,0,5.568,2.498,5.568,5.569v88.928H496.572z"
	/>
<circle cx="109.981" cy="428.591" r="7.966"/>
<path d="M124.924,164.977h-0.194c-1.929,0-3.796,0.266-5.568,0.765v-3.092c0-11.354-9.237-20.591-20.592-20.591h-0.194
	c-2.078,0-4.086,0.309-5.979,0.885c-1.908-9.393-10.232-16.483-20.179-16.483h-0.194c-8.312,0-15.49,4.95-18.738,12.058
	c-2.304-0.892-4.805-1.382-7.419-1.382H45.67c-11.354,0-20.591,9.237-20.591,20.591v62.73c-4.971-3.145-10.858-4.967-17.161-4.967
	c-4.148,0-7.512,3.362-7.512,7.512v81.036c0,11.282,4.753,22.142,13.041,29.795l6.364,5.876v15.93H18.32
	c-4.149,0-7.512,3.362-7.512,7.512v31.362h-2.89c-4.148,0-7.512,3.362-7.512,7.512v26.566c0,4.149,3.363,7.512,7.512,7.512
	c4.149,0,7.512-3.362,7.512-7.512v-19.054h2.89h106.978h2.89v87.442H15.43v-43.349c0-4.149-3.362-7.512-7.512-7.512
	c-4.148,0-7.512,3.362-7.512,7.512v50.86c0,4.149,3.363,7.512,7.512,7.512h127.781c4.149,0,7.512-3.362,7.512-7.512V402.023
	c0-4.149-3.362-7.512-7.512-7.512h-2.89V363.15c0-4.094-3.276-7.416-7.349-7.504v-16.566l8.147-10.063
	c7.668-9.471,11.89-21.398,11.89-33.585v-19.888c0.013-0.175,0.019-0.354,0.019-0.532v-89.447
	C145.516,174.213,136.278,164.977,124.924,164.977z M117.787,394.512H25.832v-23.85h1.491h90.463L117.787,394.512L117.787,394.512z
	 M130.492,274.483c-0.013,0.175-0.019,0.354-0.019,0.532v20.42c0,8.757-3.034,17.327-8.543,24.132l-9.82,12.13
	c-1.083,1.337-1.674,3.006-1.674,4.726v19.218H34.835v-19.218c0-2.096-0.875-4.096-2.415-5.519l-8.78-8.109
	c-5.218-4.818-8.211-11.655-8.211-18.758v-71.792c5.709,2.79,9.65,8.657,9.65,15.428v27.433c0,3.835,2.889,7.054,6.701,7.468
	c0.471,0.051,47.1,5.46,47.1,35.926c0,4.149,3.363,7.512,7.512,7.512c4.149,0,7.512-3.362,7.512-7.512
	c0-18.513-10.82-33.247-31.287-42.613c-8.481-3.88-16.903-6.029-22.514-7.154V157.726c0-3.07,2.497-5.568,5.568-5.568h0.195
	c3.07,0,5.568,2.497,5.568,5.568v89.206c0,4.149,3.362,7.512,7.512,7.512s7.512-3.362,7.512-7.512v-89.206v-10.675
	c0-3.07,2.497-5.568,5.568-5.568h0.194c3.07,0,5.569,2.497,5.569,5.568v15.598v84.283c0,4.149,3.362,7.512,7.512,7.512
	c4.149,0,7.512-3.362,7.512-7.512v-84.283c0-3.071,2.497-5.568,5.568-5.568h0.194c3.07,0,5.569,2.497,5.569,5.568v22.918v61.366
	c0,4.149,3.362,7.512,7.512,7.512c4.149,0,7.512-3.362,7.512-7.512v-61.366c0-3.07,2.497-5.569,5.568-5.569h0.194
	c3.07,0,5.569,2.498,5.569,5.569v88.915H130.492z"/>
<g>
</g>
<g>
</g>
<g>
</g>
<g>
</g>
<g>
</g>
<g>
</g>
<g>
</g>
<g>
</g>
<g>
</g>
<g>
</g>
<g>
</g>
<g>
</g>
<g>
</g>
<g>
</g>
<g>
</g>
</svg>
