<?xml version="1.0" encoding="iso-8859-1"?>
<!-- Generator: Adobe Illustrator 19.0.0, SVG Export Plug-In . SVG Version: 6.00 Build 0)  -->
<svg version="1.1" id="Layer_1" xmlns="http://www.w3.org/2000/svg" xmlns:xlink="http://www.w3.org/1999/xlink" x="0px" y="0px"
	 viewBox="0 0 512.001 512.001" style="enable-background:new 0 0 512.001 512.001;" xml:space="preserve">
<path style="fill:#FF6137;" d="M273.338,207.228H238.59c-5.696,0-10.313-4.617-10.313-10.313v-24.086h55.374v24.086
	C283.651,202.611,279.034,207.228,273.338,207.228z"/>
<path style="fill:#F7CB4F;" d="M256.012,172.829h27.69C325.723,127.48,325.723,78.2,325.723,78.2
	c0-47.619-31.211-69.711-69.711-69.711S186.301,30.581,186.301,78.2c0,0,0,49.28,42.021,94.629H256.012z"/>
<path style="fill:#FBAB00;" d="M256.012,8.488c-3.392,0-6.723,0.181-9.985,0.526c33.768,3.574,59.726,25.76,59.726,69.185
	c0,0,0,49.28-42.021,94.63h19.97c42.021-45.349,42.021-94.63,42.021-94.63C325.723,30.58,294.512,8.488,256.012,8.488z"/>
<path style="fill:#68B9D8;" d="M256,503.513h101.405v-32.557c0-53.513-47.898-97.317-101.405-98.049
	c-53.508,0.732-101.405,44.536-101.405,98.049v32.557H256z"/>
<path style="fill:#3695B2;" d="M256,372.907c-3.354,0.046-6.686,0.262-9.985,0.637c49.338,5.625,91.42,47.253,91.42,97.411v32.557
	h19.97v-32.557C357.405,417.443,309.508,373.639,256,372.907z"/>
<path style="fill:#68B9D8;" d="M108.894,384.126h101.405v-32.557c0-53.512-47.897-97.317-101.405-98.049
	C55.387,254.253,7.489,298.057,7.489,351.569v32.557H108.894z"/>
<path style="fill:#3695B2;" d="M108.894,253.521c-3.354,0.046-6.686,0.262-9.985,0.637c49.339,5.625,91.42,47.253,91.42,97.411
	v32.557h19.97v-32.556C210.299,298.057,162.402,254.253,108.894,253.521z"/>
<path style="fill:#68B9D8;" d="M403.106,384.126H301.701v-32.557c0-53.512,47.897-97.317,101.405-98.049
	c53.508,0.732,101.405,44.536,101.405,98.049v32.557H403.106z"/>
<path style="fill:#3695B2;" d="M403.106,253.521c-3.354,0.046-6.686,0.262-9.985,0.637c49.338,5.625,91.42,47.253,91.42,97.411
	v32.557h19.97v-32.556C504.511,298.057,456.613,254.253,403.106,253.521z"/>
<path style="fill:#FFC89F;" d="M256,372.99L256,372.99c-26.655,0-48.462-21.808-48.462-48.462v-41.702
	c0-26.655,21.808-48.462,48.462-48.462l0,0c26.654,0,48.462,21.808,48.462,48.462v41.702C304.462,351.182,282.654,372.99,256,372.99
	z"/>
<path style="fill:#F7B081;" d="M256,234.363L256,234.363c-3.421,0-6.76,0.364-9.985,1.047c21.906,4.636,38.477,24.181,38.477,47.415
	v41.702c0,23.233-16.571,42.779-38.477,47.415c3.225,0.683,6.564,1.047,9.985,1.047l0,0c26.654,0,48.462-21.808,48.462-48.462
	v-41.702C304.462,256.171,282.654,234.363,256,234.363z"/>
<path style="fill:#FFC89F;" d="M108.894,253.604L108.894,253.604c-26.655,0-48.462-21.808-48.462-48.462v-41.702
	c0-26.655,21.808-48.462,48.462-48.462l0,0c26.655,0,48.462,21.808,48.462,48.462v41.702
	C157.356,231.796,135.548,253.604,108.894,253.604z"/>
<path style="fill:#F7B081;" d="M108.894,114.977L108.894,114.977c-3.421,0-6.76,0.364-9.985,1.047
	c21.906,4.636,38.477,24.181,38.477,47.415v41.702c0,23.234-16.571,42.779-38.477,47.415c3.225,0.683,6.564,1.047,9.985,1.047l0,0
	c26.655,0,48.462-21.808,48.462-48.462v-41.702C157.356,136.784,135.548,114.977,108.894,114.977z"/>
<path style="fill:#FFC89F;" d="M403.106,253.604L403.106,253.604c26.655,0,48.462-21.808,48.462-48.462v-41.702
	c0-26.654-21.808-48.462-48.462-48.462l0,0c-26.655,0-48.462,21.808-48.462,48.462v41.702
	C354.644,231.796,376.452,253.604,403.106,253.604z"/>
<path style="fill:#F7B081;" d="M403.106,114.977c-3.421,0-6.76,0.364-9.985,1.047c21.906,4.636,38.477,24.181,38.477,47.415v41.702
	c0,23.234-16.571,42.779-38.477,47.415c3.225,0.683,6.564,1.047,9.985,1.047c26.655,0,48.462-21.808,48.462-48.462v-41.702
	C451.568,136.784,429.761,114.977,403.106,114.977z"/>
<g>
	<polygon style="fill:#F2464F;" points="256,483.208 281.138,460.201 267.64,401.609 256,401.609 244.36,401.609 230.862,460.201 	
		"/>
	<polygon style="fill:#F2464F;" points="108.894,363.821 134.032,340.814 120.534,282.223 108.894,282.223 97.254,282.223 
		83.756,340.814 	"/>
</g>
<g>
	<polygon style="fill:#D3333C;" points="120.534,282.223 108.894,282.223 105.556,282.223 119.054,340.814 101.405,356.967 
		108.894,363.821 134.032,340.814 	"/>
	<path style="fill:#D3333C;" d="M244.36,401.609H256h11.64l13.018-25.292c-7.971-2.115-16.245-3.296-24.658-3.412
		c-8.413,0.115-16.686,1.296-24.658,3.412L244.36,401.609z"/>
</g>
<path style="fill:#7F1B20;" d="M266.897,373.665l-14.235,27.945H256h11.64l13.018-25.292
	C276.158,375.125,271.56,374.24,266.897,373.665z"/>
<path style="fill:#D3333C;" d="M97.254,282.223h11.64h11.64l13.018-25.292c-7.971-2.115-16.245-3.296-24.659-3.412
	c-8.413,0.115-16.686,1.296-24.657,3.412L97.254,282.223z"/>
<path style="fill:#7F1B20;" d="M119.817,254.282l-14.261,27.942h3.338h11.64l13.018-25.292
	C129.061,255.74,124.471,254.857,119.817,254.282z"/>
<path style="fill:#D3333C;" d="M414.746,282.223h-11.64h-11.64l-13.018-25.292c7.971-2.115,16.245-3.296,24.658-3.412
	c8.413,0.115,16.686,1.296,24.658,3.412L414.746,282.223z"/>
<path style="fill:#7F1B20;" d="M414.051,254.285l-14.283,27.939h3.337h11.641l13.018-25.292
	C423.28,255.742,418.697,254.86,414.051,254.285z"/>
<polygon style="fill:#F2464F;" points="403.106,363.821 377.968,340.814 391.466,282.223 403.106,282.223 414.746,282.223 
	428.244,340.814 "/>
<g>
	<polygon style="fill:#D3333C;" points="267.64,401.609 256,401.609 252.662,401.609 266.16,460.201 248.511,476.354 256,483.208 
		281.138,460.201 	"/>
	<polygon style="fill:#D3333C;" points="414.746,282.223 403.106,282.223 399.768,282.223 413.266,340.814 395.617,356.967 
		403.106,363.821 428.244,340.814 	"/>
</g>
<path d="M434.882,251.157c14.592-10.108,24.175-26.96,24.175-46.016v-41.702c0-30.851-25.1-55.951-55.951-55.951
	s-55.95,25.1-55.95,55.951v41.702c0,19.056,9.583,35.908,24.174,46.016c-24.443,7.722-45.481,23.629-59.379,44.094v-12.427
	c0-30.851-25.1-55.951-55.951-55.951s-55.951,25.1-55.951,55.951v12.427c-13.899-20.466-34.935-36.372-59.379-44.095
	c14.592-10.108,24.175-26.96,24.175-46.016v-41.703c0-30.851-25.1-55.951-55.951-55.951s-55.951,25.1-55.951,55.951v41.703
	c0,19.056,9.583,35.908,24.174,46.016C33.022,265.088,0,305.652,0,351.569v32.557c0,4.136,3.353,7.489,7.489,7.489h36.982
	c4.136,0,7.489-3.353,7.489-7.489c0-4.136-3.353-7.489-7.489-7.489H14.978v-25.068c0-23.533,10.053-46.045,28.307-63.388
	c10.641-10.11,23.468-17.69,37.162-22.247l8.894,17.279l-12.882,55.92c-0.606,2.63,0.251,5.383,2.242,7.205l25.138,23.007
	c1.431,1.309,3.243,1.964,5.056,1.964c1.812,0,3.625-0.655,5.057-1.964l25.138-23.007c1.991-1.822,2.848-4.575,2.242-7.205
	l-12.882-55.92l8.894-17.279c13.695,4.558,26.522,12.137,37.163,22.247c13.398,12.73,22.371,28.246,26.2,44.906
	c0.239,1.549,0.554,3.071,0.918,4.575c0.783,4.574,1.188,9.219,1.188,13.906v25.068H69.434c-4.136,0-7.489,3.353-7.489,7.489
	c0,4.136,3.353,7.489,7.489,7.489h116.329c-23.493,19.578-38.657,48.23-38.657,79.341v32.557c0,4.136,3.353,7.489,7.489,7.489
	h33.231c4.136,0,7.489-3.353,7.489-7.489c0-4.136-3.353-7.489-7.489-7.489h-25.742v-25.068c0-23.533,10.053-46.045,28.307-63.387
	c10.641-10.11,23.468-17.69,37.163-22.247l8.894,17.279l-12.882,55.92c-0.606,2.63,0.251,5.383,2.242,7.205l25.138,23.007
	c1.431,1.309,3.243,1.964,5.055,1.964c1.812,0,3.625-0.655,5.057-1.964l25.137-23.007c1.991-1.822,2.848-4.575,2.242-7.205
	l-12.881-55.919l8.894-17.279c13.695,4.558,26.521,12.137,37.162,22.247c18.254,17.343,28.307,39.855,28.307,63.387v25.068H212.789
	c-4.136,0-7.489,3.353-7.489,7.489s3.353,7.489,7.489,7.489h144.617c4.137,0,7.489-3.353,7.489-7.489v-32.557
	c0-31.112-15.164-59.763-38.657-79.341h25.65c4.137,0,7.489-3.353,7.489-7.489c0-4.136-3.352-7.489-7.489-7.489h-42.697v-25.068
	c0-4.687,0.405-9.332,1.188-13.906c0.363-1.505,0.679-3.029,0.918-4.577c3.829-16.659,12.802-32.175,26.201-44.905
	c10.64-10.11,23.467-17.689,37.162-22.247l8.894,17.279l-12.882,55.919c-0.606,2.63,0.251,5.383,2.242,7.205l25.138,23.007
	c1.431,1.309,3.243,1.964,5.057,1.964c1.812,0,3.626-0.655,5.056-1.964l25.138-23.007c1.991-1.822,2.848-4.575,2.242-7.205
	l-12.882-55.919l8.894-17.28c13.695,4.558,26.522,12.137,37.163,22.247c18.254,17.343,28.307,39.855,28.307,63.388v25.068H376.85
	c-4.136,0-7.489,3.353-7.489,7.489c0,4.136,3.353,7.489,7.489,7.489h127.662c4.137,0,7.489-3.353,7.489-7.489v-32.556
	C512,305.652,478.979,265.089,434.882,251.157z M67.92,205.142v-21.172c36.705-3.086,50.305-28.286,50.305-28.286
	s8.865,23.39,31.641,27.859v21.599c0,22.037-17.49,40.058-39.317,40.931c-0.518-0.014-1.034-0.034-1.554-0.041
	c-0.068-0.001-0.137-0.001-0.205,0c-0.519,0.007-1.036,0.027-1.555,0.041C85.411,245.2,67.92,227.179,67.92,205.142z
	 M108.894,353.669l-16.859-15.43l11.178-48.527h11.361l11.179,48.527L108.894,353.669z M115.966,274.734h-14.145l-6.44-12.514
	c1.44-0.236,2.885-0.434,4.333-0.602c0.212-0.024,0.423-0.045,0.634-0.068c1.151-0.126,2.305-0.226,3.458-0.308
	c0.33-0.023,0.659-0.05,0.989-0.069c0.944-0.057,1.888-0.085,2.833-0.112c0.422,0.01,0.843,0.032,1.267,0.032
	c0.425,0,0.845-0.023,1.267-0.032c0.944,0.027,1.886,0.056,2.829,0.112c0.333,0.02,0.666,0.047,0.999,0.07
	c1.148,0.082,2.296,0.182,3.442,0.307c0.217,0.023,0.433,0.044,0.649,0.069c1.446,0.168,2.889,0.366,4.327,0.602L115.966,274.734z
	 M215.027,324.529v-21.174c36.674-3.102,50.263-28.284,50.263-28.284s8.876,23.417,31.683,27.866v21.592
	c0,2.102-0.16,4.168-0.467,6.186c-0.262,1.182-0.497,2.372-0.715,3.568c-4.261,17.381-19.636,30.438-38.135,31.178
	c-0.518-0.014-1.034-0.034-1.554-0.041c-0.068-0.001-0.137-0.001-0.205,0c-0.519,0.007-1.036,0.026-1.555,0.041
	c-18.498-0.74-33.873-13.798-38.135-31.179c-0.219-1.194-0.453-2.384-0.715-3.567C215.187,328.696,215.027,326.63,215.027,324.529z
	 M217.788,365.343c2.013,1.885,4.163,3.626,6.436,5.2c-2.174,0.687-4.319,1.443-6.436,2.257V365.343z M256,473.056l-16.859-15.43
	l11.179-48.527h11.36l11.178,48.527L256,473.056z M263.072,394.121h-14.144l-6.441-12.514c1.439-0.236,2.882-0.434,4.327-0.602
	c0.217-0.025,0.433-0.046,0.65-0.069c1.145-0.125,2.293-0.225,3.441-0.307c0.332-0.023,0.666-0.05,0.999-0.07
	c0.943-0.057,1.886-0.085,2.829-0.112c0.422,0.009,0.843,0.032,1.267,0.032c0.425,0,0.845-0.023,1.267-0.032
	c0.944,0.027,1.888,0.055,2.831,0.112c0.331,0.02,0.661,0.046,0.993,0.07c1.15,0.082,2.301,0.182,3.448,0.307
	c0.216,0.023,0.431,0.044,0.647,0.069c1.446,0.168,2.889,0.366,4.328,0.602L263.072,394.121z M287.776,370.543
	c2.274-1.575,4.423-3.315,6.436-5.2v7.457C292.095,371.986,289.95,371.23,287.776,370.543z M362.134,205.141v-21.171
	c36.7-3.088,50.299-28.286,50.299-28.286s8.866,23.394,31.647,27.86v21.597c0,22.037-17.49,40.059-39.317,40.931
	c-0.518-0.014-1.034-0.034-1.554-0.041c-0.068-0.001-0.137-0.001-0.205,0c-0.519,0.007-1.036,0.027-1.554,0.041
	C379.623,245.2,362.134,227.179,362.134,205.141z M403.106,353.669l-16.859-15.43l11.178-48.527h11.36l11.178,48.527
	L403.106,353.669z M410.178,274.734h-14.143l-6.441-12.514c1.439-0.236,2.882-0.434,4.328-0.602
	c0.216-0.025,0.431-0.046,0.647-0.069c1.148-0.125,2.298-0.225,3.448-0.307c0.331-0.023,0.661-0.05,0.992-0.07
	c0.944-0.057,1.887-0.085,2.832-0.112c0.422,0.01,0.843,0.032,1.267,0.032c0.425,0,0.845-0.023,1.267-0.032
	c0.945,0.027,1.889,0.056,2.833,0.112c0.329,0.02,0.659,0.046,0.989,0.069c1.154,0.082,2.308,0.182,3.46,0.308
	c0.211,0.023,0.421,0.044,0.632,0.068c1.448,0.168,2.893,0.367,4.333,0.602L410.178,274.734z"/>
<path d="M220.787,196.915c0,9.815,7.986,17.802,17.802,17.802h34.749c9.815,0,17.802-7.986,17.802-17.802v-21.13
	c41.586-46.349,42.073-95.486,42.073-97.586c0-24.502-7.907-44.645-22.867-58.253C296.719,7.551,277.93,0.999,256.012,0.999
	c-21.919,0-40.706,6.551-54.333,18.947c-14.96,13.608-22.867,33.752-22.867,58.253c0,2.098,0.485,51.161,41.976,97.479
	L220.787,196.915L220.787,196.915z M276.162,196.915c0,1.557-1.266,2.824-2.824,2.824H238.59c-1.558,0-2.824-1.267-2.824-2.824
	v-16.597h8.61c0.007,0,0.014,0.001,0.021,0.001c0.005,0,0.011-0.001,0.016-0.001h31.75v16.597H276.162z M244.617,112.612h22.789
	l-6.421,52.728h-9.949L244.617,112.612z M256.012,15.977c38.962,0,62.223,23.261,62.223,62.205
	c-0.002,0.457-0.65,45.354-37.847,87.158h-4.312l7.221-59.312c0.259-2.128-0.406-4.265-1.828-5.87
	c-1.421-1.605-3.462-2.523-5.606-2.523h-39.701c-2.144,0-4.185,0.919-5.607,2.523c-1.421,1.605-2.087,3.742-1.827,5.87l7.222,59.311
	h-4.313c-37.197-41.804-37.845-86.701-37.847-87.141C193.79,39.238,217.051,15.977,256.012,15.977z"/>
<g>
</g>
<g>
</g>
<g>
</g>
<g>
</g>
<g>
</g>
<g>
</g>
<g>
</g>
<g>
</g>
<g>
</g>
<g>
</g>
<g>
</g>
<g>
</g>
<g>
</g>
<g>
</g>
<g>
</g>
</svg>
