<?xml version="1.0" encoding="iso-8859-1"?>
<!-- Generator: Adobe Illustrator 19.0.0, SVG Export Plug-In . SVG Version: 6.00 Build 0)  -->
<svg version="1.1" id="Layer_1" xmlns="http://www.w3.org/2000/svg" xmlns:xlink="http://www.w3.org/1999/xlink" x="0px" y="0px"
	 viewBox="0 0 512.001 512.001" style="enable-background:new 0 0 512.001 512.001;" xml:space="preserve">
<path style="fill:#68B9D8;" d="M78.893,504.485H7.924V481.7c0-37.451,33.521-68.107,70.969-68.619
	c37.447,0.512,70.969,31.169,70.969,68.619v22.786H78.893z"/>
<path style="fill:#3695B2;" d="M78.893,413.081c-3.38,0.046-6.725,0.347-10.02,0.867c33.204,5.243,60.949,33.683,60.949,67.753
	v22.785h20.039V481.7C149.862,444.25,116.34,413.593,78.893,413.081z"/>
<path style="fill:#68B9D8;" d="M433.11,504.485h-70.969V481.7c0-37.451,33.521-68.107,70.969-68.619
	c37.447,0.512,70.969,31.169,70.969,68.619v22.786H433.11z"/>
<path style="fill:#3695B2;" d="M433.11,413.081c-3.38,0.046-6.726,0.347-10.02,0.867c33.204,5.243,60.949,33.683,60.949,67.753
	v22.785h20.039V481.7C504.078,444.25,470.557,413.593,433.11,413.081z"/>
<path style="fill:#68B9D8;" d="M254.103,209.544h-76.117v-24.438c0-40.167,35.953-73.049,76.117-73.598
	c40.163,0.549,76.117,33.43,76.117,73.598v24.438H254.103z"/>
<path style="fill:#3695B2;" d="M254.103,111.509c-3.378,0.046-6.721,0.34-10.02,0.829c35.932,5.321,66.097,35.979,66.097,72.769
	v24.438h20.039v-24.438C330.22,144.939,294.268,112.058,254.103,111.509z"/>
<path style="fill:#FFC89F;" d="M78.893,413.139L78.893,413.139c18.654,0,33.916-15.263,33.916-33.916v-29.186
	c0-18.653-15.262-33.916-33.916-33.916l0,0c-18.654,0-33.916,15.263-33.916,33.916v29.186
	C44.977,397.876,60.239,413.139,78.893,413.139z"/>
<path style="fill:#F7B081;" d="M78.893,316.12c-3.484,0-6.849,0.533-10.02,1.521c13.803,4.299,23.897,17.226,23.897,32.395v29.186
	c0,15.17-10.094,28.096-23.897,32.395c3.17,0.988,6.536,1.521,10.02,1.521c18.653,0,33.916-15.263,33.916-33.916v-29.186
	C112.809,331.383,97.547,316.12,78.893,316.12z"/>
<g>
	<path style="fill:#FFC89F;" d="M433.11,413.139L433.11,413.139c18.653,0,33.916-15.263,33.916-33.916v-29.186
		c0-18.653-15.262-33.916-33.916-33.916l0,0c-18.654,0-33.916,15.263-33.916,33.916v29.186
		C399.194,397.876,414.455,413.139,433.11,413.139z"/>
	<path style="fill:#FFC89F;" d="M253.93,111.571h0.346c19.912,0,36.204-16.292,36.204-36.204V43.718
		c0-19.912-16.292-36.204-36.204-36.204h-0.346c-19.912,0-36.204,16.292-36.204,36.204v31.649
		C217.726,95.279,234.018,111.571,253.93,111.571z"/>
</g>
<g>
	<path style="fill:#F7B081;" d="M433.11,316.12c-3.484,0-6.849,0.533-10.02,1.521c13.803,4.299,23.897,17.226,23.897,32.395v29.186
		c0,15.17-10.094,28.096-23.897,32.395c3.17,0.988,6.536,1.521,10.02,1.521c18.654,0,33.916-15.263,33.916-33.916v-29.186
		C467.025,331.383,451.763,316.12,433.11,316.12z"/>
	<path style="fill:#F7B081;" d="M254.277,7.515h-0.346c-3.411,0-6.711,0.488-9.846,1.381c15.165,4.317,26.357,18.322,26.357,34.823
		v31.649c0,16.501-11.192,30.506-26.357,34.823c3.135,0.893,6.436,1.381,9.846,1.381h0.346c19.912,0,36.204-16.292,36.204-36.204
		V43.718C290.48,23.806,274.189,7.515,254.277,7.515z"/>
</g>
<g>
	<polygon style="fill:#F2464F;" points="78.893,490.276 61.301,474.173 70.746,437.176 78.893,437.176 87.039,437.176 
		96.485,474.173 	"/>
	<polygon style="fill:#F2464F;" points="433.11,490.276 415.517,474.173 424.963,437.176 433.11,437.176 441.256,437.176 
		450.702,474.173 	"/>
	<polygon style="fill:#F2464F;" points="254.103,194.303 235.234,177.034 245.366,137.062 254.103,137.062 262.84,137.062 
		272.972,177.034 	"/>
</g>
<g>
	<path style="fill:#D3333C;" d="M87.039,437.176h-8.146h-8.147l-9.111-21.707c5.579-1.48,11.369-2.308,17.257-2.388
		c5.887,0.08,11.678,0.908,17.257,2.388L87.039,437.176z"/>
	<path style="fill:#D3333C;" d="M441.256,437.176h-8.146h-8.147l-9.111-21.707c5.579-1.48,11.369-2.308,17.257-2.388
		c5.887,0.08,11.678,0.908,17.257,2.388L441.256,437.176z"/>
	<path style="fill:#D3333C;" d="M262.84,137.062h-8.737h-8.737l-9.771-22.992c5.984-1.587,12.194-2.475,18.509-2.561
		c6.315,0.086,12.525,0.973,18.509,2.561L262.84,137.062z"/>
</g>
<path d="M105.837,410.656c8.858-7.604,14.487-18.871,14.487-31.433v-29.185c0-22.845-18.586-41.431-41.431-41.431
	s-41.431,18.586-41.431,41.431v29.185c0,12.563,5.628,23.83,14.487,31.433C22.215,421.82,0.41,449.989,0.41,481.7v22.785
	c0,4.15,3.364,7.515,7.515,7.515h28.662c4.151,0,7.515-3.365,7.515-7.515s-3.364-7.515-7.515-7.515H15.439V481.7
	c0-15.841,6.784-31.01,19.103-42.713c6.601-6.271,14.441-11.106,22.836-14.246l5.465,13.02l-8.822,34.554
	c-0.686,2.686,0.162,5.532,2.207,7.402l17.593,16.101c0.512,0.469,1.075,0.851,1.667,1.152H61.635c-4.151,0-7.515,3.365-7.515,7.515
	s3.364,7.515,7.515,7.515h88.226c4.151,0,7.515-3.365,7.515-7.515v-22.785C157.376,449.989,135.571,421.82,105.837,410.656z
	 M52.492,364.09c23.924-2.973,32.862-19.524,32.862-19.524s5.634,14.837,19.94,18.934v15.722c0,14.186-11.247,25.789-25.291,26.374
	c-0.336-0.009-0.671-0.025-1.007-0.029c-0.068,0-0.137,0-0.205,0c-0.336,0.005-0.671,0.02-1.007,0.029
	c-14.044-0.584-25.291-12.188-25.291-26.374C52.492,379.222,52.492,364.09,52.492,364.09z M72.591,421.024
	c0.555-0.065,1.111-0.111,1.666-0.161c0.486-0.044,0.971-0.098,1.457-0.13c0.78-0.052,1.558-0.077,2.337-0.099
	c0.282,0.006,0.56,0.021,0.843,0.021s0.561-0.016,0.843-0.021c0.779,0.022,1.558,0.047,2.337,0.099
	c0.485,0.033,0.969,0.086,1.454,0.13c0.557,0.05,1.113,0.097,1.669,0.162c0.149,0.018,0.298,0.043,0.447,0.062l-3.599,8.576h-6.301
	l-3.599-8.576C72.292,421.067,72.441,421.041,72.591,421.024z M69.695,471.67l6.888-26.98h4.618l6.888,26.98l-9.198,8.417
	L69.695,471.67z M142.347,496.971H82.299c0.592-0.302,1.155-0.683,1.667-1.152l17.593-16.101c2.045-1.872,2.894-4.717,2.207-7.402
	l-8.822-34.554l5.464-13.02c8.393,3.14,16.235,7.976,22.836,14.247c12.318,11.704,19.102,26.874,19.102,42.713L142.347,496.971
	L142.347,496.971z"/>
<path d="M460.054,410.656c8.859-7.604,14.487-18.871,14.487-31.434v-29.185c0-22.845-18.586-41.431-41.432-41.431
	c-22.845,0-41.431,18.586-41.431,41.431v29.185c0,12.563,5.628,23.83,14.486,31.433c-29.734,11.163-51.539,39.333-51.539,71.044
	v22.786c0,4.15,3.364,7.515,7.515,7.515h28.663c4.15,0,7.515-3.365,7.515-7.515s-3.365-7.515-7.515-7.515h-21.148V481.7
	c0-15.841,6.784-31.01,19.102-42.713c6.6-6.271,14.441-11.106,22.835-14.247l5.465,13.02l-8.822,34.554
	c-0.686,2.686,0.162,5.531,2.207,7.402l17.592,16.101c0.512,0.469,1.075,0.851,1.668,1.152H415.85c-4.151,0-7.515,3.365-7.515,7.515
	S411.699,512,415.85,512h88.226c4.151,0,7.515-3.365,7.515-7.515V481.7C511.592,449.99,489.788,421.82,460.054,410.656z
	 M406.708,364.096c23.965-2.954,32.918-19.53,32.918-19.53s5.62,14.798,19.885,18.918v15.739c0,14.186-11.248,25.789-25.292,26.374
	c-0.336-0.009-0.671-0.025-1.007-0.029c-0.068,0-0.137,0-0.205,0c-0.336,0.005-0.671,0.02-1.007,0.029
	c-14.044-0.584-25.291-12.188-25.291-26.374V364.096z M426.805,421.024c0.559-0.065,1.118-0.112,1.677-0.163
	c0.483-0.044,0.965-0.097,1.448-0.129c0.78-0.052,1.558-0.077,2.337-0.099c0.282,0.006,0.56,0.021,0.843,0.021
	s0.561-0.016,0.843-0.021c0.779,0.022,1.557,0.047,2.337,0.099c0.486,0.033,0.971,0.086,1.457,0.13
	c0.555,0.05,1.111,0.097,1.666,0.161c0.149,0.018,0.298,0.043,0.448,0.062l-3.599,8.576h-6.3l-3.599-8.576
	C426.508,421.067,426.656,421.041,426.805,421.024z M423.912,471.67l6.888-26.98h4.617l6.888,26.98l-9.198,8.417L423.912,471.67z
	 M496.563,496.971h-60.048c0.593-0.302,1.155-0.683,1.668-1.152l17.593-16.101c2.045-1.872,2.894-4.717,2.207-7.402l-8.822-34.554
	l5.465-13.02c8.393,3.14,16.235,7.975,22.836,14.246c12.318,11.704,19.102,26.873,19.102,42.713v15.272H496.563z"/>
<path d="M177.986,217.059h27.216c4.151,0,7.515-3.365,7.515-7.515c0-4.15-3.364-7.515-7.515-7.515H185.5v-16.923
	c0-17.14,7.336-33.551,20.658-46.208c7.269-6.905,15.927-12.209,25.194-15.595l6.106,14.368l-9.51,37.516
	c-0.679,2.682,0.17,5.522,2.211,7.39l18.869,17.27c1.436,1.315,3.254,1.971,5.074,1.971c1.819,0,3.638-0.657,5.073-1.971
	l18.869-17.27c2.041-1.869,2.891-4.707,2.211-7.39l-9.51-37.518l6.105-14.366c9.267,3.388,17.926,8.69,25.194,15.595
	c13.322,12.657,20.658,29.068,20.658,46.208v16.923h-92.454c-4.151,0-7.515,3.365-7.515,7.515c0,4.15,3.364,7.515,7.515,7.515
	h99.969c4.151,0,7.515-3.365,7.515-7.515v-24.438c0-34.065-23.627-64.288-55.718-75.975c9.749-8.025,15.977-20.18,15.977-33.764
	V43.718C297.995,19.612,278.383,0,254.277,0h-0.347c-24.106,0-43.718,19.612-43.718,43.718v31.649
	c0,13.584,6.228,25.739,15.977,33.764c-32.091,11.688-55.718,41.911-55.718,75.975v24.438
	C170.471,213.694,173.836,217.059,177.986,217.059z M254.103,184.117l-10.48-9.592l7.591-29.948h5.779l7.59,29.947L254.103,184.117z
	 M257.87,129.547h-7.533l-4.207-9.901c0.463-0.063,0.924-0.138,1.388-0.191c0.026-0.003,0.053-0.006,0.079-0.009
	c1.014-0.115,2.031-0.203,3.048-0.273c0.155-0.01,0.311-0.019,0.465-0.028c0.661-0.04,1.324-0.059,1.985-0.079
	c0.279,0.005,0.555,0.021,0.836,0.021h0.347c0.281,0,0.557-0.016,0.836-0.021c0.662,0.02,1.324,0.039,1.985,0.079
	c0.155,0.009,0.311,0.018,0.466,0.028c1.017,0.069,2.033,0.157,3.047,0.273c0.027,0.003,0.054,0.007,0.081,0.01
	c0.463,0.053,0.924,0.129,1.386,0.191L257.87,129.547z M225.241,59.061c26.096-3,35.835-21.016,35.835-21.016
	s6.17,16.274,21.889,20.467v16.855c0,15.451-12.28,28.082-27.591,28.661c-0.39-0.011-0.779-0.029-1.168-0.034
	c-0.068-0.001-0.137-0.001-0.205,0c-0.389,0.005-0.779,0.023-1.168,0.034c-15.311-0.579-27.591-13.21-27.591-28.661V59.061z"/>
<path d="M350.254,405.118l-85.846-63.828v-93.16c0-4.15-3.364-7.515-7.515-7.515c-4.151,0-7.515,3.365-7.515,7.515v92.989
	l-86.284,63.993c-3.334,2.472-4.031,7.178-1.56,10.513c1.475,1.988,3.743,3.039,6.042,3.039c1.556,0,3.125-0.481,4.471-1.48
	l84.622-62.761l84.609,62.751l0.014,0.01c3.331,2.471,8.037,1.775,10.51-1.556C354.278,412.298,353.584,407.593,350.254,405.118z"/>
<g>
</g>
<g>
</g>
<g>
</g>
<g>
</g>
<g>
</g>
<g>
</g>
<g>
</g>
<g>
</g>
<g>
</g>
<g>
</g>
<g>
</g>
<g>
</g>
<g>
</g>
<g>
</g>
<g>
</g>
</svg>
