<?xml version="1.0" encoding="iso-8859-1"?>
<!-- Generator: Adobe Illustrator 19.0.0, SVG Export Plug-In . SVG Version: 6.00 Build 0)  -->
<svg version="1.1" id="Layer_1" xmlns="http://www.w3.org/2000/svg" xmlns:xlink="http://www.w3.org/1999/xlink" x="0px" y="0px"
	 viewBox="0 0 512 512" style="enable-background:new 0 0 512 512;" xml:space="preserve">
<path style="fill:#68B9D8;" d="M255.999,501.91h-71.093v-22.825c0-37.516,33.58-68.227,71.093-68.74
	c37.513,0.513,71.094,31.223,71.094,68.74v22.825L255.999,501.91L255.999,501.91z"/>
<path style="fill:#3695B2;" d="M255.999,410.345c-3.367,0.046-6.7,0.344-9.983,0.861c33.286,5.23,61.111,33.731,61.111,67.879
	v22.825h19.965v-22.825C327.093,441.569,293.513,410.858,255.999,410.345z"/>
<path style="fill:#68B9D8;" d="M78.58,501.91H7.487v-22.825c0-37.516,33.58-68.227,71.093-68.74
	c37.512,0.513,71.093,31.223,71.093,68.74v22.825L78.58,501.91L78.58,501.91z"/>
<path style="fill:#3695B2;" d="M78.58,410.345c-3.367,0.046-6.7,0.344-9.983,0.861c33.286,5.23,61.11,33.731,61.11,67.879v22.825
	h19.965v-22.825C149.673,441.569,116.093,410.858,78.58,410.345z"/>
<path style="fill:#68B9D8;" d="M433.419,501.91h-71.093v-22.825c0-37.516,33.58-68.227,71.093-68.74
	c37.513,0.513,71.093,31.223,71.093,68.74v22.825L433.419,501.91L433.419,501.91z"/>
<path style="fill:#3695B2;" d="M433.419,410.345c-3.367,0.046-6.7,0.344-9.983,0.861c33.286,5.23,61.11,33.731,61.11,67.879v22.825
	h19.965v-22.825C504.513,441.569,470.933,410.858,433.419,410.345z"/>
<path style="fill:#68B9D8;" d="M254.099,212.473h-76.251v-24.481c0-40.239,36.016-73.177,76.251-73.727
	c40.235,0.55,76.251,33.489,76.251,73.727v24.481H254.099z"/>
<path style="fill:#3695B2;" d="M254.099,114.265c-3.365,0.046-6.695,0.338-9.983,0.823c36.02,5.308,66.268,36.032,66.268,72.905
	v24.481h19.965v-24.481C330.35,147.754,294.333,114.816,254.099,114.265z"/>
<path style="fill:#FFC89F;" d="M255.815,410.403h0.37c18.585,0,33.791-15.205,33.791-33.791v-29.607
	c0-18.585-15.206-33.791-33.791-33.791h-0.37c-18.585,0-33.791,15.205-33.791,33.791v29.607
	C222.024,395.198,237.23,410.403,255.815,410.403z"/>
<path style="fill:#F7B081;" d="M256.185,313.215h-0.37c-3.404,0-6.692,0.515-9.798,1.462c13.846,4.226,23.993,17.148,23.993,32.328
	v29.607c0,15.18-10.147,28.103-23.993,32.329c3.105,0.947,6.394,1.462,9.798,1.462h0.37c18.585,0,33.791-15.205,33.791-33.791
	v-29.607C289.976,328.42,274.77,313.215,256.185,313.215z"/>
<path style="fill:#FFC89F;" d="M433.419,410.403L433.419,410.403c18.686,0,33.976-15.289,33.976-33.976v-29.237
	c0-18.686-15.289-33.976-33.976-33.976l0,0c-18.686,0-33.976,15.289-33.976,33.976v29.237
	C399.444,395.114,414.733,410.403,433.419,410.403z"/>
<path style="fill:#F7B081;" d="M433.419,313.215c-3.47,0-6.823,0.529-9.983,1.507c13.855,4.29,23.993,17.252,23.993,32.468v29.237
	c0,15.216-10.138,28.178-23.993,32.468c3.159,0.978,6.513,1.507,9.983,1.507c18.686,0,33.976-15.289,33.976-33.976v-29.237
	C467.396,328.504,452.107,313.215,433.419,313.215z"/>
<path style="fill:#FFC89F;" d="M254.099,114.328L254.099,114.328c20.043,0,36.441-16.398,36.441-36.44V46.529
	c0-20.043-16.398-36.441-36.441-36.441l0,0c-20.042,0-36.44,16.398-36.44,36.441v31.358
	C217.658,97.929,234.056,114.328,254.099,114.328z"/>
<path style="fill:#F7B081;" d="M254.099,10.088L254.099,10.088c-3.459,0-6.806,0.499-9.983,1.411
	c15.228,4.369,26.459,18.448,26.459,35.031v31.358c0,16.583-11.23,30.661-26.459,35.031c3.176,0.911,6.524,1.411,9.983,1.411l0,0
	c20.042,0,36.441-16.398,36.441-36.44V46.529C290.539,26.486,274.141,10.088,254.099,10.088z"/>
<path style="fill:#FFC89F;" d="M78.58,410.403L78.58,410.403c18.686,0,33.976-15.289,33.976-33.976v-29.237
	c0-18.686-15.289-33.976-33.976-33.976l0,0c-18.686,0-33.976,15.289-33.976,33.976v29.237
	C44.604,395.114,59.893,410.403,78.58,410.403z"/>
<path style="fill:#F7B081;" d="M78.58,313.215c-3.471,0-6.823,0.529-9.983,1.507c13.855,4.29,23.993,17.252,23.993,32.468v29.237
	c0,15.216-10.138,28.178-23.993,32.468c3.159,0.978,6.512,1.507,9.983,1.507c18.686,0,33.976-15.289,33.976-33.976v-29.237
	C112.556,328.504,97.267,313.215,78.58,313.215z"/>
<g>
	<polygon style="fill:#F2464F;" points="255.999,487.675 238.376,471.545 247.839,434.483 255.999,434.483 264.16,434.483 
		273.624,471.545 	"/>
	<polygon style="fill:#F2464F;" points="78.58,487.675 60.956,471.545 70.42,434.483 78.58,434.483 86.74,434.483 96.204,471.545 	
		"/>
</g>
<g>
	<path style="fill:#D3333C;" d="M264.16,434.483H256h-8.161l-9.127-21.746c5.588-1.482,11.389-2.311,17.288-2.392
		c5.899,0.081,11.699,0.908,17.288,2.392L264.16,434.483z"/>
	<path style="fill:#D3333C;" d="M86.74,434.483H78.58h-8.161l-9.126-21.746c5.588-1.482,11.389-2.311,17.288-2.392
		c5.898,0.081,11.699,0.908,17.287,2.392L86.74,434.483z"/>
	<path style="fill:#D3333C;" d="M441.58,434.483h-8.161h-8.161l-9.126-21.746c5.588-1.482,11.389-2.311,17.287-2.392
		c5.898,0.081,11.699,0.908,17.287,2.392L441.58,434.483z"/>
	<path style="fill:#D3333C;" d="M262.852,139.863h-8.753h-8.753l-9.789-23.033c5.994-1.59,12.216-2.479,18.542-2.566
		c6.326,0.087,12.548,0.975,18.542,2.566L262.852,139.863z"/>
</g>
<g>
	<polygon style="fill:#F2464F;" points="433.419,487.675 415.796,471.545 425.259,434.483 433.419,434.483 441.58,434.483 
		451.044,471.545 	"/>
	<polygon style="fill:#F2464F;" points="254.099,197.206 235.197,179.905 245.346,139.863 254.099,139.863 262.852,139.863 
		273.001,179.905 	"/>
</g>
<path d="M282.993,407.961c8.847-7.577,14.47-18.815,14.47-31.349v-29.607c0-22.76-18.518-41.278-41.278-41.278h-0.37
	c-22.76,0-41.278,18.517-41.278,41.278v29.607c0,12.534,5.623,23.772,14.47,31.349c-29.763,11.181-51.587,39.38-51.587,71.124
	v22.825c0,4.135,3.352,7.487,7.487,7.487h142.186c4.136,0,7.487-3.352,7.487-7.487v-22.825
	C334.58,447.342,312.756,419.142,282.993,407.961z M229.511,361.354c24.045-2.965,33.028-19.597,33.028-19.597
	s5.638,14.846,19.95,18.981v15.874c0,14.166-11.258,25.747-25.297,26.278c-0.362-0.01-0.726-0.027-1.088-0.032h-0.001l0,0
	c-0.068-0.001-0.136-0.001-0.204,0c0,0,0,0-0.001,0h-0.001c-0.362,0.005-0.726,0.022-1.088,0.032
	c-14.038-0.532-25.297-12.113-25.297-26.278v-15.258H229.511z M253.655,441.97h4.691l6.914,27.082L256,477.526l-9.26-8.474
	L253.655,441.97z M259.183,426.996h-6.366l-3.637-8.665c0.158-0.02,0.314-0.047,0.472-0.065c0.57-0.067,1.141-0.116,1.712-0.167
	c0.478-0.044,0.955-0.096,1.434-0.128c0.766-0.051,1.53-0.075,2.296-0.098c0.241,0.004,0.479,0.018,0.722,0.018h0.37
	c0.242,0,0.48-0.014,0.721-0.018c0.765,0.023,1.53,0.047,2.295,0.098c0.479,0.033,0.956,0.085,1.435,0.129
	c0.57,0.051,1.141,0.1,1.71,0.167c0.158,0.019,0.315,0.046,0.473,0.066L259.183,426.996z M192.394,479.085
	c0-15.879,6.801-31.087,19.15-42.819c6.626-6.295,14.499-11.147,22.926-14.294l5.494,13.092l-8.842,34.629
	c-0.683,2.676,0.163,5.51,2.2,7.375l17.623,16.13c0.555,0.508,1.169,0.914,1.816,1.226h-60.367V479.085z M319.606,494.423h-60.367
	c0.648-0.31,1.261-0.718,1.816-1.226l17.623-16.13c2.037-1.865,2.883-4.7,2.199-7.375l-8.842-34.628l5.495-13.093
	c8.427,3.148,16.301,7.999,22.926,14.294c12.348,11.732,19.15,26.939,19.15,42.819L319.606,494.423L319.606,494.423z"/>
<path d="M105.494,407.929c8.895-7.611,14.55-18.905,14.55-31.502v-29.237c0-22.862-18.6-41.463-41.464-41.463
	c-22.862,0-41.463,18.6-41.463,41.463v29.237c0,12.597,5.654,23.891,14.549,31.502C21.863,419.09,0,447.313,0,479.085v22.825
	c0,4.135,3.352,7.487,7.487,7.487h26.359c4.135,0,7.487-3.352,7.487-7.487s-3.352-7.487-7.487-7.487H14.974v-15.338
	c0-15.879,6.801-31.087,19.15-42.819c6.626-6.295,14.499-11.147,22.926-14.294l5.494,13.092l-8.842,34.629
	c-0.683,2.676,0.163,5.51,2.2,7.375l17.623,16.13c0.555,0.508,1.168,0.914,1.816,1.226H58.802c-4.135,0-7.487,3.352-7.487,7.487
	s3.352,7.487,7.487,7.487h90.871c4.135,0,7.487-3.352,7.487-7.487v-22.825C157.16,447.313,135.297,419.09,105.494,407.929z
	 M52.091,361.354c24.045-2.965,33.028-19.597,33.028-19.597s5.638,14.847,19.95,18.982v15.689c0,14.235-11.288,25.878-25.383,26.461
	c-0.334-0.009-0.669-0.025-1.002-0.029h-0.001l0,0c-0.068-0.001-0.136-0.001-0.204,0h-0.001h-0.001
	c-0.334,0.005-0.669,0.02-1.003,0.029c-14.094-0.583-25.383-12.226-25.383-26.461L52.091,361.354L52.091,361.354z M72.233,418.265
	c0.57-0.067,1.141-0.116,1.712-0.167c0.478-0.043,0.955-0.096,1.433-0.128c0.789-0.053,1.576-0.079,2.365-0.101
	c0.28,0.006,0.556,0.021,0.838,0.021c0.281,0,0.558-0.016,0.838-0.021c0.788,0.023,1.576,0.049,2.364,0.101
	c0.479,0.033,0.957,0.085,1.436,0.129c0.57,0.051,1.139,0.1,1.709,0.167c0.159,0.019,0.315,0.046,0.474,0.066l-3.637,8.665h-6.367
	l-3.637-8.665C71.918,418.311,72.075,418.284,72.233,418.265z M69.321,469.052l6.914-27.082h4.691l6.914,27.082l-9.26,8.474
	L69.321,469.052z M142.186,494.423H81.819c0.648-0.31,1.261-0.718,1.816-1.226l17.623-16.13c2.037-1.865,2.883-4.7,2.2-7.375
	l-8.842-34.629l5.494-13.092c8.428,3.148,16.301,7.999,22.927,14.294c12.348,11.732,19.15,26.939,19.15,42.819L142.186,494.423
	L142.186,494.423z"/>
<path d="M460.333,407.929c8.895-7.611,14.549-18.905,14.549-31.502v-29.237c0-22.862-18.6-41.463-41.463-41.463
	c-22.863,0-41.464,18.6-41.464,41.463v29.237c0,12.597,5.654,23.891,14.55,31.502c-29.804,11.16-51.667,39.383-51.667,71.156v22.825
	c0,4.135,3.351,7.487,7.487,7.487h34.081c4.136,0,7.487-3.352,7.487-7.487s-3.351-7.487-7.487-7.487h-26.594v-15.338
	c0-15.879,6.801-31.087,19.15-42.819c6.626-6.295,14.498-11.147,22.926-14.294l5.495,13.094l-8.841,34.626
	c-0.684,2.676,0.162,5.51,2.199,7.375l17.623,16.13c0.555,0.508,1.168,0.914,1.816,1.226h-8.818c-4.136,0-7.487,3.352-7.487,7.487
	s3.351,7.487,7.487,7.487h83.149c4.136,0,7.487-3.352,7.487-7.487v-22.825C512,447.313,490.137,419.09,460.333,407.929z
	 M406.931,361.352c24.03-2.972,33.007-19.595,33.007-19.595s5.643,14.862,19.971,18.988v15.683
	c0,14.235-11.287,25.878-25.383,26.461c-0.334-0.009-0.67-0.025-1.004-0.03c-0.068-0.001-0.137-0.001-0.205,0
	c-0.335,0.005-0.67,0.021-1.005,0.03c-14.094-0.583-25.383-12.227-25.383-26.461L406.931,361.352L406.931,361.352z M427.075,418.265
	c0.567-0.067,1.135-0.115,1.703-0.167c0.48-0.044,0.959-0.096,1.44-0.129c0.789-0.053,1.576-0.079,2.364-0.101
	c0.28,0.006,0.556,0.021,0.838,0.021c0.281,0,0.558-0.016,0.838-0.021c0.788,0.023,1.575,0.049,2.364,0.101
	c0.48,0.033,0.958,0.085,1.438,0.129c0.569,0.051,1.138,0.1,1.706,0.167c0.159,0.019,0.315,0.046,0.474,0.066l-3.637,8.665h-6.367
	l-3.637-8.665C426.758,418.311,426.916,418.284,427.075,418.265z M424.161,469.052l6.914-27.082h4.691l6.914,27.082l-9.259,8.474
	L424.161,469.052z M497.026,494.423H436.66c0.648-0.31,1.261-0.718,1.816-1.226l17.623-16.13c2.037-1.865,2.883-4.7,2.199-7.375
	l-8.842-34.628l5.494-13.093c8.427,3.148,16.299,7.999,22.926,14.294c12.348,11.732,19.15,26.939,19.15,42.819V494.423z"/>
<path d="M177.848,219.96h27.277c4.135,0,7.487-3.352,7.487-7.487c0-4.135-3.352-7.487-7.487-7.487h-19.79v-16.994
	c0-17.182,7.354-33.631,20.708-46.319c7.295-6.931,15.986-12.252,25.289-15.646l6.137,14.442l-9.529,37.596
	c-0.678,2.672,0.169,5.501,2.203,7.362l18.902,17.3c1.43,1.31,3.242,1.964,5.054,1.964c1.813,0,3.625-0.655,5.054-1.964l18.902-17.3
	c2.033-1.862,2.88-4.69,2.203-7.362l-9.529-37.597l6.137-14.441c9.303,3.394,17.995,8.715,25.29,15.646
	c13.353,12.688,20.707,29.137,20.707,46.319v16.994h-92.781c-4.135,0-7.487,3.352-7.487,7.487c0,4.135,3.352,7.487,7.487,7.487
	H330.35c4.136,0,7.487-3.352,7.487-7.487v-24.481c0-34.159-23.73-64.458-55.937-76.122c9.838-8.063,16.129-20.302,16.129-33.984
	V46.529c0-24.222-19.706-43.927-43.928-43.927c-24.222,0-43.927,19.706-43.927,43.927v31.358c0,13.682,6.29,25.921,16.128,33.984
	c-32.207,11.664-55.938,41.962-55.938,76.122v24.481C170.361,216.609,173.713,219.96,177.848,219.96z M254.099,187.057
	l-10.545-9.651l7.618-30.054h5.853l7.618,30.055L254.099,187.057z M257.898,132.376h-7.599l-4.247-9.993
	c0.488-0.067,0.975-0.147,1.465-0.203c0.015-0.002,0.029-0.004,0.044-0.005c1.022-0.116,2.046-0.206,3.072-0.275
	c0.152-0.01,0.303-0.018,0.455-0.027c0.691-0.042,1.382-0.063,2.072-0.083c0.313,0.007,0.624,0.024,0.938,0.024
	c0.314,0,0.625-0.017,0.938-0.024c0.694,0.021,1.387,0.041,2.079,0.083c0.148,0.009,0.294,0.017,0.442,0.027
	c1.029,0.07,2.057,0.159,3.084,0.276c0.009,0.001,0.019,0.002,0.028,0.003c0.493,0.056,0.983,0.137,1.475,0.204L257.898,132.376z
	 M225.144,61.811c26.175-3.016,35.945-21.087,35.945-21.087s6.191,16.328,21.964,20.537v16.626c0,15.567-12.35,28.299-27.767,28.923
	c-0.361-0.01-0.723-0.027-1.083-0.032c-0.001,0-0.001,0-0.001,0h-0.001c-0.068-0.001-0.136-0.001-0.204,0l0,0h-0.002
	c-0.36,0.005-0.722,0.022-1.083,0.032c-15.416-0.626-27.766-13.357-27.766-28.923L225.144,61.811L225.144,61.811z"/>
<path d="M78.58,295.261c4.135,0,7.487-3.352,7.487-7.487v-18.807h160.545v18.807c0,4.135,3.352,7.487,7.487,7.487
	c4.136,0,7.487-3.352,7.487-7.487v-18.807h164.347v18.807c0,4.135,3.351,7.487,7.487,7.487s7.487-3.352,7.487-7.487V261.48
	c0-4.135-3.351-7.487-7.487-7.487H261.586v-19.885c0-4.135-3.351-7.487-7.487-7.487c-4.135,0-7.487,3.352-7.487,7.487v19.884H78.58
	c-4.135,0-7.487,3.352-7.487,7.487v26.294C71.093,291.909,74.445,295.261,78.58,295.261z"/>
<g>
</g>
<g>
</g>
<g>
</g>
<g>
</g>
<g>
</g>
<g>
</g>
<g>
</g>
<g>
</g>
<g>
</g>
<g>
</g>
<g>
</g>
<g>
</g>
<g>
</g>
<g>
</g>
<g>
</g>
</svg>
