<?xml version="1.0" encoding="iso-8859-1"?>
<!-- Generator: Adobe Illustrator 19.0.0, SVG Export Plug-In . SVG Version: 6.00 Build 0)  -->
<svg version="1.1" id="Layer_1" xmlns="http://www.w3.org/2000/svg" xmlns:xlink="http://www.w3.org/1999/xlink" x="0px" y="0px"
	 viewBox="0 0 512.001 512.001" style="enable-background:new 0 0 512.001 512.001;" xml:space="preserve">
<polyline style="fill:#546F7A;" points="261.71,209.888 310.804,290.119 407.917,230.695 316.347,81.048 "/>
<rect x="211.716" y="362.391" style="fill:#EFE7E4;" width="34.636" height="95.315"/>
<rect x="211.716" y="437.673" style="fill:#D8D1D0;" width="34.636" height="20.043"/>
<rect x="133.459" y="216.907" transform="matrix(0.853 0.5219 -0.5219 0.853 148.8659 -60.0952)" style="fill:#EFE7E4;" width="95.315" height="34.635"/>
<rect x="197.167" y="246.067" transform="matrix(-0.5219 0.853 -0.853 -0.5219 543.613 204.5443)" style="fill:#D8D1D0;" width="34.635" height="17.097"/>
<rect x="320.755" y="257.842" transform="matrix(0.853 -0.5219 0.5219 0.853 -89.4518 232.7226)" style="fill:#EFE7E4;" width="95.315" height="34.635"/>
<rect x="393.22" y="237.416" transform="matrix(0.853 -0.5219 0.5219 0.853 -73.8886 247.1285)" style="fill:#D8D1D0;" width="17.097" height="34.635"/>
<path style="fill:#FFC89F;" d="M155.102,197.988l12.431-20.315l-1.822-13.785c-1.227-9.28,0.77-18.699,5.655-26.683l9.496-15.519
	l-0.014-0.008l41.597-67.979c3.345-5.467,10.556-7.204,16.022-3.857l0.148,0.09c5.467,3.345,7.204,10.556,3.857,16.022
	l10.658-17.417c3.345-5.467,10.556-7.204,16.022-3.857l0.148,0.09c5.467,3.345,7.203,10.556,3.857,16.022l7.254-11.855
	c3.345-5.467,10.556-7.204,16.022-3.857l0.148,0.09c5.467,3.345,7.203,10.556,3.858,16.022l-4.965,8.113
	c3.345-5.467,10.556-7.204,16.022-3.857l0.148,0.09c5.467,3.345,7.203,10.556,3.857,16.022l-54.544,89.138l-0.043,0.07
	l18.495-30.224c3.169-5.178,9.934-6.807,15.113-3.639l0,0c5.178,3.169,6.807,9.934,3.639,15.113l-31.949,52.211
	c-4.288,7.007-11.308,11.905-19.366,13.509l-10.441,2.078l-12.431,20.314l-33.809-20.688L155.102,197.988z"/>
<g>
	<polyline style="fill:#546F7A;" points="28.315,374.885 123.533,219.276 220.646,278.7 172.94,356.664 	"/>
	<polyline style="fill:#546F7A;" points="28.315,374.885 123.533,219.276 220.646,278.7 172.94,356.664 	"/>
</g>
<polygon style="fill:#465A65;" points="206.064,269.777 151.222,359.4 172.94,356.664 220.646,278.7 "/>
<path style="fill:#FFC89F;" d="M211.713,451.164h-23.815l-10.807,8.749c-7.276,5.89-16.352,9.104-25.712,9.104h-18.194v0.016H53.487
	c-6.41,0-11.653-5.244-11.653-11.653v-0.173c0-6.41,5.244-11.653,11.653-11.653H33.068c-6.41,0-11.653-5.244-11.653-11.653v-0.173
	c0-6.409,5.244-11.653,11.653-11.653H19.169c-6.409,0-11.653-5.244-11.653-11.653v-0.173c0-6.41,5.244-11.653,11.653-11.653h9.512
	c-6.409,0-11.653-5.244-11.653-11.653v-0.173c0-6.41,5.244-11.653,11.653-11.653h104.502h0.083H97.833
	c-6.07,0-10.992-4.921-10.992-10.992l0,0c0-6.07,4.921-10.992,10.992-10.992h61.212c8.216,0,16.057,3.432,21.631,9.467l7.224,7.822
	h23.815v39.636L211.713,451.164L211.713,451.164z"/>
<polygon style="fill:#455B66;" points="393.334,239.618 407.917,230.695 316.347,81.048 308.142,100.395 "/>
<polyline style="fill:#546F7A;" points="466.423,466.98 246.348,466.98 246.348,353.128 352.699,353.128 "/>
<polygon style="fill:#465A65;" points="246.348,446.936 246.348,466.98 466.423,466.98 446.403,446.936 "/>
<path style="fill:#FFC89F;" d="M342.372,311.408l12.431,20.315l-1.822,13.785c-1.227,9.28,0.77,18.699,5.655,26.683l9.496,15.519
	l-0.014,0.008l41.597,67.979c3.345,5.467,10.556,7.202,16.022,3.857l0.148-0.09c5.467-3.345,7.203-10.556,3.857-16.022
	l10.658,17.418c3.345,5.467,10.556,7.203,16.022,3.857l0.148-0.09c5.467-3.345,7.203-10.556,3.857-16.022l7.254,11.855
	c3.345,5.467,10.556,7.203,16.022,3.857l0.148-0.09c5.467-3.345,7.203-10.556,3.858-16.022l-4.965-8.113
	c3.345,5.467,10.556,7.203,16.022,3.857l0.148-0.091c5.467-3.345,7.204-10.556,3.857-16.022l-54.544-89.138l-0.043-0.07
	l18.495,30.224c3.169,5.178,9.934,6.807,15.113,3.639l0,0c5.178-3.169,6.807-9.934,3.639-15.113l-31.949-52.212
	c-4.288-7.007-11.308-11.905-19.366-13.509l-10.441-2.078l-12.431-20.315l-33.809,20.688L342.372,311.408z"/>
<path d="M509.187,423.911l-26.608-43.485c1.073-0.405,2.126-0.906,3.14-1.526c4.217-2.58,7.177-6.647,8.334-11.455
	c1.158-4.806,0.374-9.775-2.207-13.992l-31.949-52.212c-5.367-8.77-14.228-14.95-24.309-16.957l-7.216-1.437l-6.791-11.097
	l0.431-0.264c1.701-1.04,2.918-2.714,3.384-4.652c0.467-1.938,0.144-3.982-0.896-5.682l-14.155-23.133l1.494-0.914
	c1.701-1.041,2.918-2.714,3.384-4.652c0.467-1.938,0.144-3.982-0.896-5.682l-36.708-59.99c-2.167-3.541-6.793-4.655-10.334-2.488
	c-3.541,2.167-4.655,6.794-2.488,10.334l32.786,53.578l-84.29,51.578l-42.326-69.171c0.581-0.798,1.141-1.612,1.661-2.459
	l31.949-52.212c2.581-4.217,3.363-9.187,2.207-13.992c-1.158-4.806-4.117-8.874-8.334-11.455c-1.006-0.615-2.057-1.121-3.137-1.531
	l20.773-33.948l36.407,59.499c1.418,2.316,3.887,3.594,6.419,3.594c1.337,0,2.692-0.357,3.915-1.105
	c3.541-2.167,4.655-6.794,2.488-10.334l-41.045-67.075c1.698-7.759-1.553-16.094-8.705-20.469l-0.141-0.086
	c-1.823-1.116-3.785-1.906-5.816-2.36c0.159-2.001,0.002-4.04-0.483-6.052c-1.201-4.988-4.261-9.202-8.6-11.857l-0.167-0.102
	c-7.64-4.674-17.292-3.344-23.418,2.654c-1.088-1.116-2.332-2.117-3.722-2.967l-0.141-0.086c-9.014-5.516-20.839-2.671-26.357,6.346
	l-0.887,1.449c-0.982-0.946-2.081-1.8-3.292-2.54l-0.15-0.092c-9.015-5.516-20.839-2.67-26.357,6.346l-41.597,67.98
	c-0.057,0.092-0.102,0.188-0.154,0.283l-9.329,15.245c-5.764,9.422-8.143,20.641-6.695,31.591l1.473,11.147l-7.155,11.693
	c-1.506-0.672-3.199-0.842-4.82-0.45c-1.938,0.466-3.612,1.684-4.652,3.384l-14.154,23.133l-1.494-0.914
	c-3.542-2.167-8.168-1.052-10.334,2.488l-41.885,68.45c-2.167,3.541-1.052,8.168,2.488,10.334c3.541,2.168,8.167,1.052,10.334-2.488
	l37.962-62.039l70.003,42.835l12.794,7.829h0.001l1.493,0.914l-40.426,66.066c-3.486-1.072-7.137-1.644-10.841-1.644H97.831
	c-10.205,0-18.508,8.303-18.508,18.508c0,1.189,0.123,2.348,0.339,3.475H41.589l35.589-58.159c2.167-3.541,1.052-8.168-2.488-10.334
	c-3.542-2.166-8.168-1.052-10.334,2.488L23.521,368.32c-8.067,2.262-14.008,9.664-14.008,18.444v0.173
	c0,2.166,0.361,4.249,1.026,6.192C4.291,396.293,0,402.777,0,410.244v0.173c0,8.955,6.172,16.495,14.485,18.591
	c-0.383,1.509-0.586,3.089-0.586,4.716v0.173c0,10.57,8.6,19.169,19.169,19.169h1.7c-0.295,1.333-0.45,2.717-0.45,4.137v0.173
	c0,10.57,8.599,19.169,19.169,19.169h79.697c0.108,0,0.213-0.012,0.32-0.016h17.874c11.045,0,21.857-3.827,30.442-10.777
	l8.739-7.075h13.709c0.476,3.692,3.625,6.547,7.447,6.547h27.119v1.753c0,4.151,3.365,7.516,7.516,7.516h88.464
	c4.151,0,7.516-3.365,7.516-7.516s-3.365-7.516-7.516-7.516h-80.948v-1.753v-95.315v-1.752h92.261
	c1.123,5.439,3.173,10.686,6.099,15.469l9.335,15.256c0.05,0.09,0.093,0.182,0.147,0.272l41.501,67.823H358.39
	c-4.151,0-7.516,3.365-7.516,7.516s3.365,7.516,7.516,7.516h108.033c1.957,0,3.733-0.755,5.071-1.979
	c0.54,0.181,1.086,0.348,1.647,0.483c4.988,1.202,10.133,0.394,14.483-2.268l0.155-0.095c6.369-3.897,9.659-10.941,9.098-17.918
	c2.029-0.453,3.99-1.242,5.811-2.356l0.155-0.095C511.857,444.75,514.704,432.926,509.187,423.911z M407.756,262.588l-25.102,15.36
	l-9.138,5.592l-0.001,0.001l-34.239,20.951l-10.232-16.721l52.709-32.253l15.77-9.65L407.756,262.588z M174.984,176.689
	l-1.822-13.786c-0.998-7.547,0.641-15.281,4.615-21.776l9.496-15.518c0.057-0.093,0.102-0.189,0.154-0.284l41.428-67.705
	c1.172-1.913,3.775-2.54,5.686-1.372l0.15,0.092c1.912,1.171,2.539,3.774,1.37,5.687l-0.001,0.001l-28.538,46.638
	c-2.167,3.541-1.052,8.168,2.488,10.334c1.225,0.75,2.579,1.105,3.915,1.105c2.53,0,5.001-1.278,6.419-3.594l28.538-46.638
	l10.657-17.417c1.171-1.913,3.775-2.54,5.695-1.366l0.142,0.086c1.912,1.171,2.539,3.774,1.371,5.687l-0.001,0.001l-39.196,64.056
	c-2.167,3.541-1.052,8.168,2.488,10.334c1.225,0.75,2.579,1.105,3.915,1.105c2.53,0,5.001-1.278,6.419-3.594l39.196-64.055
	c0.001-0.001,0.001-0.002,0.002-0.003c0.003-0.004,0.005-0.008,0.008-0.012l7.244-11.839c1.172-1.914,3.776-2.539,5.67-1.382
	l0.167,0.103c1.257,0.77,1.698,1.936,1.849,2.564s0.29,1.867-0.48,3.125l-4.965,8.113l-41.485,67.797
	c-2.167,3.541-1.052,8.168,2.488,10.334c1.225,0.75,2.579,1.105,3.915,1.105c2.53,0,5.001-1.278,6.419-3.594l41.485-67.797
	c0.77-1.257,1.936-1.698,2.564-1.849c0.626-0.151,1.867-0.29,3.131,0.484l0.142,0.086c1.913,1.171,2.54,3.775,1.37,5.688
	l-54.544,89.138v0.001l-0.043,0.07c-2.167,3.541-1.052,8.168,2.488,10.334c3.541,2.166,8.168,1.052,10.334-2.488l18.495-30.224
	c0.653-1.068,1.628-1.439,2.151-1.565c0.523-0.126,1.558-0.239,2.628,0.415c1.068,0.653,1.439,1.628,1.564,2.151
	c0.125,0.523,0.24,1.559-0.414,2.628l-31.949,52.212c-3.184,5.202-8.44,8.869-14.422,10.061l-10.441,2.078
	c-2.056,0.409-3.849,1.66-4.944,3.448l-8.507,13.903l-27.398-16.765c-0.001,0-0.001-0.001-0.002-0.001l-28.653-17.533l8.507-13.903
	C174.841,180.128,175.209,178.395,174.984,176.689z M210.253,263.529l-19.533-11.953l-48.946-29.951l10.232-16.721l68.479,41.903
	L210.253,263.529z M187.897,443.648c-1.722,0-3.391,0.591-4.729,1.675l-10.806,8.749c-5.918,4.79-13.37,7.429-20.983,7.429h-18.194
	c-0.108,0-0.213,0.012-0.32,0.016H53.487c-2.243,0-4.137-1.895-4.137-4.137v-0.173c0-2.243,1.894-4.137,4.137-4.137h54.677
	c4.151,0,7.516-3.365,7.516-7.516s-3.365-7.516-7.516-7.516H53.487H33.068c-2.243,0-4.137-1.894-4.137-4.137v-0.173
	c0-2.243,1.894-4.137,4.137-4.137h75.097c4.151,0,7.516-3.365,7.516-7.516s-3.365-7.516-7.516-7.516H33.068H19.169
	c-2.243,0-4.137-1.895-4.137-4.137v-0.173c0-2.243,1.895-4.137,4.137-4.137h9.512h79.482c4.151,0,7.516-3.365,7.516-7.516
	s-3.365-7.516-7.516-7.516H28.682c-2.243,0-4.137-1.895-4.137-4.137v-0.173c0-2.243,1.895-4.137,4.137-4.137h69.151h35.351h0.083
	c4.151,0,7.516-3.365,7.516-7.516s-3.365-7.516-7.516-7.516h-0.083H97.833c-1.916,0-3.475-1.559-3.475-3.475
	s1.559-3.475,3.475-3.475h61.212c3.441,0,6.809,0.819,9.834,2.336c0.047,0.03,0.09,0.065,0.138,0.094
	c0.309,0.188,0.625,0.352,0.947,0.491c1.913,1.097,3.668,2.482,5.188,4.129l7.224,7.822c1.422,1.54,3.424,2.417,5.522,2.417h16.3
	v32.12v33.594h-16.3V443.648z M219.229,450.195v-40.141v-39.636v-0.505h19.603v80.283L219.229,450.195L219.229,450.195z
	 M246.348,345.611c-4.151,0-7.516,3.365-7.516,7.516v1.752h-27.119c-4.151,0-7.516,3.365-7.516,7.516v0.505h-13.01l-4.991-5.405
	c-0.983-1.065-2.03-2.058-3.123-2.991l43.985-71.881c1.04-1.701,1.363-3.744,0.896-5.682c-0.466-1.938-1.684-3.612-3.384-4.652
	l-1.494-0.914l14.154-23.133c2.167-3.541,1.052-8.168-2.488-10.334l-0.431-0.264l6.791-11.097l7.215-1.437
	c4.003-0.797,7.807-2.261,11.282-4.274l44.794,73.204c1.418,2.317,3.887,3.595,6.419,3.595c1.338,0,2.692-0.357,3.915-1.106
	l1.494-0.914l14.154,23.132c1.417,2.317,3.887,3.594,6.419,3.594c1.031,0,2.07-0.217,3.054-0.657l7.154,11.691l-1.474,11.147
	c-0.048,0.363-0.08,0.727-0.12,1.089h-99.059V345.611z M495.001,437.441l-0.154,0.094c-1.258,0.77-2.497,0.631-3.125,0.479
	c-0.627-0.15-1.793-0.591-2.563-1.847c0-0.001-0.001-0.002-0.001-0.002l-41.486-67.797c-2.167-3.541-6.793-4.655-10.334-2.488
	c-3.541,2.167-4.655,6.794-2.488,10.334l41.485,67.796c0.001,0.001,0.002,0.002,0.002,0.003c0.004,0.006,0.007,0.012,0.011,0.018
	l4.952,8.093c1.171,1.913,0.543,4.518-1.363,5.684l-0.155,0.095c-1.256,0.77-2.496,0.63-3.124,0.48
	c-0.627-0.151-1.795-0.592-2.564-1.849l-7.238-11.827c-0.005-0.008-0.01-0.016-0.015-0.025c-0.001-0.001-0.001-0.002-0.002-0.003
	l-39.195-64.056c-2.168-3.541-6.793-4.655-10.334-2.488c-3.541,2.167-4.655,6.794-2.488,10.334l39.195,64.056l0.001,0.001
	c0.769,1.257,0.629,2.496,0.479,3.123c-0.151,0.627-0.592,1.795-1.859,2.57l-0.139,0.085c-1.258,0.77-2.497,0.631-3.125,0.479
	c-0.627-0.151-1.794-0.592-2.564-1.849l-10.646-17.398c-0.003-0.005-0.007-0.01-0.01-0.016c-0.001-0.001-0.001-0.002-0.002-0.004
	l-28.538-46.638c-2.167-3.541-6.793-4.655-10.334-2.488c-3.541,2.167-4.655,6.794-2.488,10.334l28.538,46.638l0.001,0.001
	c1.169,1.913,0.542,4.518-1.364,5.683l-0.154,0.094c-1.257,0.771-2.496,0.631-3.125,0.48c-0.627-0.151-1.795-0.592-2.564-1.849
	l-41.436-67.717c-0.05-0.09-0.093-0.182-0.147-0.272l-9.496-15.519c-3.974-6.494-5.613-14.228-4.615-21.776l1.822-13.785
	c0.225-1.707-0.142-3.439-1.04-4.908l-8.507-13.903l41.169-25.191l14.884-9.108l8.507,13.903c1.094,1.789,2.887,3.04,4.944,3.448
	l10.443,2.079c5.982,1.191,11.238,4.857,14.422,10.06l31.949,52.212c0.653,1.068,0.54,2.105,0.415,2.628
	c-0.126,0.523-0.496,1.497-1.564,2.151c-1.634,0.999-3.777,0.485-4.776-1.147l-18.453-30.156c-0.001-0.002-0.003-0.004-0.004-0.006
	l-0.039-0.064c-2.167-3.541-6.794-4.655-10.334-2.488c-3.541,2.167-4.655,6.794-2.488,10.334l18.495,30.224
	c0.002,0.003,0.004,0.005,0.005,0.008l36.088,58.976C497.535,433.67,496.908,436.274,495.001,437.441z"/>
<g>
</g>
<g>
</g>
<g>
</g>
<g>
</g>
<g>
</g>
<g>
</g>
<g>
</g>
<g>
</g>
<g>
</g>
<g>
</g>
<g>
</g>
<g>
</g>
<g>
</g>
<g>
</g>
<g>
</g>
</svg>
