<?xml version="1.0" encoding="iso-8859-1"?>
<!-- Generator: Adobe Illustrator 19.0.0, SVG Export Plug-In . SVG Version: 6.00 Build 0)  -->
<svg version="1.1" id="Layer_1" xmlns="http://www.w3.org/2000/svg" xmlns:xlink="http://www.w3.org/1999/xlink" x="0px" y="0px"
	 viewBox="0 0 512.001 512.001" style="enable-background:new 0 0 512.001 512.001;" xml:space="preserve">
<g>
	<path style="fill:#465A65;" d="M255.045,397.963c-19.733-0.524-35.975-15.679-38.218-34.954H7.67v45.306h209.237
		C228.466,402.045,241.521,398.324,255.045,397.963z"/>
	<path style="fill:#465A65;" d="M295.366,363.009c-2.242,19.275-18.485,34.43-38.217,34.954c13.523,0.36,26.579,4.082,38.137,10.352
		h209.04v-45.306L295.366,363.009L295.366,363.009z"/>
</g>
<path style="fill:#546F7A;" d="M216.553,358.446v-34.028c0-21.749,17.795-39.543,39.543-39.543s39.543,17.795,39.543,39.543v34.028
	c0,1.544-0.1,3.064-0.274,4.563h208.587L376.194,210.072H255.811H135.428L7.67,363.009h209.157
	C216.653,361.51,216.553,359.99,216.553,358.446z"/>
<path style="fill:#68B9D8;" d="M256.097,504.492h-82.743v-26.565c0-43.664,39.083-79.407,82.743-80.005
	c43.66,0.598,82.743,36.34,82.743,80.005v26.565H256.097z"/>
<path style="fill:#3695B2;" d="M256.097,397.922c-3.369,0.046-6.711,0.303-10.01,0.755c39.449,5.407,72.733,38.955,72.733,79.25
	v26.565h20.02v-26.565C338.84,434.263,299.757,398.519,256.097,397.922z"/>
<path style="fill:#68B9D8;" d="M255.811,210.072h-76.318V185.57c0-40.274,36.048-73.242,76.318-73.793
	c40.27,0.551,76.318,33.518,76.318,73.793v24.502H255.811z"/>
<path style="fill:#3695B2;" d="M255.811,111.777c-3.374,0.046-6.714,0.339-10.01,0.826c36.043,5.32,66.308,36.067,66.308,72.967
	v24.502h20.02V185.57C332.13,145.296,296.081,112.328,255.811,111.777z"/>
<path style="fill:#353535;" d="M255.606,397.989h0.982c21.478,0,39.052-17.573,39.052-39.052v-35.01
	c0-21.478-17.574-39.052-39.052-39.052h-0.982c-21.478,0-39.053,17.574-39.053,39.052v35.01
	C216.553,380.416,234.127,397.989,255.606,397.989z"/>
<path style="fill:#232323;" d="M256.488,284.974h-0.982c-3.187,0-6.284,0.395-9.254,1.124c16.835,4.336,29.369,19.689,29.369,37.828
	v35.01c0,18.292-12.749,33.743-29.798,37.928c3.099,0.798,6.344,1.224,9.684,1.224h0.982c21.478,0,39.052-17.573,39.052-39.052
	v-35.01C295.541,302.548,277.967,284.974,256.488,284.974z"/>
<path style="fill:#FFC89F;" d="M255.359,111.839h0.906c19.811,0,36.02-16.209,36.02-36.02V43.527c0-19.811-16.209-36.02-36.02-36.02
	h-0.906c-19.811,0-36.02,16.209-36.02,36.02V75.82C219.339,95.63,235.547,111.839,255.359,111.839z"/>
<path style="fill:#D3333C;" d="M264.572,137.433h-8.761h-8.761l-9.798-23.089c5.999-1.592,12.226-2.481,18.557-2.568
	c6.331,0.086,12.559,0.976,18.557,2.568L264.572,137.433z"/>
<polygon style="fill:#F2464F;" points="255.811,194.79 236.892,177.475 247.051,137.433 255.811,137.433 264.572,137.433 
	274.73,177.475 "/>
<path style="fill:#EFE7E4;" d="M256.097,284.875c13.671,0,25.776,7.033,32.885,17.658h59.257l-43.652-69.268h-48.774h-48.774
	l-43.652,69.268h59.828C230.321,291.908,242.426,284.875,256.097,284.875z"/>
<polygon style="fill:#D8D1D0;" points="304.585,233.265 284.565,233.265 328.217,302.533 348.237,302.533 "/>
<path style="fill:#F7B081;" d="M256.265,7.507h-0.906c-3.307,0-6.509,0.46-9.558,1.305c15.21,4.215,26.463,18.21,26.463,34.715
	V75.82c0,16.504-11.253,30.499-26.463,34.715c3.047,0.845,6.25,1.305,9.558,1.305h0.906c19.811,0,36.02-16.209,36.02-36.02V43.527
	C292.285,23.717,276.075,7.507,256.265,7.507z"/>
<path d="M508.55,356.803L381.956,205.259c-1.426-1.708-3.536-2.695-5.762-2.695h-36.557v-16.996
	c0-34.115-23.643-64.386-55.767-76.123c9.715-7.989,15.922-20.096,15.922-33.627V43.527C299.792,19.526,280.266,0,256.264,0h-0.906
	c-24.001,0-43.526,19.526-43.526,43.527v32.291c0,13.53,6.207,25.638,15.921,33.627c-32.124,11.736-55.767,42.008-55.767,76.123
	v16.996h-36.556c-2.225,0-4.335,0.987-5.762,2.695L1.908,358.196c-0.003,0.004-0.006,0.008-0.009,0.012
	c-0.206,0.248-0.392,0.512-0.566,0.786c-0.038,0.061-0.075,0.122-0.112,0.184c-0.151,0.254-0.291,0.518-0.412,0.79
	c-0.01,0.022-0.022,0.043-0.031,0.065c-0.127,0.293-0.232,0.598-0.321,0.909c-0.018,0.064-0.033,0.128-0.049,0.192
	c-0.065,0.251-0.116,0.508-0.155,0.769c-0.01,0.071-0.024,0.141-0.032,0.212c-0.035,0.293-0.058,0.592-0.058,0.895v45.306
	c0,4.146,3.36,7.507,7.507,7.507h186.044c-17.076,16.04-27.869,38.196-27.869,62.105v26.565c0,4.146,3.36,7.507,7.507,7.507h39.314
	c4.147,0,7.507-3.361,7.507-7.507c0-4.146-3.36-7.507-7.507-7.507h-31.807v-19.058c0-18.816,8.048-36.825,22.663-50.71
	c5.312-5.047,11.303-9.312,17.717-12.698c0.101-0.053,0.202-0.106,0.304-0.159c2.056-1.074,4.156-2.058,6.29-2.948
	c0.089-0.037,0.178-0.075,0.268-0.112c1.051-0.433,2.111-0.845,3.178-1.233c0.106-0.038,0.213-0.074,0.32-0.112
	c0.928-0.332,1.862-0.644,2.8-0.941c0.208-0.066,0.416-0.135,0.626-0.199c0.932-0.286,1.869-0.552,2.809-0.803
	c0.38-0.101,0.762-0.197,1.143-0.292c0.631-0.158,1.262-0.305,1.896-0.447c0.71-0.158,1.421-0.307,2.134-0.445
	c0.471-0.092,0.943-0.182,1.416-0.265c0.59-0.103,1.18-0.201,1.772-0.29c0.236-0.036,0.473-0.064,0.71-0.098
	c1.18-0.166,2.361-0.306,3.545-0.415c0.197-0.018,0.395-0.036,0.593-0.053c1.302-0.109,2.605-0.184,3.906-0.224
	c0.22,0.003,0.438,0.017,0.659,0.017h0.982c0.221,0,0.439-0.014,0.66-0.017c1.301,0.04,2.604,0.115,3.906,0.224
	c0.198,0.017,0.396,0.035,0.596,0.053c1.179,0.109,2.356,0.249,3.533,0.413c0.24,0.034,0.481,0.063,0.722,0.1
	c0.59,0.089,1.178,0.187,1.767,0.289c0.477,0.083,0.952,0.174,1.427,0.267c0.708,0.137,1.413,0.284,2.118,0.442
	c0.637,0.143,1.273,0.291,1.907,0.45c0.379,0.095,0.758,0.19,1.136,0.291c0.942,0.251,1.881,0.517,2.814,0.804
	c0.207,0.063,0.412,0.132,0.619,0.197c0.941,0.298,1.878,0.611,2.809,0.944c0.104,0.037,0.209,0.072,0.313,0.11
	c1.068,0.388,2.128,0.8,3.18,1.233c0.089,0.037,0.178,0.075,0.268,0.112c2.132,0.889,4.229,1.872,6.283,2.944
	c0.105,0.055,0.211,0.11,0.316,0.166c6.411,3.384,12.399,7.648,17.71,12.694c14.615,13.885,22.663,31.894,22.663,50.71v19.058
	h-93.639c-4.147,0-7.507,3.361-7.507,7.507c0,4.146,3.36,7.507,7.507,7.507h101.147c4.147,0,7.507-3.361,7.507-7.507v-26.565
	c0-23.909-10.793-46.065-27.868-62.105h185.848c4.146,0,7.507-3.361,7.507-7.507v-45.306
	C511.834,360.429,510.532,358.155,508.55,356.803z M252.891,144.94h5.84l7.617,30.028l-10.536,9.645l-10.538-9.645L252.891,144.94z
	 M259.602,129.925h-7.582l-4.248-10.011c0.484-0.066,0.969-0.146,1.454-0.201c0.014-0.001,0.028-0.003,0.042-0.005
	c1.024-0.116,2.05-0.206,3.077-0.275c0.151-0.01,0.301-0.018,0.451-0.027c0.632-0.038,1.264-0.056,1.897-0.076
	c0.221,0.003,0.44,0.017,0.664,0.017h0.906c0.222,0,0.441-0.014,0.664-0.017c0.633,0.02,1.265,0.038,1.898,0.076
	c0.15,0.009,0.3,0.017,0.451,0.027c1.027,0.069,2.054,0.159,3.078,0.275c0.013,0.001,0.026,0.003,0.038,0.005
	c0.487,0.056,0.971,0.135,1.457,0.201L259.602,129.925z M226.846,58.968c26.345-2.846,36.165-21.008,36.165-21.008
	s6.137,16.183,21.766,20.394v17.464c0,15.404-12.281,27.986-27.564,28.488c-0.432-0.013-0.866-0.032-1.298-0.038
	c-0.068-0.001-0.137-0.001-0.205,0c-0.432,0.006-0.866,0.025-1.298,0.038c-15.284-0.503-27.564-13.084-27.564-28.488L226.846,58.968
	L226.846,58.968z M15.178,400.807v-30.291h72.791c4.147,0,7.507-3.361,7.507-7.507c0-4.146-3.36-7.507-7.507-7.507H23.724
	l115.217-137.922h40.553h33.175c4.147,0,7.507-3.361,7.507-7.507c0-4.146-3.36-7.507-7.507-7.507h-25.668v-16.996
	c0-17.193,7.359-33.654,20.721-46.349c7.296-6.932,15.988-12.254,25.291-15.651l6.14,14.469l-9.536,37.59
	c-0.681,2.681,0.168,5.517,2.208,7.384l18.919,17.315c1.434,1.313,3.251,1.969,5.069,1.969c1.818,0,3.635-0.657,5.069-1.97
	l18.918-17.315c2.04-1.867,2.889-4.704,2.208-7.384l-9.535-37.59l6.139-14.469c9.303,3.397,17.994,8.719,25.29,15.651
	c13.363,12.696,20.722,29.156,20.722,46.349v16.996h-86.929c-4.147,0-7.507,3.361-7.507,7.507s3.36,7.507,7.507,7.507h94.436h40.554
	L487.9,355.5H303.147v-31.084v-0.49c0-4.835-0.742-9.499-2.116-13.887h47.206c2.734,0,5.252-1.486,6.573-3.88
	c1.321-2.394,1.236-5.317-0.222-7.63l-43.652-69.268c-1.374-2.182-3.772-3.505-6.351-3.505h-97.546
	c-2.579,0-4.977,1.323-6.351,3.505l-43.653,69.268c-1.458,2.313-1.544,5.235-0.222,7.63c1.32,2.394,3.839,3.88,6.573,3.88h47.777
	c-1.374,4.387-2.116,9.052-2.116,13.887v0.49V355.5H112.99c-4.147,0-7.507,3.361-7.507,7.507c0,4.146,3.36,7.507,7.507,7.507h97.512
	c2.59,10.082,8.487,18.845,16.452,25.083c-4.15,1.458-8.172,3.203-12.039,5.208H15.178V400.807z M257.957,292.44
	c0.158,0.009,0.313,0.024,0.47,0.036c0.48,0.035,0.96,0.078,1.436,0.135c0.141,0.017,0.281,0.035,0.422,0.054
	c0.539,0.072,1.075,0.154,1.607,0.252c0.058,0.011,0.117,0.02,0.175,0.031c8.342,1.595,15.809,6.488,20.674,13.76
	c0.066,0.098,0.143,0.185,0.213,0.279c3.269,5.021,5.178,11.005,5.178,17.43v34.029c0,1.191-0.073,2.396-0.223,3.686
	c0,0.003-0.001,0.006-0.001,0.009c-1.817,15.624-14.971,27.737-30.659,28.301c-0.35-0.009-0.699-0.023-1.05-0.028
	c-0.068-0.001-0.137-0.001-0.205,0c-0.35,0.005-0.7,0.019-1.05,0.028c-15.689-0.565-28.843-12.678-30.66-28.301
	c0-0.003-0.001-0.006-0.002-0.009c-0.15-1.289-0.223-2.495-0.223-3.686v-34.029c0-6.426,1.909-12.412,5.18-17.433
	c0.069-0.094,0.146-0.179,0.211-0.276c4.866-7.271,12.333-12.166,20.677-13.76c0.057-0.011,0.113-0.02,0.17-0.03
	c0.534-0.099,1.071-0.181,1.611-0.253c0.14-0.018,0.279-0.037,0.419-0.053c0.477-0.057,0.957-0.1,1.437-0.135
	c0.156-0.011,0.312-0.027,0.469-0.036c0.618-0.036,1.238-0.058,1.861-0.058C256.72,292.382,257.34,292.404,257.957,292.44z
	 M256.588,277.367h-0.982c-14.759,0-27.927,6.911-36.463,17.659h-42.152l34.191-54.253h89.261l34.19,54.253h-41.581
	C284.515,284.278,271.347,277.367,256.588,277.367z M496.819,400.807H297.277c-3.867-2.005-7.889-3.75-12.04-5.208
	c7.965-6.238,13.863-15.001,16.452-25.082h195.13V400.807z"/>
<g>
</g>
<g>
</g>
<g>
</g>
<g>
</g>
<g>
</g>
<g>
</g>
<g>
</g>
<g>
</g>
<g>
</g>
<g>
</g>
<g>
</g>
<g>
</g>
<g>
</g>
<g>
</g>
<g>
</g>
</svg>
