<?xml version="1.0" encoding="iso-8859-1"?>
<!-- Generator: Adobe Illustrator 19.0.0, SVG Export Plug-In . SVG Version: 6.00 Build 0)  -->
<svg version="1.1" id="Layer_1" xmlns="http://www.w3.org/2000/svg" xmlns:xlink="http://www.w3.org/1999/xlink" x="0px" y="0px"
	 viewBox="0 0 512 512" style="enable-background:new 0 0 512 512;" xml:space="preserve">
<rect x="125.295" y="318.697" style="fill:#EFE7E4;" width="54.188" height="149.138"/>
<rect x="125.295" y="447.014" style="fill:#D8D1D0;" width="54.188" height="20.819"/>
<rect x="7.504" y="304.199" style="fill:#546F7A;" width="117.791" height="178.133"/>
<rect x="7.504" y="461.511" style="fill:#465A65;" width="117.791" height="20.819"/>
<path style="fill:#F7B081;" d="M316.382,338.591v146.927h-42.495c-14.646,0-28.847-5.028-40.23-14.243l-16.909-13.689h-37.262
	v-64.323v-62.016h37.262l11.302-12.238c8.721-9.443,20.99-14.813,33.844-14.813H307.8"/>
<path style="fill:#FFC89F;" d="M300.904,357.918v-1.425c0-9.741,7.897-17.638,17.638-17.638h70.175
	c9.741,0,17.638,7.897,17.638,17.638v1.425c0,9.741-7.897,17.638-17.638,17.638h-70.175
	C308.8,375.556,300.904,367.659,300.904,357.918z"/>
<path style="fill:#F7B081;" d="M388.004,359.942h-68.75c-7.339,0-13.653-4.318-16.589-10.543c-1.119,2.371-1.762,5.011-1.762,7.807
	l0,0c0,10.134,8.216,18.351,18.351,18.351h68.75c10.134,0,18.351-8.216,18.351-18.351l0,0c0-2.796-0.644-5.436-1.762-7.807
	C401.657,355.624,395.343,359.942,388.004,359.942z"/>
<path style="fill:#FFC89F;" d="M300.904,430.608L300.904,430.608c0-10.135,8.216-18.351,18.351-18.351h68.75
	c10.135,0,18.351,8.215,18.351,18.351l0,0c0,10.134-8.215,18.351-18.351,18.351h-68.75
	C309.119,448.959,300.904,440.743,300.904,430.608z"/>
<path style="fill:#F7B081;" d="M388.004,433.344h-68.75c-7.339,0-13.653-4.318-16.589-10.543c-1.119,2.371-1.762,5.012-1.762,7.807
	c0,10.134,8.216,18.351,18.351,18.351h68.75c10.134,0,18.351-8.216,18.351-18.351c0-2.795-0.644-5.436-1.762-7.807
	C401.657,429.026,395.343,433.344,388.004,433.344z"/>
<path style="fill:#FFC89F;" d="M300.904,467.309L300.904,467.309c0-10.134,8.216-18.351,18.351-18.351h49.825
	c10.135,0,18.351,8.215,18.351,18.351l0,0c0,10.135-8.216,18.351-18.351,18.351h-49.825
	C309.119,485.66,300.904,477.444,300.904,467.309z"/>
<path style="fill:#F7B081;" d="M369.079,470.047h-49.825c-7.339,0-13.653-4.318-16.589-10.543c-1.119,2.371-1.762,5.011-1.762,7.807
	c0,10.134,8.216,18.351,18.351,18.351h49.825c10.134,0,18.351-8.216,18.351-18.351c0-2.796-0.643-5.436-1.762-7.807
	C382.733,465.727,376.418,470.047,369.079,470.047z"/>
<path style="fill:#FFC89F;" d="M300.904,394.619v-1.425c0-9.741,7.897-17.638,17.638-17.638h78.657
	c9.741,0,17.638,7.897,17.638,17.638v1.425c0,9.741-7.897,17.638-17.638,17.638h-78.657
	C308.8,412.257,300.904,404.361,300.904,394.619z"/>
<path style="fill:#F7B081;" d="M396.486,396.643h-77.231c-7.339,0-13.653-4.318-16.589-10.543c-1.119,2.371-1.762,5.011-1.762,7.807
	l0,0c0,10.134,8.216,18.351,18.351,18.351h77.231c10.134,0,18.351-8.216,18.351-18.351l0,0c0-2.796-0.643-5.436-1.762-7.807
	C410.139,392.325,403.825,396.643,396.486,396.643z"/>
<path style="fill:#DD9A76;" d="M300.904,467.31c0-10.135,8.216-18.351,18.351-18.351c-10.135,0-18.351-8.216-18.351-18.351
	c0-10.135,8.216-18.351,18.351-18.351c-10.135,0-18.351-8.216-18.351-18.351c0-10.135,8.216-18.351,18.351-18.351
	c-10.135,0-18.351-8.216-18.351-18.351c0-10.135,8.216-18.351,18.351-18.351h-20.819c-10.135,0-18.351,8.216-18.351,18.351
	s8.215,18.351,18.351,18.351c-10.135,0-18.351,8.215-18.351,18.351c0,10.134,8.215,18.351,18.351,18.351
	c-10.135,0-18.351,8.215-18.351,18.351c0,10.134,8.215,18.351,18.351,18.351c-10.135,0-18.351,8.215-18.351,18.351
	c0,10.134,8.215,18.351,18.351,18.351h20.819C309.119,485.661,300.904,477.444,300.904,467.31z"/>
<path style="fill:#FF6137;" d="M362.433,338.855h-44.301c-5.707,0-10.333-4.626-10.333-10.333v-24.326h64.968v24.326
	C372.766,334.229,368.14,338.855,362.433,338.855z"/>
<path style="fill:#F7CB4F;" d="M340.339,304.196h32.488c49.301-53.206,49.301-111.025,49.301-111.025
	c0-55.87-36.618-81.789-81.789-81.789s-81.789,25.919-81.789,81.789c0,0,0,57.818,49.301,111.025H340.339z"/>
<path style="fill:#FBAB00;" d="M340.339,111.383c-3.979,0-7.888,0.212-11.715,0.617c39.619,4.193,70.074,30.223,70.074,81.171
	c0,0,0,57.818-49.301,111.025h23.43c49.301-53.206,49.301-111.025,49.301-111.025C422.128,137.301,385.51,111.383,340.339,111.383z"
	/>
<path d="M380.27,307.17c48.788-54.124,49.362-111.549,49.362-113.997c0-28.375-9.133-51.681-26.41-67.396
	c-15.747-14.324-37.492-21.896-62.883-21.896s-47.136,7.571-62.883,21.896c-17.278,15.716-26.41,39.021-26.41,67.396
	c0,0.39,0.035,9.714,3.072,24.159c1.741,8.284,4.129,16.645,7.097,24.847c1.411,3.897,5.715,5.914,9.609,4.503
	c3.897-1.41,5.913-5.713,4.503-9.609c-2.73-7.546-4.926-15.227-6.523-22.828c-2.686-12.781-2.75-21.005-2.75-21.072
	c0-46.514,27.769-74.285,74.285-74.285s74.285,27.77,74.285,74.285c0,0.54-0.525,53.733-45.112,103.521h-7.084l8.649-71.026
	c0.26-2.132-0.407-4.273-1.831-5.882c-1.424-1.608-3.47-2.528-5.618-2.528h-46.58c-2.148,0-4.193,0.92-5.618,2.528
	c-1.424,1.608-2.091,3.75-1.831,5.882l8.648,71.026h-7.083c-10.821-12.083-19.94-25.367-27.134-39.531
	c-1.877-3.695-6.393-5.168-10.088-3.292c-3.695,1.877-5.169,6.393-3.292,10.088c5.845,11.506,12.883,22.457,20.964,32.733h-29.724
	c-14.901,0-29.245,6.278-39.355,17.227l-9.073,9.824h-26.474v-5.046c0-4.145-3.36-7.504-7.504-7.504h-46.687v-6.998
	c0-4.144-3.36-7.504-7.504-7.504H7.504c-4.144,0-7.504,3.36-7.504,7.504v32.699c0,4.145,3.36,7.504,7.504,7.504
	s7.504-3.359,7.504-7.504V311.7H117.79v6.998V467.83v6.997H15.008V361.906c0-4.145-3.36-7.504-7.504-7.504S0,357.761,0,361.906
	V482.33c0,4.145,3.36,7.504,7.504,7.504h117.79c4.144,0,7.504-3.359,7.504-7.504v-6.997h46.687c4.144,0,7.504-3.36,7.504-7.504
	v-2.74h27.102l14.845,12.018c12.677,10.263,28.641,15.914,44.951,15.914h42.495c0.039,0,0.077-0.005,0.117-0.006
	c0.905,0.096,1.825,0.148,2.755,0.148h49.825c14.256,0,25.854-11.598,25.854-25.854c0-4.019-0.922-7.827-2.565-11.223
	c12.184-2.081,21.49-12.71,21.49-25.478c0-5.22-1.56-10.079-4.23-14.147c7.585-4.334,12.713-12.498,12.713-21.841v-1.426
	c0-9.247-5.021-17.337-12.475-21.704c2.523-3.918,3.994-8.574,3.994-13.571v-1.426c0-13.863-11.279-25.142-25.142-25.142h-8.693
	c0.148-0.924,0.246-1.864,0.246-2.829V307.17H380.27z M171.982,331.246v62.016v67.062h-39.183V326.202h39.183V331.246z
	 M325.523,232.264h29.634l-7.845,64.43h-13.944L325.523,232.264z M295.729,478.014h-21.841c-12.884,0-25.494-4.464-35.509-12.571
	l-16.909-13.69c-1.336-1.082-3.003-1.672-4.721-1.672h-29.759v-56.818v-54.512h29.759c2.094,0,4.092-0.874,5.513-2.413
	l11.301-12.236c7.278-7.881,17.604-12.401,28.331-12.401h38.402v16.823c0,3.125,0.812,6.06,2.23,8.616
	c-5.416,4.493-8.927,11.21-9.109,18.739c-0.269,1.896-2.158,13.638-8.962,25.412c-9.509,16.457-23.883,24.801-42.725,24.801
	c-4.144,0-7.504,3.36-7.504,7.504c0,4.145,3.36,7.504,7.504,7.504c21.722,0,39.447-8.975,51.682-26.042
	c0.117,6.799,2.941,12.949,7.443,17.411c-4.605,4.67-7.455,11.078-7.455,18.14c0,7.169,2.935,13.663,7.662,18.351
	c-4.728,4.687-7.662,11.183-7.662,18.351C293.4,471.127,294.237,474.749,295.729,478.014z M369.079,478.156h-49.825
	c-5.981,0-10.847-4.866-10.847-10.847c0-5.981,4.866-10.848,10.847-10.848h49.825c5.981,0,10.847,4.866,10.847,10.848
	C379.926,473.29,375.061,478.156,369.079,478.156z M388.004,441.455h-18.925h-49.825c-5.981,0-10.847-4.866-10.847-10.847
	c0-5.981,4.866-10.847,10.847-10.847h68.75c5.981,0,10.847,4.866,10.847,10.847C398.851,436.589,393.984,441.455,388.004,441.455z
	 M407.332,393.194v1.426c0,5.588-4.546,10.134-10.134,10.134h-9.195h-68.75h-0.712c-5.588,0-10.134-4.546-10.134-10.134v-1.426
	c0-5.588,4.546-10.134,10.134-10.134h70.176h8.481C402.786,383.06,407.332,387.607,407.332,393.194z M398.851,356.493v1.426
	c0,5.588-4.545,10.133-10.133,10.133h-70.176c-5.588,0-10.134-4.545-10.134-10.133v-1.426c0-5.588,4.546-10.134,10.134-10.134
	h43.892h26.284C394.305,346.359,398.851,350.905,398.851,356.493z M318.541,331.351h-0.41c-1.561,0-2.829-1.269-2.829-2.829V311.7
	h49.961v16.822c0,1.561-1.27,2.829-2.829,2.829H318.541z"/>
<circle cx="88.256" cy="446.483" r="11.106"/>
<path d="M339.612,67.529c4.144,0,7.504-3.359,7.504-7.504V26.34c0-4.145-3.36-7.504-7.504-7.504c-4.144,0-7.504,3.359-7.504,7.504
	v33.685C332.108,64.17,335.468,67.529,339.612,67.529z"/>
<path d="M200.736,91.705l25.082,22.485c1.433,1.284,3.223,1.916,5.007,1.916c2.058,0,4.108-0.842,5.59-2.495
	c2.766-3.086,2.507-7.829-0.578-10.597l-25.082-22.485c-3.087-2.766-7.831-2.507-10.597,0.579
	C197.391,84.195,197.65,88.939,200.736,91.705z"/>
<path d="M270.371,77.469c1.291,2.69,3.975,4.262,6.773,4.262c1.088,0,2.192-0.237,3.239-0.739c3.737-1.791,5.314-6.273,3.523-10.01
	l-14.561-30.374c-1.792-3.736-6.271-5.316-10.01-3.522c-3.737,1.791-5.315,6.272-3.523,10.01L270.371,77.469z"/>
<path d="M172.076,153.476l25.719,9.725c0.874,0.33,1.771,0.486,2.652,0.486c3.031,0,5.885-1.85,7.021-4.853
	c1.466-3.876-0.488-8.207-4.365-9.673l-25.719-9.725c-3.877-1.467-8.207,0.488-9.673,4.365
	C166.245,147.679,168.199,152.011,172.076,153.476z"/>
<path d="M479.066,81.11c-2.767-3.089-7.511-3.345-10.597-0.579l-25.081,22.485c-3.086,2.767-3.345,7.511-0.578,10.597
	c1.483,1.654,3.532,2.495,5.59,2.495c1.784,0,3.574-0.632,5.007-1.916l25.081-22.485C481.573,88.939,481.833,84.195,479.066,81.11z"
	/>
<path d="M398.841,80.991c1.047,0.502,2.151,0.739,3.239,0.739c2.797,0,5.482-1.571,6.772-4.262l14.561-30.374
	c1.792-3.737,0.214-8.219-3.523-10.01c-3.739-1.794-8.219-0.214-10.01,3.522l-14.561,30.374
	C393.527,74.718,395.104,79.2,398.841,80.991z"/>
<path d="M511.513,143.803c-1.466-3.876-5.796-5.831-9.672-4.365l-25.72,9.725c-3.877,1.466-5.831,5.797-4.365,9.673
	c1.136,3.003,3.989,4.853,7.021,4.853c0.881,0,1.779-0.156,2.652-0.486l25.72-9.725
	C511.025,152.011,512.979,147.679,511.513,143.803z"/>
<g>
</g>
<g>
</g>
<g>
</g>
<g>
</g>
<g>
</g>
<g>
</g>
<g>
</g>
<g>
</g>
<g>
</g>
<g>
</g>
<g>
</g>
<g>
</g>
<g>
</g>
<g>
</g>
<g>
</g>
</svg>
