<?xml version="1.0" encoding="iso-8859-1"?>
<!-- Generator: Adobe Illustrator 19.0.0, SVG Export Plug-In . SVG Version: 6.00 Build 0)  -->
<svg version="1.1" id="Layer_1" xmlns="http://www.w3.org/2000/svg" xmlns:xlink="http://www.w3.org/1999/xlink" x="0px" y="0px"
	 viewBox="0 0 512 512" style="enable-background:new 0 0 512 512;" xml:space="preserve">
<polygon style="fill:#68B9D8;" points="52.729,192.467 52.729,504.488 459.27,504.488 459.27,87.753 369.073,50.975 368.086,50.975 
	316.271,133.941 304.282,121.69 280.467,149.556 328.377,396.074 255.999,466.288 183.621,396.074 231.532,149.556 207.717,121.69 
	195.728,133.941 143.913,50.975 142.925,50.975 52.729,87.753 52.729,167.427 "/>
<polygon style="fill:#3695B2;" points="439.237,79.585 439.237,504.488 459.27,504.488 459.27,87.753 "/>
<polygon style="fill:#D3333C;" points="255.999,72.353 304.282,121.69 280.467,149.556 255.999,149.556 231.532,149.556 
	207.717,121.69 "/>
<polygon style="fill:#7F1B20;" points="292.406,109.555 260.434,149.556 280.467,149.556 304.282,121.69 "/>
<polygon style="fill:#F2464F;" points="205.853,281.684 183.621,396.074 255.999,466.288 328.377,396.074 280.467,149.556 
	255.999,149.556 231.532,149.556 210.333,258.631 "/>
<polygon style="fill:#D3333C;" points="280.467,149.556 260.434,149.556 308.344,396.074 245.983,456.571 255.999,466.288 
	328.377,396.074 "/>
<g>
	<polygon style="fill:#3695B2;" points="195.728,133.941 142.925,49.393 159.675,7.512 255.999,72.353 	"/>
	<polygon style="fill:#3695B2;" points="316.271,133.941 369.074,49.393 352.324,7.512 255.999,72.353 	"/>
</g>
<polygon style="fill:#376072;" points="352.324,7.512 159.675,7.512 255.999,72.353 "/>
<path d="M462.107,80.797l-86.487-35.266L359.3,4.723c-0.052-0.129-0.117-0.251-0.176-0.377c-0.039-0.083-0.075-0.168-0.116-0.249
	c-0.16-0.314-0.338-0.615-0.539-0.9c-0.038-0.054-0.081-0.102-0.121-0.155c-0.174-0.234-0.362-0.458-0.562-0.669
	c-0.068-0.072-0.136-0.144-0.207-0.213c-0.235-0.231-0.482-0.451-0.746-0.649c-0.016-0.012-0.03-0.026-0.047-0.038
	c-0.28-0.206-0.579-0.388-0.886-0.555c-0.086-0.046-0.173-0.088-0.26-0.131c-0.249-0.122-0.505-0.231-0.768-0.327
	c-0.079-0.029-0.156-0.062-0.236-0.088c-0.033-0.011-0.064-0.026-0.096-0.036c-0.306-0.094-0.615-0.163-0.926-0.217
	c-0.075-0.013-0.152-0.019-0.228-0.03c-0.3-0.043-0.599-0.067-0.9-0.073C352.43,0.012,352.378,0,352.324,0h-192.65
	c-0.058,0-0.114,0.013-0.172,0.014c-0.291,0.007-0.582,0.03-0.871,0.071c-0.083,0.012-0.166,0.018-0.247,0.032
	c-0.31,0.054-0.617,0.122-0.921,0.216c-0.033,0.01-0.064,0.025-0.096,0.036c-0.08,0.026-0.157,0.059-0.236,0.088
	c-0.263,0.095-0.52,0.204-0.768,0.327c-0.087,0.043-0.174,0.085-0.26,0.131c-0.308,0.166-0.607,0.348-0.886,0.555
	c-0.016,0.012-0.031,0.026-0.047,0.038c-0.264,0.198-0.511,0.418-0.746,0.649c-0.071,0.07-0.139,0.141-0.207,0.213
	c-0.199,0.212-0.388,0.435-0.562,0.669c-0.039,0.053-0.083,0.101-0.121,0.155c-0.2,0.285-0.378,0.587-0.539,0.9
	c-0.042,0.082-0.078,0.166-0.116,0.249c-0.059,0.126-0.124,0.247-0.176,0.377L136.379,45.53L49.892,80.797
	c-2.828,1.153-4.676,3.902-4.676,6.956v79.673c0,4.149,3.364,7.512,7.512,7.512s7.512-3.364,7.512-7.512V92.803l80.45-32.806
	l48.665,77.922c1.22,1.954,3.27,3.24,5.561,3.489c0.27,0.029,0.542,0.044,0.811,0.044c0.008,0,0.016-0.001,0.024-0.001
	c0.064,0,0.127-0.008,0.191-0.01c0.204-0.006,0.409-0.016,0.611-0.038c0.098-0.011,0.194-0.029,0.291-0.044
	c0.167-0.025,0.333-0.052,0.497-0.088c0.105-0.023,0.208-0.052,0.313-0.079c0.154-0.041,0.307-0.085,0.458-0.135
	c0.104-0.035,0.207-0.073,0.311-0.112c0.147-0.057,0.292-0.118,0.437-0.184c0.099-0.046,0.198-0.091,0.295-0.141
	c0.145-0.074,0.286-0.156,0.427-0.239c0.089-0.053,0.179-0.104,0.266-0.162c0.15-0.098,0.294-0.206,0.438-0.316
	c0.07-0.054,0.143-0.103,0.211-0.159c0.208-0.171,0.41-0.353,0.6-0.547l6.244-6.38l16.124,18.867L202.96,257.199
	c-0.791,4.073,1.868,8.015,5.942,8.807c0.249,0.048,0.498,0.083,0.745,0.106c0.071,0.007,0.142,0.006,0.213,0.01
	c0.161,0.01,0.323,0.023,0.483,0.023c0.015,0,0.03-0.002,0.044-0.002c0.064,0,0.128-0.006,0.192-0.008
	c0.171-0.006,0.342-0.014,0.511-0.031c0.085-0.008,0.168-0.022,0.251-0.033c0.146-0.02,0.292-0.042,0.437-0.07
	c0.091-0.018,0.18-0.039,0.269-0.06c0.135-0.032,0.269-0.066,0.402-0.105c0.091-0.027,0.181-0.055,0.271-0.085
	c0.129-0.043,0.255-0.091,0.382-0.141c0.088-0.035,0.176-0.069,0.262-0.108c0.125-0.055,0.247-0.116,0.37-0.178
	c0.082-0.042,0.164-0.081,0.244-0.125c0.131-0.073,0.258-0.153,0.385-0.233c0.065-0.042,0.132-0.079,0.196-0.123
	c0.183-0.125,0.362-0.257,0.534-0.399c0.057-0.047,0.111-0.099,0.167-0.148c0.115-0.1,0.23-0.2,0.34-0.308
	c0.067-0.066,0.129-0.136,0.194-0.204c0.092-0.098,0.184-0.195,0.271-0.298c0.064-0.076,0.124-0.154,0.186-0.232
	c0.08-0.103,0.159-0.207,0.234-0.316c0.058-0.082,0.113-0.166,0.167-0.251c0.072-0.112,0.14-0.226,0.206-0.343
	c0.049-0.086,0.097-0.172,0.143-0.26c0.064-0.124,0.123-0.251,0.18-0.381c0.038-0.086,0.078-0.171,0.113-0.258
	c0.058-0.145,0.109-0.293,0.158-0.444c0.025-0.077,0.055-0.152,0.078-0.23c0.068-0.23,0.127-0.465,0.174-0.705l20.017-102.996
	h36.549l45.952,236.446l-64.228,62.306l-64.228-62.306l21.455-110.397c0.099-0.509,0.144-1.016,0.139-1.516
	c-0.034-3.494-2.516-6.6-6.08-7.292c-4.073-0.79-8.015,1.869-8.807,5.942l-22.232,114.391c-0.484,2.491,0.323,5.058,2.144,6.825
	l72.378,70.213c1.457,1.413,3.343,2.121,5.231,2.121c1.887,0,3.774-0.707,5.231-2.121l72.378-70.213
	c1.821-1.767,2.627-4.334,2.144-6.825l-47.219-242.96l3.15-3.686l12.974-15.18l6.244,6.38c0.19,0.195,0.393,0.377,0.601,0.547
	c0.067,0.055,0.138,0.103,0.207,0.156c0.144,0.11,0.289,0.219,0.441,0.319c0.087,0.057,0.177,0.108,0.267,0.162
	c0.139,0.083,0.279,0.164,0.424,0.238c0.099,0.051,0.199,0.098,0.302,0.144c0.14,0.064,0.281,0.124,0.426,0.18
	c0.107,0.042,0.215,0.081,0.325,0.118c0.143,0.048,0.288,0.09,0.435,0.129c0.112,0.03,0.223,0.061,0.337,0.085
	c0.151,0.033,0.303,0.057,0.457,0.081c0.111,0.017,0.22,0.038,0.333,0.05c0.18,0.02,0.362,0.027,0.544,0.034
	c0.085,0.003,0.169,0.013,0.254,0.013c0.006,0,0.012,0.001,0.018,0.001c0.269,0,0.541-0.015,0.811-0.044
	c2.291-0.248,4.34-1.535,5.561-3.489l48.665-77.924l80.451,32.805v284.001c0,4.149,3.364,7.512,7.512,7.512s7.512-3.364,7.512-7.512
	V87.753C466.782,84.7,464.934,81.95,462.107,80.797z M314.959,121.859l-5.308-5.424l-41.972-42.888l26.889-18.101l54.235-36.508
	l11.881,29.707L314.959,121.859z M151.315,48.645l11.881-29.706l54.235,36.508l26.889,18.101l-8.654,8.844l-38.626,39.469
	L151.315,48.645z M234.993,142.043l-4.465-5.225l-12.637-14.786l12.392-12.664l25.715-26.276l6.756,6.904l31.352,32.036
	l-17.102,20.01h-42.011V142.043z M327.712,15.025L256,63.297l-71.713-48.272H327.712z"/>
<path d="M459.27,394.333c-4.149,0-7.512,3.364-7.512,7.512v95.131H60.241V192.467c0-4.149-3.364-7.512-7.512-7.512
	s-7.512,3.364-7.512,7.512v312.021c0,4.149,3.364,7.512,7.512,7.512h406.542c4.149,0,7.512-3.363,7.512-7.512V401.845
	C466.782,397.696,463.419,394.333,459.27,394.333z"/>
<g>
</g>
<g>
</g>
<g>
</g>
<g>
</g>
<g>
</g>
<g>
</g>
<g>
</g>
<g>
</g>
<g>
</g>
<g>
</g>
<g>
</g>
<g>
</g>
<g>
</g>
<g>
</g>
<g>
</g>
</svg>
