<?xml version="1.0" encoding="iso-8859-1"?>
<!-- Generator: Adobe Illustrator 19.0.0, SVG Export Plug-In . SVG Version: 6.00 Build 0)  -->
<svg version="1.1" id="Layer_1" xmlns="http://www.w3.org/2000/svg" xmlns:xlink="http://www.w3.org/1999/xlink" x="0px" y="0px"
	 viewBox="0 0 512.001 512.001" style="enable-background:new 0 0 512.001 512.001;" xml:space="preserve">
<rect x="173.408" y="249.016" style="fill:#465A65;" width="165.403" height="255.468"/>
<rect x="173.408" y="249.016" style="fill:#2E3C42;" width="165.403" height="20.037"/>
<rect x="153.111" y="210.305" style="fill:#546F7A;" width="205.216" height="38.707"/>
<path style="fill:#68B9D8;" d="M90.377,504.485H7.565v-26.587c0-43.7,39.115-79.473,82.812-80.071
	c43.696,0.598,82.812,36.371,82.812,80.071v26.587H90.377z"/>
<path style="fill:#3695B2;" d="M90.377,397.828c-3.372,0.046-6.716,0.304-10.018,0.755c39.482,5.412,72.793,38.987,72.793,79.315
	v26.587h20.037v-26.587C173.189,434.198,134.073,398.426,90.377,397.828z"/>
<g>
	<path style="fill:#68B9D8;" d="M256.001,504.485h-82.812v-26.587c0-43.7,39.115-79.473,82.812-80.071
		c43.696,0.598,82.812,36.371,82.812,80.071v26.587H256.001z"/>
	<path style="fill:#68B9D8;" d="M255.715,210.307h-76.381v-24.523c0-40.307,36.078-73.302,76.381-73.853
		c40.304,0.551,76.381,33.546,76.381,73.853v24.523H255.715z"/>
</g>
<path style="fill:#3695B2;" d="M255.715,111.932c-3.377,0.046-6.719,0.34-10.018,0.827c36.073,5.325,66.363,36.097,66.363,73.027
	v24.523h20.037v-24.523C332.096,145.478,296.018,112.483,255.715,111.932z"/>
<path style="fill:#FFC89F;" d="M255.715,111.932L255.715,111.932c20.077,0,36.503-16.426,36.503-36.503V44.017
	c0-20.077-16.426-36.503-36.503-36.503l0,0c-20.077,0-36.503,16.426-36.503,36.503v31.412
	C219.211,95.505,235.638,111.932,255.715,111.932z"/>
<path style="fill:#F7B081;" d="M255.715,7.514L255.715,7.514c-3.472,0-6.831,0.502-10.018,1.418
	c15.244,4.383,26.485,18.48,26.485,35.085v31.412c0,16.604-11.241,30.702-26.485,35.085c3.188,0.917,6.546,1.419,10.018,1.419l0,0
	c20.077,0,36.503-16.426,36.503-36.503V44.017C292.218,23.94,275.792,7.514,255.715,7.514z"/>
<g>
	<path style="fill:#353535;" d="M89.886,397.895h0.982c21.496,0,39.085-17.588,39.085-39.085v-35.038
		c0-21.496-17.588-39.085-39.085-39.085h-0.982c-21.496,0-39.085,17.588-39.085,39.085v35.038
		C50.802,380.307,68.39,397.895,89.886,397.895z"/>
	<path style="fill:#353535;" d="M255.51,397.895h0.982c21.496,0,39.086-17.588,39.086-39.085v-35.038
		c0-21.496-17.588-39.085-39.086-39.085h-0.982c-21.497,0-39.086,17.588-39.086,39.085v35.038
		C216.424,380.307,234.012,397.895,255.51,397.895z"/>
	<path style="fill:#353535;" d="M421.132,397.895h0.982c21.496,0,39.085-17.588,39.085-39.085v-35.038
		c0-21.496-17.588-39.085-39.085-39.085h-0.982c-21.496,0-39.085,17.588-39.085,39.085v35.038
		C382.046,380.307,399.636,397.895,421.132,397.895z"/>
</g>
<g>
	<path style="fill:#232323;" d="M90.868,284.688h-0.982c-3.284,0-6.475,0.415-9.527,1.187c16.931,4.282,29.558,19.685,29.558,37.898
		v35.038c0,18.213-12.627,33.616-29.558,37.898c3.053,0.772,6.243,1.187,9.527,1.187h0.982c21.496,0,39.086-17.588,39.086-39.085
		v-35.038C129.954,302.276,112.365,284.688,90.868,284.688z"/>
	<path style="fill:#232323;" d="M256.491,284.688h-0.982c-3.284,0-6.475,0.415-9.527,1.187
		c16.931,4.282,29.557,19.685,29.557,37.898v35.038c0,18.213-12.627,33.616-29.557,37.898c3.053,0.772,6.243,1.187,9.527,1.187
		h0.982c21.496,0,39.085-17.588,39.085-39.085v-35.038C295.576,302.276,277.988,284.688,256.491,284.688z"/>
	<path style="fill:#232323;" d="M422.114,284.688h-0.982c-3.284,0-6.475,0.415-9.527,1.187
		c16.931,4.282,29.558,19.685,29.558,37.898v35.038c0,18.213-12.627,33.616-29.558,37.898c3.053,0.772,6.243,1.187,9.527,1.187
		h0.982c21.496,0,39.085-17.588,39.085-39.085v-35.038C461.199,302.276,443.611,284.688,422.114,284.688z"/>
</g>
<path style="fill:#68B9D8;" d="M421.623,504.485h-82.812v-26.587c0-43.7,39.115-79.473,82.812-80.071
	c43.696,0.598,82.812,36.371,82.812,80.071v26.587H421.623z"/>
<g>
	<path style="fill:#3695B2;" d="M256.001,397.828c-3.372,0.046-6.716,0.304-10.018,0.755c39.481,5.412,72.793,38.987,72.793,79.315
		v26.587h20.037v-26.587C338.811,434.198,299.697,398.426,256.001,397.828z"/>
	<path style="fill:#3695B2;" d="M421.623,397.828c-3.372,0.046-6.716,0.304-10.018,0.755c39.482,5.412,72.793,38.987,72.793,79.315
		v26.587h20.037v-26.587C504.435,434.198,465.319,398.426,421.623,397.828z"/>
</g>
<path style="fill:#D3333C;" d="M264.482,137.609h-8.768h-8.768l-9.805-23.108c6.004-1.593,12.236-2.483,18.573-2.57
	c6.337,0.087,12.569,0.977,18.573,2.57L264.482,137.609z"/>
<polygon style="fill:#F2464F;" points="255.715,195.013 236.78,177.684 246.947,137.609 255.715,137.609 264.482,137.609 
	274.649,177.684 "/>
<path d="M450.787,395.503c10.9-8.537,17.926-21.805,17.926-36.692v-35.038c0-25.695-20.904-46.599-46.599-46.599h-0.981
	c-25.694,0-46.599,20.904-46.599,46.599v35.038c0,14.886,7.026,28.156,17.925,36.692c-18.897,6.641-35.143,19.219-46.134,35.198
	V256.528h11.995c4.151,0,7.514-3.364,7.514-7.514v-38.707c0-4.15-3.363-7.514-7.514-7.514h-18.711v-17.009
	c0-34.235-23.791-64.598-56.074-76.276c9.878-8.079,16.196-20.354,16.196-34.08V44.017C299.732,19.745,279.985,0,255.714,0
	c-24.271,0-44.017,19.745-44.017,44.017v31.413c0,13.726,6.319,26.002,16.196,34.08c-32.283,11.677-56.075,42.041-56.075,76.276
	v17.009h-18.711c-4.151,0-7.514,3.364-7.514,7.514v38.707c0,4.15,3.363,7.514,7.514,7.514h12.79v174.497
	c-10.993-16.134-27.332-28.836-46.356-35.522c10.9-8.537,17.926-21.805,17.926-36.692v-35.038c0-25.695-20.904-46.599-46.599-46.599
	h-0.982c-25.694,0-46.598,20.904-46.598,46.599v35.038c0,14.887,7.025,28.156,17.925,36.692
	c-35.16,12.358-61.16,45.267-61.16,82.396v26.588c0,4.15,3.363,7.514,7.514,7.514h36.941c4.15,0,7.514-3.364,7.514-7.514
	c0-4.15-3.364-7.514-7.514-7.514H15.08V477.9c0-18.832,8.055-36.856,22.682-50.752c13.984-13.286,32.651-21.159,51.406-21.756
	c0.24,0.004,0.478,0.018,0.718,0.018h0.982c0.241,0,0.479-0.015,0.718-0.018c18.755,0.597,37.424,8.47,51.407,21.756
	c14.627,13.896,22.682,31.92,22.682,50.752v19.074H69.553c-4.151,0-7.514,3.364-7.514,7.514c0,4.15,3.363,7.514,7.514,7.514h103.636
	h0.223h39.044c4.151,0,7.514-3.364,7.514-7.514c0-4.15-3.363-7.514-7.514-7.514h-31.53v-24.202
	c1.324-16.954,9.166-32.995,22.458-45.624c13.984-13.286,32.651-21.159,51.406-21.756c0.24,0.004,0.478,0.018,0.719,0.018h0.982
	c0.241,0,0.479-0.015,0.718-0.018c18.755,0.597,37.424,8.47,51.407,21.756c14.627,13.896,22.682,31.92,22.682,50.752v19.074h-93.797
	c-4.151,0-7.514,3.364-7.514,7.514c0,4.15,3.363,7.514,7.514,7.514h101.31h37.293c4.151,0,7.514-3.364,7.514-7.514
	c0-4.15-3.363-7.514-7.514-7.514h-29.78V477.9c0-18.832,8.055-36.856,22.682-50.752c13.984-13.286,32.651-21.159,51.406-21.756
	c0.24,0.004,0.478,0.018,0.719,0.018h0.981c0.241,0,0.479-0.015,0.718-0.018c18.756,0.597,37.424,8.47,51.407,21.756
	c14.627,13.896,22.682,31.92,22.682,50.752v19.074h-95.771c-4.151,0-7.514,3.364-7.514,7.514c0,4.15,3.363,7.514,7.514,7.514
	h103.286c4.151,0,7.514-3.364,7.514-7.514V477.9C511.948,440.77,485.949,407.859,450.787,395.503z M58.315,358.81v-35.038
	c0-17.408,14.163-31.572,31.571-31.572h0.982c17.409,0,31.572,14.163,31.572,31.572v35.038c0,17.039-13.571,30.961-30.472,31.544
	c-0.496-0.015-0.991-0.032-1.489-0.039c-0.068-0.001-0.137-0.001-0.205,0c-0.497,0.007-0.993,0.024-1.488,0.039
	C71.886,389.771,58.315,375.85,58.315,358.81z M252.793,145.123h5.844l7.624,30.053l-10.546,9.653l-10.545-9.653L252.793,145.123z
	 M259.508,130.095h-7.587l-4.252-10.019c0.485-0.066,0.969-0.145,1.455-0.201c0.014-0.002,0.029-0.004,0.043-0.005
	c1.025-0.116,2.052-0.205,3.08-0.276c0.15-0.01,0.3-0.018,0.45-0.027c1.006-0.061,2.012-0.105,3.018-0.121
	c1.006,0.015,2.012,0.06,3.018,0.121c0.15,0.009,0.3,0.017,0.45,0.027c1.029,0.069,2.056,0.159,3.082,0.276
	c0.012,0.001,0.025,0.003,0.037,0.005c0.488,0.055,0.973,0.135,1.459,0.201L259.508,130.095z M226.726,59.291
	c26.227-3.007,36.015-21.112,36.015-21.112s6.191,16.329,21.964,20.551v16.7c0,15.985-13.004,28.989-28.99,28.989
	c-15.984,0-28.989-13.004-28.989-28.989L226.726,59.291L226.726,59.291z M186.847,185.784c0-17.208,7.366-33.682,20.738-46.388
	c7.301-6.938,16-12.263,25.311-15.664l6.145,14.482l-9.544,37.621c-0.681,2.682,0.168,5.522,2.21,7.391l18.934,17.33
	c1.436,1.314,3.254,1.971,5.073,1.971c1.818,0,3.638-0.657,5.072-1.971l18.935-17.33c2.042-1.868,2.891-4.708,2.21-7.391
	l-9.544-37.621l6.144-14.482c9.311,3.4,18.009,8.726,25.311,15.664c13.374,12.706,20.738,29.18,20.738,46.388v17.009H186.847
	V185.784z M223.938,358.81v-35.038c0-17.408,14.163-31.572,31.572-31.572h0.982c17.409,0,31.572,14.163,31.572,31.572v35.038
	c0,17.039-13.571,30.961-30.472,31.544c-0.496-0.015-0.991-0.032-1.488-0.039c-0.068-0.001-0.137-0.001-0.205,0
	c-0.497,0.007-0.992,0.024-1.488,0.039C237.509,389.771,223.938,375.85,223.938,358.81z M285.165,395.503
	c10.9-8.537,17.925-21.805,17.925-36.692v-35.038c0-25.695-20.904-46.599-46.599-46.599h-0.982
	c-25.695,0-46.599,20.904-46.599,46.599v35.038c0,14.886,7.025,28.156,17.925,36.692c-18.768,6.596-34.924,19.048-45.91,34.874
	V256.528h25.762h0.001c4.151,0,7.514-3.364,7.514-7.514s-3.363-7.514-7.514-7.514h-0.001H173.41h-12.79v-23.679h18.711h152.762
	h18.711V241.5h-11.993H231.735c-4.151,0-7.514,3.364-7.514,7.514s3.363,7.514,7.514,7.514h99.563V430.7
	C320.307,414.721,304.062,402.144,285.165,395.503z M389.561,358.81v-35.038c0-17.408,14.163-31.572,31.572-31.572h0.981
	c17.409,0,31.572,14.163,31.572,31.572v35.038c0,17.039-13.571,30.961-30.472,31.544c-0.496-0.015-0.991-0.032-1.488-0.039
	c-0.068-0.001-0.137-0.001-0.205,0c-0.497,0.007-0.992,0.024-1.488,0.039C403.132,389.771,389.561,375.85,389.561,358.81z"/>
<g>
</g>
<g>
</g>
<g>
</g>
<g>
</g>
<g>
</g>
<g>
</g>
<g>
</g>
<g>
</g>
<g>
</g>
<g>
</g>
<g>
</g>
<g>
</g>
<g>
</g>
<g>
</g>
<g>
</g>
</svg>
