<?xml version="1.0" encoding="iso-8859-1"?>
<!-- Generator: Adobe Illustrator 19.0.0, SVG Export Plug-In . SVG Version: 6.00 Build 0)  -->
<svg version="1.1" id="Layer_1" xmlns="http://www.w3.org/2000/svg" xmlns:xlink="http://www.w3.org/1999/xlink" x="0px" y="0px"
	 viewBox="0 0 512 512" style="enable-background:new 0 0 512 512;" xml:space="preserve">
<path style="fill:#FFC89F;" d="M125.843,385.988v-19.953c0-12.623-10.233-22.857-22.857-22.857l0,0v75.073
	c0,8.542,3.569,16.695,9.844,22.49l8.133,7.511v20.123h41.212h42.744v-20.123l9.097-11.237c6.124-7.565,9.465-17.003,9.465-26.735
	v-24.165L125.843,385.988z"/>
<path style="fill:#F7B081;" d="M125.843,385.988v-19.953c0-12.623-10.233-22.857-22.857-22.857v19.96
	c12.623,0,22.857,10.233,22.857,22.857l0,0c0,11.024,8.929,19.965,19.953,19.979l77.686,0.102v-19.96L125.843,385.988z"/>
<path style="fill:#FFC89F;" d="M448.271,307.036l-11.237-9.098c-7.565-6.124-17.002-9.465-26.735-9.465h-24.165v97.639l0,0h-20.08
	c-12.623,0-22.857,10.233-22.857,22.857h75.074c8.542,0,16.695-3.569,22.49-9.844l7.51-8.133h20.123V349.78v-42.744H448.271z"/>
<g>
	<path style="fill:#F7B081;" d="M386.014,386.112h-19.96c-12.623,0-22.857,10.233-22.857,22.857h19.96
		C363.158,396.345,373.391,386.112,386.014,386.112z"/>
	<path style="fill:#F7B081;" d="M406.095,288.473h-19.96v97.639l0,0c11.024,0,19.96-8.936,19.96-19.96V288.473z"/>
</g>
<rect x="112.622" y="468.37" style="fill:#EFE7E4;" width="99.109" height="36.117"/>
<rect x="191.771" y="468.37" style="fill:#D8D1D0;" width="19.96" height="36.117"/>
<polygon style="fill:#EFE7E4;" points="504.515,374.728 504.515,399.332 468.394,399.332 468.394,300.227 504.515,300.227 
	504.515,349.78 "/>
<rect x="468.39" y="379.371" style="fill:#D8D1D0;" width="36.117" height="19.96"/>
<path style="fill:#68B9D8;" d="M125.899,385.988h130.097v-52.041c4.147,6.067,11.05,10.05,18.953,10.05
	c12.715,0,23.023-10.308,23.023-23.023c0-12.715-10.308-23.023-23.023-23.023c-7.903,0-14.806,3.983-18.953,10.05v-52.041h-51.843
	c5.916,4.167,9.784,11.045,9.784,18.831c0,12.715-10.308,23.023-23.023,23.023s-23.023-10.308-23.023-23.023
	c0-7.786,3.869-14.664,9.784-18.831h-51.776C125.899,255.958,125.899,385.988,125.899,385.988z"/>
<path style="fill:#F2464F;" d="M255.995,307.734c4.167-5.916,11.111-9.784,18.898-9.784c12.715,0,23.023,10.308,23.023,23.023
	c0,12.715-10.308,23.023-23.023,23.023c-7.786,0-14.731-3.869-18.898-9.784v51.776h130.097v-130.03h-52.042
	c6.067-4.147,10.05-11.116,10.05-19.019c0-12.715-10.308-23.023-23.023-23.023s-23.023,10.308-23.023,23.023
	c0,7.903,3.983,14.873,10.05,19.019h-52.108V307.734z"/>
<rect x="366.128" y="255.961" style="fill:#D3333C;" width="19.96" height="130.026"/>
<path style="fill:#F7CB4F;" d="M307.839,255.958c-5.916-4.167-9.784-11.045-9.784-18.831c0-12.715,10.308-23.023,23.023-23.023
	c12.715,0,23.023,10.308,23.023,23.023c0,7.786-3.869,14.664-9.784,18.831h51.776v-130.03H255.995v52.041
	c-4.147-6.067-11.05-10.05-18.953-10.05c-12.715,0-23.023,10.308-23.023,23.023s10.308,23.023,23.023,23.023
	c7.903,0,14.806-3.983,18.953-10.05v52.041L307.839,255.958L307.839,255.958z"/>
<rect x="366.128" y="125.925" style="fill:#FFAE47;" width="19.96" height="130.026"/>
<path style="fill:#546F7A;" d="M255.995,204.182c-4.167,5.916-11.112,9.784-18.898,9.784c-12.715,0-23.023-10.308-23.023-23.023
	c0-12.715,10.308-23.023,23.023-23.023c7.786,0,14.731,3.868,18.898,9.784v-51.776H125.899v130.03h52.04
	c-6.067,4.146-10.05,11.116-10.05,19.019c0,12.715,10.308,23.023,23.023,23.023c12.715,0,23.023-10.308,23.023-23.023
	c0-7.903-3.983-14.873-10.05-19.019h52.108V204.182z"/>
<rect x="7.485" y="112.662" style="fill:#EFE7E4;" width="36.117" height="99.109"/>
<rect x="7.485" y="191.811" style="fill:#D8D1D0;" width="36.117" height="19.96"/>
<path style="fill:#FFC89F;" d="M93.729,103.031c-8.542,0-16.695,3.569-22.49,9.844l-7.511,8.133H43.606v41.212v42.745h20.123
	l11.237,9.098c7.565,6.124,17.002,9.465,26.735,9.465h24.165v-97.639l-0.022,0.025v-0.025h0.022h20.08
	c12.623,0,22.857-10.233,22.857-22.857L93.729,103.031L93.729,103.031z"/>
<g>
	<path style="fill:#F7B081;" d="M125.859,125.894l-0.017,0.019v-0.018c-11.024,0.078-19.938,26.343-19.938,37.384v60.248h19.96
		v-97.633C125.863,125.894,125.861,125.894,125.859,125.894z"/>
	<path style="fill:#F7B081;" d="M148.843,103.031c0,12.623-10.233,22.857-22.857,22.857h19.96c12.623,0,22.857-10.233,22.857-22.857
		H148.843z"/>
</g>
<rect x="300.331" y="7.504" style="fill:#EFE7E4;" width="99.109" height="36.117"/>
<rect x="379.481" y="7.504" style="fill:#D8D1D0;" width="19.96" height="36.117"/>
<path style="fill:#FFC89F;" d="M409.076,93.748c0-8.542-3.569-16.695-9.844-22.49l-8.133-7.511V43.625h-41.212h-42.745v20.123
	l-9.098,11.237c-6.124,7.565-9.465,17.002-9.465,26.735v24.165h97.639l-0.025-0.022h0.025v0.022v20.08
	c0,12.623,10.233,22.857,22.857,22.857V93.748H409.076z"/>
<g>
	<path style="fill:#F7B081;" d="M386.213,125.878l-0.018-0.017h0.018c-0.078-11.024-26.343-19.938-37.384-19.938h-60.248v19.96
		h97.633C386.213,125.882,386.213,125.88,386.213,125.878z"/>
	<path style="fill:#F7B081;" d="M409.076,148.862c-12.623,0-22.857-10.233-22.857-22.857v19.96
		c0,12.623,10.233,22.857,22.857,22.857L409.076,148.862L409.076,148.862z"/>
</g>
<path d="M504.515,357.265c4.135,0,7.485-3.351,7.485-7.485v-49.553c0-4.134-3.35-7.485-7.485-7.485h-36.12
	c-3.906,0-7.109,2.992-7.451,6.808h-10.023l-9.177-7.43c-8.869-7.178-20.035-11.132-31.444-11.132h-16.723v-25.029v-36.307
	c0-4.135-3.35-7.485-7.485-7.485c-4.135,0-7.485,3.35-7.485,7.485v28.823h-29.219c1.432-3.564,2.197-7.409,2.197-11.346
	c0-0.031-0.002-0.062-0.003-0.092c0-0.032,0.003-0.064,0.003-0.096c0-16.822-13.685-30.508-30.507-30.508
	c-16.822,0-30.508,13.686-30.508,30.508c0,0.032,0.002,0.064,0.002,0.096c0,0.031-0.002,0.062-0.002,0.093
	c0,3.937,0.765,7.782,2.197,11.346h-29.286v-44.292v-0.264c0-3.282-2.138-6.181-5.274-7.15c-3.137-0.972-6.538,0.218-8.389,2.927
	c-2.9,4.24-7.66,6.775-12.74,6.787c-8.559-0.012-15.519-6.977-15.519-15.536c0-8.562,6.959-15.527,15.519-15.537
	c5.08,0.012,9.84,2.546,12.74,6.787c1.851,2.71,5.257,3.897,8.389,2.927c3.137-0.969,5.274-3.868,5.274-7.15v-0.264v-44.292h115.127
	v61.291c0,4.135,3.35,7.485,7.485,7.485c4.135,0,7.485-3.35,7.485-7.485v-22.668c4.54,2.709,9.839,4.27,15.499,4.27
	c4.135,0,7.485-3.35,7.485-7.485V93.748c0-10.597-4.466-20.799-12.25-27.989l-5.725-5.287v-9.363h0.854
	c4.135,0,7.485-3.35,7.485-7.485V7.504c0-4.134-3.35-7.485-7.485-7.485h-99.105c-4.135,0-7.485,3.351-7.485,7.485v36.12
	c0,3.906,2.991,7.108,6.807,7.451v10.023l-7.429,9.177c-7.178,8.867-11.132,20.034-11.132,31.444v16.724h-25.099h-83.929
	c2.678-4.521,4.22-9.788,4.22-15.412c0-4.135-3.35-7.485-7.485-7.485H93.729c-10.597,0-20.798,4.465-27.988,12.25l-5.288,5.725
	H51.09v-0.855c0-4.135-3.35-7.485-7.485-7.485H7.485c-4.135,0-7.485,3.35-7.485,7.485v22.272c0,4.135,3.35,7.485,7.485,7.485
	s7.485-3.35,7.485-7.485v-14.787h21.151v0.855v41.212v42.068H14.97v-44.399c0-4.135-3.35-7.485-7.485-7.485S0,155.753,0,159.888
	v51.884c0,4.135,3.35,7.485,7.485,7.485h36.121c3.906,0,7.109-2.992,7.451-6.808h10.023l9.177,7.43
	c8.868,7.178,20.034,11.132,31.443,11.132h16.713v24.946v35.455c0,4.135,3.35,7.485,7.485,7.485s7.485-3.35,7.485-7.485v-27.97
	h29.219c-1.431,3.564-2.197,7.409-2.197,11.346c0,0.031,0.002,0.061,0.002,0.093c0,0.032-0.002,0.064-0.002,0.096
	c0,16.822,13.686,30.508,30.508,30.508s30.507-13.686,30.507-30.508c0-0.032-0.002-0.064-0.002-0.096
	c0-0.031,0.002-0.061,0.002-0.092c0-3.937-0.765-7.783-2.196-11.346h29.286v44.291V308c0,3.282,2.139,6.181,5.274,7.151
	c3.135,0.967,6.538-0.219,8.39-2.929c2.898-4.24,7.657-6.774,12.738-6.786c8.56,0.011,15.519,6.976,15.519,15.536
	c0,8.562-6.959,15.527-15.519,15.538c-5.08-0.012-9.84-2.547-12.738-6.787c-1.85-2.711-5.249-3.894-8.39-2.929
	c-3.137,0.97-5.274,3.869-5.274,7.151v0.265v44.291H133.383V316.37c0-4.135-3.35-7.485-7.485-7.485s-7.485,3.35-7.485,7.485v23.552
	c-4.524-2.684-9.797-4.229-15.428-4.229c-4.134,0-7.485,3.351-7.485,7.485v75.074c0,10.598,4.466,20.8,12.25,27.989l5.725,5.287
	v9.363h-0.854c-4.135,0-7.485,3.35-7.485,7.485v36.121c0,4.135,3.35,7.485,7.485,7.485h99.105c4.135,0,7.485-3.35,7.485-7.485
	v-36.121c0-3.906-2.991-7.108-6.807-7.451v-10.023l7.429-9.177c7.178-8.867,11.132-20.034,11.132-31.444v-16.808h25.029h83.987
	c-2.708,4.539-4.269,9.837-4.269,15.496c0,4.134,3.35,7.485,7.485,7.485h75.074c10.598,0,20.799-4.465,27.989-12.25l5.288-5.725
	h9.362v0.855c0,4.135,3.35,7.485,7.485,7.485h36.12c4.135,0,7.485-3.35,7.485-7.485v-24.601c0-4.135-3.35-7.485-7.485-7.485
	c-4.135,0-7.485,3.35-7.485,7.485v17.116h-21.15v-0.855V349.78v-42.068h21.15v42.068
	C497.03,353.914,500.382,357.265,504.515,357.265z M307.819,14.989h84.135v21.15H391.1h-41.212H307.82v-21.15H307.819z
	 M296.065,101.719c0-7.992,2.769-15.814,7.797-22.025l9.097-11.237c1.079-1.332,1.668-2.995,1.668-4.709V51.108h35.261h33.728
	v12.638c0,2.089,0.872,4.082,2.406,5.499l8.132,7.51c4.726,4.365,7.438,10.559,7.438,16.992v65.64
	c-4.701-2.633-7.887-7.663-7.887-13.424v-25.414c0-3.812-2.877-7.017-6.666-7.44c-0.116-0.013-11.699-1.351-22.921-6.554
	c-13.441-6.233-20.256-15.05-20.256-26.208c0-4.135-3.35-7.485-7.485-7.485c-4.135,0-7.485,3.35-7.485,7.485
	c0,16.164,8.774,29.247,25.43,38.051h-58.257v-16.679H296.065z M101.7,216.042c-7.992,0-15.813-2.769-22.023-7.798l-11.237-9.098
	c-1.333-1.079-2.996-1.668-4.71-1.668H51.09v-35.26v-33.728h12.638c2.089,0,4.082-0.872,5.499-2.407l7.51-8.132
	c4.365-4.726,10.558-7.437,16.991-7.437h65.64c-2.633,4.701-7.663,7.887-13.424,7.887h-25.413c-3.812,0-7.017,2.877-7.44,6.666
	c-0.013,0.116-1.351,11.699-6.554,22.921c-6.233,13.441-15.05,20.256-26.208,20.256c-4.135,0-7.485,3.35-7.485,7.485
	c0,4.135,3.35,7.485,7.485,7.485c16.163,0,29.246-8.773,38.05-25.428v58.256L101.7,216.042L101.7,216.042z M204.151,248.473h-0.264
	c-3.282,0-6.181,2.139-7.15,5.274c-0.97,3.137,0.218,6.538,2.927,8.39c4.217,2.882,6.746,7.632,6.784,12.722
	c-0.039,8.535-6.991,15.467-15.535,15.467c-8.545,0-15.497-6.932-15.536-15.467c0.038-5.091,2.567-9.84,6.784-12.722
	c2.71-1.852,3.896-5.254,2.927-8.39c-0.969-3.137-3.868-5.274-7.15-5.274h-0.264h-44.292V133.413h115.128v29.229
	c-3.582-1.437-7.451-2.207-11.414-2.207c-0.009,0-0.018,0.001-0.027,0.001c-0.009,0-0.019-0.001-0.028-0.001
	c-16.822,0-30.507,13.686-30.507,30.508c0,16.822,13.685,30.507,30.507,30.507c0.009,0,0.019-0.001,0.028-0.001
	c0.009,0,0.018,0.001,0.027,0.001c3.963,0,7.832-0.768,11.414-2.207v29.229h-44.358V248.473z M204.242,497.011h-84.135V475.86h0.854
	h41.212h42.068L204.242,497.011L204.242,497.011z M215.997,410.28c0,7.992-2.769,15.814-7.798,22.025l-9.097,11.237
	c-1.079,1.332-1.668,2.995-1.668,4.709v12.638h-35.261h-33.728v-12.638c0-2.089-0.872-4.082-2.406-5.499l-8.133-7.51
	c-4.725-4.365-7.437-10.558-7.437-16.992v-65.64c4.701,2.633,7.887,7.663,7.887,13.424v25.414c0,3.812,2.877,7.017,6.666,7.44
	c0.116,0.013,11.699,1.351,22.921,6.554c13.441,6.233,20.256,15.05,20.256,26.208c0,4.135,3.35,7.485,7.485,7.485
	c4.135,0,7.485-3.35,7.485-7.485c0-16.163-8.773-29.246-25.428-38.05h58.256L215.997,410.28L215.997,410.28z M263.481,349.275
	c3.582,1.437,7.45,2.207,11.413,2.207c0.009,0,0.018-0.001,0.027-0.001c0.009,0,0.018,0.001,0.028,0.001
	c16.822,0,30.508-13.686,30.508-30.508c0-16.822-13.686-30.507-30.508-30.507c-0.009,0-0.019,0.001-0.028,0.001
	c-0.009,0-0.018-0.001-0.027-0.001c-3.964,0-7.831,0.768-11.413,2.207v-29.229h44.358h0.265c3.282,0,6.181-2.138,7.151-5.274
	c0.969-3.137-0.219-6.539-2.929-8.39c-4.217-2.882-6.746-7.632-6.784-12.722c0.039-8.536,6.991-15.468,15.535-15.468
	c8.544,0,15.496,6.932,15.535,15.468c-0.038,5.091-2.567,9.84-6.784,12.722c-2.71,1.852-3.896,5.254-2.928,8.39
	c0.97,3.137,3.869,5.274,7.151,5.274h0.265h44.291v115.059H263.482L263.481,349.275L263.481,349.275z M448.272,383.508
	c-2.089,0-4.082,0.872-5.499,2.407l-7.51,8.132c-4.365,4.726-10.559,7.437-16.992,7.437h-65.64
	c2.633-4.701,7.663-7.887,13.424-7.887h25.414c3.812,0,7.017-2.877,7.44-6.666c0.013-0.116,1.35-11.699,6.554-22.921
	c6.233-13.441,15.05-20.256,26.208-20.256c4.135,0,7.485-3.35,7.485-7.485c0-4.135-3.35-7.485-7.485-7.485
	c-16.164,0-29.247,8.774-38.051,25.43v-58.257h16.68c7.991,0,15.814,2.769,22.024,7.797l11.237,9.098
	c1.333,1.079,2.996,1.668,4.71,1.668h12.638v35.26v33.728h-12.639V383.508z"/>
<g>
</g>
<g>
</g>
<g>
</g>
<g>
</g>
<g>
</g>
<g>
</g>
<g>
</g>
<g>
</g>
<g>
</g>
<g>
</g>
<g>
</g>
<g>
</g>
<g>
</g>
<g>
</g>
<g>
</g>
</svg>
