<?xml version="1.0" encoding="iso-8859-1"?>
<!-- Generator: Adobe Illustrator 19.0.0, SVG Export Plug-In . SVG Version: 6.00 Build 0)  -->
<svg version="1.1" id="Layer_1" xmlns="http://www.w3.org/2000/svg" xmlns:xlink="http://www.w3.org/1999/xlink" x="0px" y="0px"
	 viewBox="0 0 512 512" style="enable-background:new 0 0 512 512;" xml:space="preserve">
<rect x="156.098" y="260.149" style="fill:#EFE7E4;" width="143.618" height="52.186"/>
<rect x="142.134" y="312.345" style="fill:#546F7A;" width="171.545" height="173.64"/>
<rect x="279.667" y="260.149" style="fill:#D8D1D0;" width="20.049" height="52.186"/>
<rect x="293.631" y="312.345" style="fill:#465A65;" width="20.049" height="173.64"/>
<path style="fill:#F7B081;" d="M316.746,128.323v40.922c0,14.104-4.842,27.779-13.716,38.742l-13.183,16.283v35.884h-61.942h-59.722
	V224.27l-11.786-10.883c-9.094-8.398-14.266-20.213-14.266-32.591V72.006l0,0c18.293,0,33.122,14.83,33.122,33.122v23.195H316.746z"
	/>
<path style="fill:#DD9A76;" d="M299.211,143.228c-9.76,0-17.672-7.912-17.672-17.672c0,9.76-7.912,17.672-17.672,17.672l0,0
	c-9.76,0-17.672-7.912-17.672-17.672c0,9.76-7.912,17.672-17.672,17.672l0,0c-9.76,0-17.672-7.912-17.672-17.672
	c0,9.76-7.912,17.672-17.672,17.672s-17.672-7.912-17.672-17.672v20.049c0,9.76,7.912,17.672,17.672,17.672
	s17.672-7.912,17.672-17.672c0,9.76,7.912,17.672,17.672,17.672l0,0c9.76,0,17.672-7.912,17.672-17.672
	c0,9.76,7.912,17.672,17.672,17.672l0,0c9.76,0,17.672-7.912,17.672-17.672c0,9.76,7.912,17.672,17.672,17.672
	s17.672-7.912,17.672-17.672v-20.049C316.883,135.316,308.972,143.228,299.211,143.228z"/>
<g>
	<polygon style="fill:#F7CB4F;" points="142.133,91.706 7.518,91.706 7.518,122.476 35.167,122.476 35.167,150.031 60.268,150.031 
		60.268,122.476 80.894,122.476 80.894,150.031 105.994,150.031 105.994,122.476 142.133,122.476 	"/>
	<path style="fill:#F7CB4F;" d="M423.405,26.013c-39.517,0-72.425,28.273-79.614,65.693h-27.044v30.769h27.044
		c7.188,37.42,40.097,65.693,79.614,65.693c44.778,0,81.078-36.3,81.078-81.078S468.182,26.013,423.405,26.013z M423.405,157.867
		c-28.043,0-50.775-22.733-50.775-50.776s22.733-50.775,50.775-50.775c28.042,0,50.775,22.733,50.775,50.775
		C474.18,135.134,451.446,157.867,423.405,157.867z"/>
</g>
<g>
	<path style="fill:#FFAE47;" d="M415.886,56.873c-2.454-0.364-4.963-0.557-7.518-0.557c-28.043,0-50.775,22.733-50.775,50.775
		c0,28.043,22.733,50.776,50.775,50.776c2.555,0,5.064-0.193,7.518-0.557c-24.476-3.634-43.257-24.73-43.257-50.218
		S391.409,60.507,415.886,56.873z"/>
	<path style="fill:#FFAE47;" d="M423.405,26.013c-2.557,0-5.085,0.123-7.581,0.355c41.282,3.765,73.623,38.459,73.623,80.722
		s-32.341,76.957-73.623,80.722c2.497,0.232,5.024,0.355,7.581,0.355c44.778,0,81.078-36.3,81.078-81.078
		C504.482,62.313,468.182,26.013,423.405,26.013z"/>
	<rect x="45.229" y="122.476" style="fill:#FFAE47;" width="15.036" height="27.555"/>
	<rect x="90.96" y="122.476" style="fill:#FFAE47;" width="15.036" height="27.555"/>
	<rect x="127.098" y="91.701" style="fill:#FFAE47;" width="15.036" height="30.769"/>
</g>
<path style="fill:#FFC89F;" d="M193.181,143.228L193.181,143.228c-9.76,0-17.672-7.912-17.672-17.672V59.35
	c0-9.76,7.912-17.672,17.672-17.672l0,0c9.76,0,17.672,7.912,17.672,17.672v66.206C210.853,135.317,202.941,143.228,193.181,143.228
	z"/>
<path style="fill:#F7B081;" d="M193.181,41.679c-2.693,0-5.235,0.619-7.518,1.697c5.994,2.827,10.154,8.908,10.154,15.975v66.206
	c0,7.067-4.159,13.148-10.154,15.975c2.284,1.077,4.826,1.697,7.518,1.697c9.76,0,17.672-7.912,17.672-17.672V59.35
	C210.853,49.591,202.941,41.679,193.181,41.679z"/>
<path style="fill:#FFC89F;" d="M263.869,143.228L263.869,143.228c-9.76,0-17.672-7.912-17.672-17.672V59.35
	c0-9.76,7.912-17.672,17.672-17.672l0,0c9.76,0,17.672,7.912,17.672,17.672v66.206C281.539,135.317,273.628,143.228,263.869,143.228
	z"/>
<path style="fill:#F7B081;" d="M263.869,41.679L263.869,41.679c-2.693,0-5.235,0.619-7.518,1.697
	c5.995,2.827,10.154,8.908,10.154,15.975v66.206c0,7.067-4.159,13.148-10.154,15.975c2.284,1.077,4.826,1.697,7.518,1.697l0,0
	c9.76,0,17.672-7.912,17.672-17.672V59.35C281.539,49.591,273.628,41.679,263.869,41.679z"/>
<path style="fill:#FFC89F;" d="M299.211,143.228L299.211,143.228c-9.76,0-17.672-7.912-17.672-17.672V77.575
	c0-9.76,7.912-17.672,17.672-17.672l0,0c9.76,0,17.672,7.912,17.672,17.672v47.982C316.883,135.317,308.972,143.228,299.211,143.228
	z"/>
<path style="fill:#F7B081;" d="M299.211,59.903c-2.693,0-5.235,0.619-7.518,1.697c5.995,2.827,10.154,8.908,10.154,15.975v47.982
	c0,7.067-4.159,13.148-10.154,15.975c2.284,1.077,4.826,1.697,7.518,1.697c9.76,0,17.672-7.912,17.672-17.672V77.575
	C316.883,67.816,308.972,59.903,299.211,59.903z"/>
<path style="fill:#FFC89F;" d="M228.525,143.228L228.525,143.228c-9.76,0-17.672-7.912-17.672-17.672V51.182
	c0-9.76,7.912-17.672,17.672-17.672l0,0c9.76,0,17.672,7.912,17.672,17.672v74.374C246.197,135.317,238.285,143.228,228.525,143.228
	z"/>
<path style="fill:#F7B081;" d="M228.525,33.511L228.525,33.511c-2.693,0-5.235,0.619-7.518,1.697
	c5.995,2.827,10.154,8.908,10.154,15.975v74.374c0,7.067-4.159,13.148-10.154,15.975c2.284,1.077,4.826,1.697,7.518,1.697l0,0
	c9.76,0,17.672-7.912,17.672-17.672V51.182C246.197,41.423,238.285,33.511,228.525,33.511z"/>
<circle cx="279.156" cy="348.002" r="10.694"/>
<path d="M423.405,48.798c-4.152,0-7.518,3.365-7.518,7.518s3.366,7.518,7.518,7.518c23.852,0,43.257,19.405,43.257,43.257
	s-19.405,43.257-43.257,43.257c-23.852,0-43.257-19.405-43.257-43.257c0-16.542,9.642-31.859,24.564-39.022
	c3.743-1.797,5.321-6.288,3.525-10.032c-1.796-3.742-6.288-5.32-10.031-3.525c-20.104,9.65-33.094,30.289-33.094,52.578
	c0,32.143,26.15,58.293,58.293,58.293s58.293-26.15,58.293-58.293C481.698,74.948,455.547,48.798,423.405,48.798z"/>
<path d="M423.405,18.494c-40.316,0-75.363,27.274-85.6,65.693h-13.403v-6.613c0-13.89-11.3-25.19-25.19-25.19
	c-3.78,0-7.366,0.842-10.587,2.341c-2.178-11.687-12.447-20.566-24.757-20.566c-5.065,0-9.782,1.508-13.736,4.091
	c-4.408-7.337-12.443-12.259-21.607-12.259c-9.165,0-17.2,4.921-21.607,12.259c-3.954-2.583-8.671-4.091-13.736-4.091
	c-13.89,0-25.19,11.299-25.19,25.19v14.449c-7.031-5.814-16.044-9.312-25.859-9.312c-4.152,0-7.518,3.365-7.518,7.518v12.181H7.518
	C3.366,84.186,0,87.551,0,91.704v30.769c0,4.153,3.366,7.518,7.518,7.518h20.131v20.035c0,4.153,3.366,7.518,7.518,7.518h25.102
	c4.152,0,7.518-3.365,7.518-7.518v-20.033h5.589v20.035c0,4.153,3.366,7.518,7.518,7.518h25.101c4.152,0,7.518-3.365,7.518-7.518
	v-20.035h21.101v50.803c0,14.431,6.081,28.324,16.683,38.113l9.368,8.652v25.075h-4.568c-4.152,0-7.518,3.365-7.518,7.518v44.668
	h-6.447c-4.152,0-7.518,3.365-7.518,7.518v42.115c0,4.153,3.366,7.518,7.518,7.518c4.152,0,7.518-3.365,7.518-7.518V319.86h6.447
	h143.616h6.446v158.61H149.651v-98.952c0-4.153-3.366-7.518-7.518-7.518c-4.152,0-7.518,3.365-7.518,7.518v106.471
	c0,4.153,3.366,7.518,7.518,7.518h171.544c4.152,0,7.518-3.365,7.518-7.518V312.34c0-4.153-3.366-7.518-7.518-7.518h-6.446v-44.668
	c0-4.153-3.366-7.518-7.518-7.518h-2.348v-25.704l11.508-14.215c9.925-12.26,15.391-27.698,15.391-43.472v-39.25h13.54
	c10.237,38.419,45.285,65.693,85.6,65.693c48.851,0,88.595-39.743,88.595-88.596S472.256,18.494,423.405,18.494z M299.211,67.422
	c5.599,0,10.154,4.555,10.154,10.154v12.719c-0.087,0.458-0.137,0.929-0.137,1.412v30.769c0,0.483,0.05,0.954,0.137,1.412v1.668
	c0,5.599-4.555,10.154-10.154,10.154s-10.154-4.555-10.154-10.154V77.575C289.057,71.977,293.613,67.422,299.211,67.422z
	 M263.868,49.197c5.599,0,10.154,4.555,10.154,10.154v18.225v47.981c0,5.599-4.555,10.154-10.154,10.154
	s-10.154-4.555-10.154-10.154V59.35C253.715,53.752,258.27,49.197,263.868,49.197z M218.371,51.183
	c0-5.599,4.555-10.154,10.154-10.154s10.154,4.555,10.154,10.154v8.167v66.206c0,5.599-4.555,10.154-10.154,10.154
	s-10.154-4.555-10.154-10.154V59.35V51.183z M210.853,143.486c0.165,0.163,0.335,0.323,0.504,0.481
	c-0.234-0.098-0.468-0.196-0.702-0.294C210.722,143.611,210.788,143.55,210.853,143.486z M183.028,59.35
	c0-5.599,4.555-10.154,10.154-10.154c5.599,0,10.154,4.555,10.154,10.154v66.206c0,5.599-4.555,10.154-10.154,10.154
	c-5.599,0-10.154-4.555-10.154-10.154V59.35z M105.994,114.958c-4.152,0-7.518,3.365-7.518,7.518v20.035H88.412v-20.035
	c0-4.153-3.366-7.518-7.518-7.518H60.269c-4.152,0-7.518,3.365-7.518,7.518v20.035H42.685v-20.035c0-4.153-3.366-7.518-7.518-7.518
	H15.036V99.225h119.578v15.733H105.994z M163.615,304.822v-37.15h4.568h59.722h64.29v37.15H163.615z M297.186,203.256
	l-13.183,16.284c-1.084,1.338-1.675,3.008-1.675,4.73v28.366h-54.424h-52.203v-28.366c0-2.098-0.876-4.1-2.418-5.523l-11.786-10.883
	c-7.529-6.953-11.848-16.819-11.848-27.068l0.001-100.146c10.461,3.22,18.086,12.975,18.086,24.478v36.828
	c0,3.838,2.892,7.06,6.707,7.474c0.655,0.071,65.521,7.605,65.521,50.783c0,4.153,3.366,7.518,7.518,7.518
	c4.152,0,7.518-3.365,7.518-7.518c0-20.723-10.644-37.797-30.923-49.868c1.444,0.259,2.928,0.401,4.446,0.401
	c6.88,0,13.121-2.775,17.672-7.261c4.551,4.486,10.792,7.261,17.672,7.261c6.88,0,13.121-2.775,17.672-7.261
	c4.551,4.486,10.792,7.261,17.672,7.261c3.559,0,6.945-0.746,10.016-2.083v20.582C309.227,181.587,304.951,193.664,297.186,203.256z
	 M423.405,180.651c-35.219,0-65.597-25.063-72.231-59.593c-0.68-3.541-3.777-6.1-7.383-6.1h-19.39V99.225h19.39
	c3.606,0,6.703-2.559,7.383-6.1c6.634-34.531,37.011-59.593,72.231-59.593c40.56,0,73.559,32.999,73.559,73.56
	S463.965,180.651,423.405,180.651z"/>
<g>
</g>
<g>
</g>
<g>
</g>
<g>
</g>
<g>
</g>
<g>
</g>
<g>
</g>
<g>
</g>
<g>
</g>
<g>
</g>
<g>
</g>
<g>
</g>
<g>
</g>
<g>
</g>
<g>
</g>
</svg>
