<?xml version="1.0" encoding="iso-8859-1"?>
<!-- Generator: Adobe Illustrator 19.0.0, SVG Export Plug-In . SVG Version: 6.00 Build 0)  -->
<svg version="1.1" id="Layer_1" xmlns="http://www.w3.org/2000/svg" xmlns:xlink="http://www.w3.org/1999/xlink" x="0px" y="0px"
	 viewBox="0 0 512.001 512.001" style="enable-background:new 0 0 512.001 512.001;" xml:space="preserve">
<polygon style="fill:#FF9827;" points="219.943,80.429 237.266,115.431 467.29,115.431 467.29,453.971 504.489,453.971 
	504.489,80.429 "/>
<rect x="484.458" y="80.426" style="fill:#E07210;" width="20.031" height="373.544"/>
<polygon style="fill:#F7CB4F;" points="237.266,115.431 208.856,58.03 7.513,58.03 7.513,115.431 7.513,453.971 467.29,453.971 
	467.29,115.431 "/>
<g>
	<polygon style="fill:#F4B008;" points="237.266,115.431 208.857,58.03 188.825,58.03 217.235,115.431 	"/>
	<rect x="447.26" y="115.431" style="fill:#F4B008;" width="20.031" height="338.54"/>
</g>
<circle style="fill:#EFE7E4;" cx="241.979" cy="284.215" r="108.4"/>
<path style="fill:#D8D1D0;" d="M241.984,175.813c-3.377,0-6.717,0.162-10.016,0.465c55.174,5.056,98.389,51.447,98.389,107.94
	s-43.216,102.884-98.389,107.94c3.299,0.302,6.638,0.465,10.016,0.465c59.871,0,108.405-48.535,108.405-108.405
	C350.388,224.346,301.853,175.813,241.984,175.813z"/>
<path style="fill:#FFC89F;" d="M241.984,314.785L241.984,314.785c19.341,0,35.165-15.825,35.165-35.165v-30.26
	c0-19.341-15.825-35.166-35.165-35.166l0,0c-19.341,0-35.166,15.825-35.166,35.165v30.26
	C206.818,298.96,222.642,314.785,241.984,314.785z"/>
<path style="fill:#F7B081;" d="M241.984,214.194c-3.476,0-6.838,0.519-10.016,1.47c14.501,4.341,25.149,17.831,25.149,33.696v30.26
	c0,15.864-10.65,29.355-25.149,33.695c3.178,0.951,6.539,1.47,10.016,1.47c19.341,0,35.165-15.825,35.165-35.165v-30.26
	C277.149,230.018,261.324,214.194,241.984,214.194z"/>
<path style="fill:#68B9D8;" d="M241.984,392.622c26.974,0,51.645-9.855,70.615-26.158c-9.19-29.491-38.51-51.3-70.615-51.74
	c-32.105,0.439-61.425,22.249-70.615,51.74C190.338,382.766,215.008,392.622,241.984,392.622z"/>
<path style="fill:#3695B2;" d="M292.567,366.465c1.446,4.234,2.254,8.329,2.514,12.278c6.249-3.519,12.115-7.636,17.517-12.278
	c-9.19-29.491-38.51-51.3-70.615-51.74c-3.377,0.046-6.721,0.343-10.016,0.845C259.999,319.851,284.343,340.076,292.567,366.465z"/>
<path style="fill:#D3333C;" d="M250.43,335.552h-8.446h-8.446l-9.446-18.352c5.784-1.534,11.787-2.392,17.893-2.476
	c6.105,0.083,12.108,0.94,17.892,2.476L250.43,335.552z"/>
<path style="fill:#F2464F;" d="M241.984,335.552h-8.446l-9.794,42.516l15.869,14.524c0.789,0.017,1.578,0.03,2.372,0.03
	s1.582-0.013,2.372-0.03l15.869-14.524l-9.794-42.516H241.984z"/>
<path d="M504.488,72.918H224.606l-9.018-18.22c-1.267-2.56-3.876-4.18-6.733-4.18H7.512C3.362,50.519,0,53.882,0,58.03v68.522
	c0,4.148,3.362,7.512,7.512,7.512s7.512-3.363,7.512-7.512v-61.01h189.169l9.018,18.22l0,0l17.324,35.001
	c1.267,2.56,3.876,4.18,6.733,4.18h222.511v229.657c0,4.148,3.362,7.512,7.512,7.512s7.512-3.363,7.512-7.512V115.431
	c0-4.148-3.362-7.512-7.512-7.512H241.93l-9.887-19.977h264.934v358.517h-22.176v-68.82c0-4.148-3.362-7.512-7.512-7.512
	s-7.512,3.363-7.512,7.512v68.82H15.024V151.593c0-4.148-3.362-7.512-7.512-7.512S0,147.444,0,151.593v302.378
	c0,4.148,3.362,7.512,7.512,7.512H467.29h37.199c4.15,0,7.512-3.363,7.512-7.512V80.429C512,76.281,508.638,72.918,504.488,72.918z"
	/>
<path d="M166.472,372.162c9.098,7.819,19.292,14.112,30.177,18.736c0.098,0.042,0.195,0.086,0.294,0.128
	c0.111,0.047,0.224,0.091,0.337,0.138c9.927,4.165,20.551,6.981,31.645,8.231c0.084,0.01,0.168,0.02,0.253,0.029
	c0.703,0.078,1.409,0.148,2.116,0.213c0.245,0.023,0.491,0.044,0.737,0.066c0.6,0.051,1.202,0.099,1.804,0.141
	c0.376,0.026,0.751,0.049,1.127,0.072c0.506,0.03,1.012,0.061,1.519,0.085c0.524,0.025,1.048,0.042,1.572,0.06
	c0.382,0.013,0.763,0.029,1.146,0.038c0.926,0.022,1.854,0.035,2.783,0.035c0.928,0,1.856-0.013,2.783-0.035
	c0.383-0.009,0.764-0.026,1.146-0.038c0.524-0.018,1.049-0.035,1.571-0.06c0.508-0.024,1.014-0.055,1.519-0.085
	c0.376-0.023,0.752-0.045,1.127-0.072c0.603-0.042,1.204-0.09,1.804-0.141c0.245-0.021,0.492-0.043,0.737-0.066
	c0.707-0.065,1.412-0.135,2.116-0.213c0.084-0.009,0.169-0.019,0.253-0.029c11.103-1.251,21.738-4.071,31.673-8.242
	c0.102-0.043,0.205-0.083,0.307-0.126c0.101-0.043,0.2-0.088,0.301-0.131c10.883-4.624,21.075-10.916,30.171-18.733
	c0.187-0.161,0.351-0.342,0.519-0.517c24.424-21.267,39.887-52.574,39.887-87.427c0-63.916-52-115.916-115.916-115.916
	s-115.916,51.999-115.916,115.916c0,34.853,15.463,66.16,39.887,87.427C166.122,371.82,166.285,372,166.472,372.162z
	 M214.329,264.044c25.062-2.989,34.422-20.308,34.422-20.308s5.896,15.534,20.886,19.716v16.168
	c0,14.864-11.789,27.021-26.509,27.624c-0.348-0.009-0.695-0.026-1.042-0.031c-0.068-0.001-0.137-0.001-0.205,0
	c-0.348,0.005-0.695,0.021-1.044,0.031c-14.718-0.604-26.507-12.76-26.507-27.624L214.329,264.044L214.329,264.044z
	 M288.536,373.707c-0.468,0.243-0.935,0.485-1.407,0.72c-0.468,0.234-0.933,0.472-1.405,0.699c-0.971,0.467-1.947,0.916-2.932,1.352
	c-0.27,0.12-0.541,0.238-0.811,0.356c-1.137,0.491-2.28,0.967-3.433,1.416c-0.007,0.003-0.014,0.005-0.021,0.008
	c-3.895,1.513-7.883,2.781-11.942,3.802c1.047-1.668,1.413-3.708,0.958-5.679l-9.176-39.836l5.286-10.271
	c17.917,6.498,32.997,20.315,40.07,37.682C298.979,367.639,293.899,370.907,288.536,373.707z M239.516,343.064h4.937l7.469,32.421
	l-9.938,9.095l-9.937-9.095L239.516,343.064z M236.054,322.614c0.661-0.071,1.321-0.132,1.982-0.182
	c0.328-0.025,0.654-0.052,0.983-0.073c0.691-0.042,1.381-0.065,2.071-0.085c0.297,0.006,0.593,0.023,0.892,0.023
	c0.299,0,0.595-0.016,0.892-0.023c0.69,0.02,1.381,0.042,2.071,0.085c0.329,0.02,0.655,0.047,0.983,0.073
	c0.662,0.051,1.324,0.112,1.985,0.182c0.228,0.025,0.458,0.05,0.686,0.077l-2.753,5.349h-7.729l-2.753-5.348
	C235.595,322.664,235.824,322.639,236.054,322.614z M220.313,326.275l5.286,10.271l-9.177,39.835
	c-0.454,1.971-0.088,4.011,0.959,5.679c-4.058-1.021-8.048-2.289-11.942-3.802c-0.007-0.003-0.014-0.005-0.021-0.008
	c-1.154-0.449-2.297-0.925-3.433-1.416c-0.271-0.117-0.542-0.235-0.811-0.356c-0.984-0.435-1.961-0.885-2.932-1.352
	c-0.472-0.228-0.937-0.465-1.405-0.699c-0.471-0.235-0.939-0.478-1.407-0.72c-5.362-2.8-10.442-6.068-15.188-9.75
	C187.317,346.592,202.397,332.774,220.313,326.275z M141.09,284.217c0-55.632,45.26-100.893,100.893-100.893
	s100.894,45.261,100.894,100.893c0,26.731-10.452,51.063-27.481,69.134c-5.677-11.491-14.31-21.79-25.059-29.701
	c-6.463-4.756-13.572-8.546-21.014-11.292c9.367-7.835,15.338-19.601,15.338-32.739v-30.26c0-23.533-19.145-42.677-42.677-42.677
	s-42.677,19.145-42.677,42.677v30.26c0,13.139,5.971,24.904,15.338,32.739c-7.443,2.745-14.551,6.535-21.014,11.292
	c-10.749,7.91-19.382,18.211-25.059,29.701C151.543,335.28,141.09,310.948,141.09,284.217z"/>
<g>
</g>
<g>
</g>
<g>
</g>
<g>
</g>
<g>
</g>
<g>
</g>
<g>
</g>
<g>
</g>
<g>
</g>
<g>
</g>
<g>
</g>
<g>
</g>
<g>
</g>
<g>
</g>
<g>
</g>
</svg>
